<?xml version="1.0" encoding="UTF-8" standalone="no"?>
<svg
   width="500"
   height="363.30585"
   viewBox="0 0 500 363.30585"
   version="1.1"
   id="svg66"
   sodipodi:docname="logo.svg"
   inkscape:version="1.1.1 (3bf5ae0d25, 2021-09-20)"
   xmlns:inkscape="http://www.inkscape.org/namespaces/inkscape"
   xmlns:sodipodi="http://sodipodi.sourceforge.net/DTD/sodipodi-0.dtd"
   xmlns="http://www.w3.org/2000/svg"
   xmlns:svg="http://www.w3.org/2000/svg">
  <defs
     id="defs70" />
  <sodipodi:namedview
     id="namedview68"
     pagecolor="#ffffff"
     bordercolor="#666666"
     borderopacity="1.0"
     inkscape:pageshadow="2"
     inkscape:pageopacity="0.0"
     inkscape:pagecheckerboard="0"
     showgrid="false"
     inkscape:zoom="0.74895833"
     inkscape:cx="245.67455"
     inkscape:cy="176.91238"
     inkscape:window-width="1920"
     inkscape:window-height="1017"
     inkscape:window-x="-8"
     inkscape:window-y="-8"
     inkscape:window-maximized="1"
     inkscape:current-layer="home-index-desktop_v2.1-1440px" />
  <!-- Generator: Sketch 55.2 (78181) - https://sketchapp.com -->
  <title
     id="title2">Color_Logo</title>
  <desc
     id="desc4">Created with Sketch.</desc>
  <g
     id="Home-Index-Page"
     stroke="none"
     stroke-width="1"
     fill="none"
     fill-rule="evenodd"
     transform="matrix(6.120798,0,0,6.120798,-0.37331681,-1.950196)">
    <g
       id="home-index-desktop_v2.1-1440px"
       transform="translate(-150,-55)"
       fill-rule="nonzero">
      <g
         id="g891">
        <g
           id="Color_Logo"
           transform="translate(150,55)">
          <g
             id="Oval-Shapes">
            <ellipse
               id="Oval"
               fill="#ed1b2f"
               transform="rotate(-2.739664,79.04561,24.229988)"
               cx="79.045609"
               cy="24.229988"
               rx="2.7040832"
               ry="2.7018111" />
            <path
               d="m 77.107107,29.047458 c -0.06438,-1.342373 -1.202892,-2.379661 -2.54471,-2.311865 -1.341818,0.06441 -2.378678,1.20339 -2.314298,2.545763 0.06438,1.342373 1.202893,2.376271 2.544711,2.315254 1.341818,-0.0678 2.378678,-1.20678 2.314297,-2.549152 z"
               id="Shape"
               fill="#e31e36" />
            <path
               d="m 72.007521,32.691525 c -0.0576,-1.206779 -1.080909,-2.138983 -2.290579,-2.081355 -1.206281,0.05763 -2.138099,1.084745 -2.080496,2.291525 0.0576,1.20678 1.084298,2.138983 2.290579,2.081356 1.206281,-0.05763 2.138099,-1.081356 2.080496,-2.291526 z"
               id="path8"
               fill="#da1f3d" />
            <ellipse
               id="ellipse10"
               fill="#d12244"
               transform="rotate(-2.722496,64.630917,34.855563)"
               cx="64.630913"
               cy="34.855564"
               rx="1.9687343"
               ry="1.9695481" />
            <path
               d="m 61.239091,35.111864 c -0.04744,-0.979661 -0.877603,-1.735593 -1.85686,-1.688135 -0.979256,0.04746 -1.734876,0.877966 -1.687438,1.854237 0.04744,0.976271 0.877604,1.735593 1.85686,1.688136 0.979256,-0.04746 1.731488,-0.877966 1.687438,-1.854238 z"
               id="path12"
               fill="#c9234a" />
            <path
               d="m 56.478347,33.698305 c -0.04066,-0.881356 -0.789504,-1.559322 -1.670496,-1.518644 -0.880992,0.04407 -1.562066,0.78983 -1.518016,1.671186 0.04066,0.881356 0.789504,1.562712 1.670496,1.522034 0.880991,-0.04746 1.558677,-0.79661 1.518016,-1.674576 z"
               id="path14"
               fill="#c02550" />
            <ellipse
               id="ellipse16"
               fill="#b72755"
               transform="rotate(-2.733941,51.204015,31.246294)"
               cx="51.204014"
               cy="31.246294"
               rx="1.4367492"
               ry="1.4373431" />
            <path
               d="m 49.630331,28.145763 c -0.03388,-0.711865 -0.640414,-1.264407 -1.355372,-1.230509 -0.711571,0.0339 -1.263885,0.640678 -1.226612,1.352543 0.03388,0.715254 0.637025,1.264406 1.351984,1.230508 0.71157,-0.0339 1.263884,-0.640678 1.23,-1.352542 z"
               id="path18"
               fill="#ae275f" />
            <path
               d="m 47.251653,24.955932 c -0.0305,-0.640678 -0.576033,-1.135593 -1.216446,-1.105085 -0.640414,0.03051 -1.138513,0.576272 -1.108017,1.21695 0.0305,0.640678 0.576033,1.138983 1.216446,1.108474 0.643802,-0.03051 1.138513,-0.576271 1.108017,-1.220339 z"
               id="path20"
               fill="#a52868" />
            <path
               d="m 45.377851,21.759322 c -0.02711,-0.579661 -0.518429,-1.023729 -1.094463,-0.99661 -0.579421,0.02712 -1.023305,0.518644 -0.996198,1.094915 0.0305,0.579661 0.51843,1.023729 1.097851,0.99661 0.576033,-0.02373 1.019918,-0.515254 0.99281,-1.094915 z"
               id="path22"
               fill="#9d2872" />
            <circle
               id="circle24"
               fill="#94287b"
               transform="rotate(-89.920522,42.984217,18.644748)"
               cx="42.984219"
               cy="18.644747"
               r="1" />
            <ellipse
               id="ellipse26"
               fill="#009bdf"
               cx="3.0970247"
               cy="19.128813"
               rx="3.0360332"
               ry="3.0372882" />
            <ellipse
               id="ellipse28"
               fill="#008fd5"
               transform="rotate(-2.722496,6.926506,13.05442)"
               cx="6.9265065"
               cy="13.05442"
               rx="2.7040446"
               ry="2.7017725" />
            <ellipse
               id="ellipse30"
               fill="#0083ca"
               transform="rotate(-2.739664,11.290972,8.121915)"
               cx="11.290972"
               cy="8.1219149"
               rx="2.4329972"
               ry="2.4340031" />
            <ellipse
               id="ellipse32"
               fill="#0077c0"
               transform="rotate(-2.728219,16.143062,4.488024)"
               cx="16.143063"
               cy="4.4880242"
               rx="2.1889989"
               ry="2.1899037" />
            <ellipse
               id="ellipse34"
               fill="#006db7"
               transform="rotate(-2.739664,21.337945,2.429711)"
               cx="21.337944"
               cy="2.4297109"
               rx="1.9687624"
               ry="1.9695762" />
            <ellipse
               id="ellipse36"
               fill="#2062af"
               transform="rotate(-2.728219,26.498392,2.091557)"
               cx="26.498392"
               cy="2.091557"
               rx="1.7722081"
               ry="1.7729408" />
            <ellipse
               id="ellipse38"
               fill="#4156a6"
               transform="rotate(-2.733941,31.083174,3.513384)"
               cx="31.083174"
               cy="3.5133841"
               rx="1.5960115"
               ry="1.5966712" />
            <ellipse
               id="ellipse40"
               fill="#55489d"
               transform="rotate(-2.716773,34.766334,6.042762)"
               cx="34.766335"
               cy="6.0427618"
               rx="1.4367287"
               ry="1.4373226" />
            <ellipse
               id="ellipse42"
               fill="#643695"
               transform="rotate(-2.722496,37.629256,9.079921)"
               cx="37.629257"
               cy="9.0799208"
               rx="1.2944174"
               ry="1.2915626" />
            <path
               d="m 38.716198,12.328814 c 0.0305,0.644067 0.576033,1.138983 1.216447,1.108474 0.643801,-0.03051 1.138512,-0.576271 1.108016,-1.220339 -0.0305,-0.640678 -0.576033,-1.135593 -1.216446,-1.105085 -0.643802,0.03051 -1.141901,0.572882 -1.108017,1.21695 z"
               id="path44"
               fill="#6f2c91" />
            <ellipse
               id="ellipse46"
               fill="#822a85"
               transform="rotate(-2.71105,41.634954,15.47313)"
               cx="41.634953"
               cy="15.47313"
               rx="1.047045"
               ry="1.0474778" />
          </g>
          <g
             id="ResMed"
             transform="translate(0,44.40678)"
             fill="#353535">
            <path
               d="m 14.017934,7.0169491 c -0.250744,0.4338984 -0.579422,0.8474577 -0.972479,1.1593221 -0.474381,0.3491525 -0.97248,0.5762712 -2.107604,0.9694915 l 2.378678,5.7898303 H 9.3452893 L 7.4240496,9.7016949 H 4.8793388 L 3.6832231,14.935593 H 0.06438017 L 3.3680992,0.33898305 h 6.4312396 c 0.3083472,0 0.5997522,0 0.9080992,0.020339 0.413388,0.040678 1.365537,0.12542373 2.314298,0.78644065 0.640413,0.4508475 1.613013,1.4237288 1.613013,3.4305085 0.0033,0.4372881 -0.06111,1.4474576 -0.616815,2.4406779 z M 10.707438,3.6474576 C 10.334711,3.1694915 9.9009917,3.0067797 8.8675207,3.0067797 h -2.46 L 5.4960331,6.9966102 h 3.059752 c 0.081322,0 0.457438,-0.020339 0.7861157,-0.084746 C 9.982314,6.7694915 10.395703,6.4372881 10.70405,5.8779661 c 0.291404,-0.538983 0.311735,-0.9728813 0.311735,-1.220339 0.0034,-0.1627119 0.0034,-0.620339 -0.308347,-1.0101695 z"
               id="path49" />
            <path
               d="m 33.782645,7.6779661 c -0.308348,-0.4338983 -0.38967,-0.559322 -0.596364,-0.7457627 -0.51843,-0.4779661 -1.324876,-0.6813559 -2.00595,-0.6813559 -0.887769,0 -1.362149,0.3728813 -1.362149,0.8271186 0,0.579661 0.742066,0.7661017 1.673884,1.0338983 0.45405,0.1254237 0.887769,0.2474576 1.324876,0.4135593 1.074132,0.3932204 2.127934,0.9084746 2.500661,2.0067793 0.142314,0.393221 0.142314,0.827119 0.142314,0.952543 0,1.261017 -0.826776,2.128813 -1.118182,2.39661 -0.681074,0.640678 -2.00595,1.386441 -4.174545,1.386441 -0.765785,0 -2.954711,-0.04068 -4.526942,-1.861017 -0.227025,-0.267797 -0.352397,-0.41356 -0.660744,-0.969492 l 2.666694,-1.322034 c 0.186364,0.328814 0.291405,0.494916 0.393058,0.620339 0.311736,0.372882 1.053802,0.972882 2.358347,0.972882 0.162645,0 0.579422,-0.02373 1.033471,-0.166102 0.250744,-0.08475 0.433719,-0.186441 0.579422,-0.39322 0.04066,-0.06441 0.125372,-0.20678 0.125372,-0.393221 0,-0.08136 -0.02033,-0.227118 -0.125372,-0.372881 -0.250744,-0.352542 -0.701405,-0.474576 -1.44686,-0.705085 -2.107603,-0.661017 -3.01909,-0.9728813 -3.656115,-2.0033897 -0.121984,-0.2067797 -0.413389,-0.7457627 -0.413389,-1.4067797 0,-0.3084746 0.06099,-0.8881356 0.47438,-1.5288136 0.579422,-0.9118644 1.860248,-1.8406779 4.259257,-1.8406779 2.46,0 3.679834,0.9084746 4.384628,1.7152542 0.182975,0.2271187 0.328677,0.4135593 0.596363,0.8881356 z"
               id="path51" />
            <polygon
               id="polygon53"
               points="41.891157,3.4779661 39.390496,14.935593 35.978347,14.935593 39.248182,0.33559322 44.639174,0.33559322 44.886529,9.9084746 49.413471,0.33898305 54.889174,0.33898305 51.602397,14.935593 48.213967,14.935593 50.819669,3.6440678 45.364297,14.935593 42.304546,14.935593 " />
            <path
               d="m 75.019835,14.935593 h -3.185124 l 0.145702,-0.745763 c -0.166033,0.122034 -0.328678,0.227119 -0.49471,0.352543 -0.393058,0.247458 -1.158844,0.681356 -2.358348,0.681356 -1.219834,0 -1.921239,-0.494915 -2.293967,-0.80678 -0.681074,-0.559322 -1.507851,-1.59322 -1.507851,-3.681356 0,-0.705084 0.125372,-2.4847455 1.199504,-4.1796608 1.44686,-2.2745763 3.45281,-2.6237288 4.462562,-2.6237288 0.372728,0 1.426529,0.040678 2.314298,0.7016949 0.352396,0.2677966 0.599752,0.620339 0.684463,0.7423729 l 1.135124,-5.03728815 h 3.205454 z M 73.095207,7.6576271 c -0.267686,-0.7864407 -0.948761,-1.2610169 -1.758595,-1.220339 -0.559091,0.020339 -0.97248,0.2881356 -1.118182,0.3932204 -1.179174,0.7864406 -1.694215,2.5016949 -1.694215,3.8440675 0,0.725424 0.166033,1.138983 0.352397,1.427119 0.328677,0.518644 0.806446,0.705085 1.406198,0.705085 0.515041,0 1.382479,-0.166102 2.087273,-1.216949 0.535372,-0.80678 0.847107,-2.1118649 0.847107,-3.0440683 0.0034,-0.3322034 -0.01694,-0.5762712 -0.121983,-0.8881356 z"
               id="path55" />
            <path
               d="m 25.121818,10.179661 c 0.04066,-0.4542373 0.08471,-0.9288135 0.08471,-1.4067796 0,-0.2271187 0,-0.9525424 -0.206694,-1.6542373 C 24.854132,6.559322 24.586446,6.0610169 24.217107,5.5898305 22.932893,3.9966102 20.970992,3.9152542 20.310248,3.9152542 c -0.53876,0 -1.924628,0.061017 -3.185124,0.8474577 -1.341818,0.8440678 -2.334628,2.3559322 -2.707355,3.9084745 -0.166033,0.661017 -0.166033,1.1966102 -0.166033,1.4474576 0,2.067797 0.992809,3.928814 2.893718,4.715254 0.948761,0.393221 1.92124,0.41356 2.293968,0.41356 2.626033,0 3.92719,-1.220339 4.567603,-2.047458 C 24.19,12.955932 24.36281,12.701695 24.528843,12.433898 L 22.048512,11.20339 c -0.166033,0.267796 -0.318512,0.532203 -0.525206,0.752542 -0.494711,0.522034 -1.240166,0.827119 -2.005951,0.827119 -0.227024,0 -0.684462,0 -1.199504,-0.288136 -1.138512,-0.620339 -0.972479,-2.027118 -0.952149,-2.315254 z M 18.754959,6.7457627 c 0.250744,-0.2067797 0.725124,-0.6 1.572231,-0.6 1.199504,0 1.755207,0.7864407 1.92124,1.220339 0.101653,0.3118644 0.101653,0.7423729 0.101653,0.8067797 h -4.564215 c 0.389669,-0.8474577 0.596363,-1.0949153 0.969091,-1.4271187 z"
               id="path57" />
            <path
               d="m 64.597025,10.179661 c 0.04066,-0.4542373 0.08471,-0.9288135 0.08471,-1.4067796 0,-0.2271187 0,-0.9525424 -0.206695,-1.6542373 C 64.329339,6.559322 64.061653,6.0610169 63.688926,5.5898305 62.408099,3.9966102 60.44281,3.9152542 59.785454,3.9152542 c -0.53876,0 -1.924628,0.061017 -3.185123,0.8474577 -1.341819,0.8440678 -2.334628,2.3559322 -2.707356,3.9084745 -0.166033,0.661017 -0.166033,1.1966102 -0.166033,1.4474576 0,2.067797 0.99281,3.928814 2.893719,4.715254 0.94876,0.393221 1.92124,0.41356 2.293967,0.41356 2.626033,0 3.92719,-1.220339 4.570992,-2.047458 0.182975,-0.244068 0.352397,-0.498305 0.521818,-0.766102 L 61.527107,11.20339 c -0.162644,0.267796 -0.318512,0.532203 -0.521818,0.752542 -0.494711,0.522034 -1.240165,0.827119 -2.002562,0.827119 -0.227024,0 -0.684463,0 -1.196115,-0.288136 -1.138513,-0.620339 -0.975868,-2.027118 -0.952149,-2.315254 z m -6.36686,-3.4338983 c 0.250744,-0.2067797 0.725124,-0.6 1.572232,-0.6 1.199504,0 1.755206,0.7864407 1.921239,1.220339 0.101653,0.3118644 0.101653,0.7423729 0.101653,0.8067797 h -4.564215 c 0.38967,-0.8474577 0.596364,-1.0949153 0.969091,-1.4271187 z"
               id="path59" />
          </g>
        </g>
      </g>
    </g>
  </g>
</svg>
