<svg id="svg" version="1.1" xmlns="http://www.w3.org/2000/svg" xmlns:xlink="http://www.w3.org/1999/xlink" width="400" height="400" viewBox="0, 0, 400,400"><g id="svgg"><path id="path0" d="M185.800 51.981 C 183.380 52.157,179.971 52.684,178.225 53.151 C 176.478 53.618,174.691 54.000,174.253 54.000 C 173.815 54.000,172.879 54.209,172.174 54.464 L 170.891 54.928 171.945 55.797 C 173.507 57.083,180.339 60.400,181.427 60.400 C 181.588 60.400,182.638 60.828,183.760 61.352 C 187.938 63.301,189.637 64.000,190.194 64.000 C 193.406 64.000,212.400 78.698,212.400 81.183 C 212.400 81.508,215.697 86.556,216.590 87.600 C 217.384 88.528,222.000 97.619,222.000 98.255 C 222.000 98.566,222.367 99.850,222.815 101.110 C 226.095 110.329,225.715 125.232,221.941 135.395 C 221.041 137.818,220.101 140.529,219.852 141.419 C 219.603 142.309,219.085 143.518,218.700 144.105 C 218.315 144.692,218.000 145.410,218.000 145.701 C 218.000 145.993,217.635 146.944,217.189 147.815 C 216.743 148.687,216.115 150.278,215.795 151.351 C 215.475 152.425,215.037 153.514,214.823 153.773 C 214.608 154.031,213.712 156.254,212.832 158.711 C 211.951 161.169,210.954 163.715,210.616 164.370 C 210.277 165.025,210.000 165.841,210.000 166.184 C 210.000 166.527,209.303 168.471,208.452 170.504 C 207.600 172.537,206.154 176.180,205.238 178.600 C 204.323 181.020,203.237 183.720,202.825 184.600 C 202.414 185.480,201.495 187.460,200.784 189.000 C 200.073 190.540,199.156 192.091,198.746 192.447 C 198.336 192.803,198.000 193.258,198.000 193.458 C 198.000 194.499,192.125 201.758,189.044 204.524 C 182.433 210.458,170.960 216.809,165.000 217.833 C 164.120 217.984,162.410 218.476,161.200 218.927 C 157.407 220.340,140.897 220.196,135.241 218.700 C 132.953 218.095,130.641 217.600,130.103 217.600 C 129.564 217.600,128.646 217.264,128.062 216.852 C 127.478 216.441,126.581 215.975,126.070 215.816 C 125.558 215.657,123.758 214.893,122.070 214.119 C 120.381 213.345,116.840 211.930,114.200 210.975 C 108.764 209.009,104.392 207.253,103.800 206.798 C 103.366 206.464,99.291 204.855,96.400 203.876 C 95.410 203.540,93.070 202.606,91.200 201.799 C 89.330 200.992,87.197 200.154,86.461 199.936 C 85.725 199.719,84.555 199.195,83.861 198.772 C 83.167 198.349,82.330 198.002,82.000 198.000 C 81.353 197.997,76.509 196.090,74.474 195.038 C 65.988 190.650,54.158 190.490,52.517 194.741 C 51.443 197.526,51.616 211.250,52.824 219.000 C 53.304 222.080,53.833 225.611,53.999 226.847 C 54.164 228.082,54.582 229.972,54.927 231.047 C 55.272 232.121,55.763 234.440,56.017 236.200 C 56.272 237.960,56.720 239.850,57.014 240.400 C 57.308 240.950,58.114 243.290,58.804 245.600 C 59.965 249.482,60.738 251.780,61.996 255.087 C 62.266 255.794,62.737 256.581,63.043 256.836 C 63.349 257.090,63.600 257.646,63.600 258.071 C 63.600 258.929,64.521 261.100,66.796 265.600 C 70.223 272.380,72.017 275.695,72.787 276.674 C 73.234 277.243,73.600 277.940,73.600 278.223 C 73.600 278.507,74.025 279.247,74.544 279.869 C 75.063 280.491,75.778 281.567,76.133 282.259 C 77.198 284.336,83.840 293.321,86.736 296.600 C 92.888 303.567,96.785 307.600,100.400 310.739 C 102.050 312.172,103.490 313.462,103.600 313.606 C 104.595 314.904,111.636 320.218,117.200 323.870 C 117.970 324.375,118.828 324.981,119.107 325.217 C 119.386 325.452,121.186 326.550,123.107 327.657 C 125.028 328.764,127.140 330.078,127.800 330.579 C 133.265 334.720,136.984 334.870,137.961 330.990 C 138.215 329.980,138.778 328.492,139.212 327.683 C 139.645 326.874,140.001 326.029,140.002 325.806 C 140.011 324.192,140.918 322.427,141.911 322.091 C 143.042 321.709,143.642 321.870,149.800 324.213 C 151.340 324.799,153.543 325.622,154.696 326.043 C 155.849 326.463,157.379 327.165,158.096 327.602 C 158.813 328.039,159.677 328.398,160.015 328.399 C 160.354 328.399,161.298 328.740,162.114 329.156 C 162.930 329.572,164.094 330.035,164.699 330.184 C 165.843 330.466,169.431 331.912,172.200 333.206 C 174.520 334.290,178.353 335.821,180.200 336.401 C 181.080 336.677,182.250 337.143,182.800 337.435 C 184.249 338.207,189.976 340.400,190.541 340.400 C 190.806 340.400,191.449 340.699,191.971 341.065 C 192.493 341.430,194.903 342.419,197.328 343.262 C 199.753 344.105,202.483 345.156,203.395 345.597 C 204.306 346.039,205.313 346.400,205.632 346.400 C 205.951 346.400,206.884 346.760,207.704 347.200 C 209.344 348.079,217.620 348.314,221.800 347.600 C 222.900 347.413,225.567 346.987,227.726 346.656 C 232.693 345.892,234.096 345.591,234.614 345.176 C 234.841 344.994,236.151 344.664,237.525 344.443 C 238.899 344.222,241.143 343.681,242.511 343.241 C 243.880 342.800,246.890 341.880,249.200 341.195 C 255.790 339.240,256.286 339.032,269.800 332.543 C 270.900 332.015,272.610 331.053,273.600 330.405 C 274.590 329.757,276.086 328.852,276.924 328.393 C 279.128 327.187,285.979 322.657,287.492 321.404 C 288.203 320.816,289.463 319.878,290.292 319.320 C 291.121 318.762,292.718 317.471,293.841 316.453 C 294.963 315.434,296.747 313.880,297.805 313.000 C 302.075 309.447,311.697 299.206,314.718 295.000 C 315.350 294.120,316.190 293.133,316.586 292.808 C 316.981 292.482,318.117 290.982,319.110 289.476 L 320.914 286.736 320.672 283.468 C 320.351 279.125,318.871 274.033,317.246 271.675 C 316.838 271.084,315.696 269.340,314.708 267.800 C 310.653 261.481,304.391 257.213,293.000 253.007 C 291.460 252.438,289.480 251.626,288.600 251.203 C 287.720 250.779,286.280 250.173,285.400 249.856 C 281.475 248.441,277.523 246.834,277.081 246.474 C 276.817 246.258,275.700 245.816,274.600 245.492 C 273.500 245.167,270.530 243.953,268.000 242.792 C 263.137 240.562,256.852 238.000,256.243 238.000 C 256.043 238.000,254.962 237.565,253.840 237.033 C 248.138 234.331,245.997 233.932,243.000 235.012 C 238.122 236.769,229.079 234.616,225.226 230.780 C 217.676 223.264,218.166 208.165,226.121 203.249 C 226.853 202.796,227.767 202.079,228.150 201.655 C 228.548 201.215,230.560 200.406,232.835 199.771 L 236.821 198.657 240.622 199.373 C 245.842 200.356,250.838 203.824,253.600 208.381 C 254.150 209.289,255.088 210.829,255.684 211.804 C 256.400 212.976,257.146 213.669,257.884 213.849 C 258.498 213.998,259.900 214.521,261.000 215.011 C 262.100 215.500,263.720 216.129,264.600 216.407 C 265.480 216.686,266.560 217.163,267.000 217.467 C 267.440 217.771,268.520 218.208,269.400 218.438 C 270.968 218.849,272.590 219.520,276.600 221.416 C 277.700 221.936,279.097 222.480,279.704 222.625 C 280.311 222.770,280.899 223.037,281.011 223.218 C 281.123 223.399,282.246 223.836,283.507 224.188 C 285.554 224.761,288.266 225.888,291.200 227.386 C 291.750 227.667,292.920 228.123,293.800 228.401 C 294.680 228.678,295.580 229.037,295.800 229.200 C 296.020 229.363,296.920 229.721,297.800 229.997 C 298.680 230.272,300.030 230.823,300.800 231.221 C 302.400 232.048,307.368 234.000,307.873 234.000 C 308.058 234.000,309.648 234.459,311.405 235.020 C 316.182 236.544,324.713 236.558,329.570 235.048 C 331.424 234.471,333.335 234.000,333.817 234.000 C 334.298 234.000,335.121 233.664,335.646 233.254 C 336.171 232.844,337.500 232.045,338.600 231.478 C 343.563 228.924,346.768 225.293,346.792 222.200 C 346.797 221.540,347.110 219.650,347.489 218.000 C 348.529 213.464,348.494 184.191,347.442 179.200 C 347.048 177.330,346.556 174.360,346.348 172.600 C 346.140 170.840,345.639 168.410,345.235 167.200 C 344.832 165.990,344.378 164.010,344.227 162.800 C 344.076 161.590,343.726 160.240,343.450 159.800 C 343.173 159.360,342.717 157.920,342.436 156.600 C 342.155 155.280,341.698 153.840,341.420 153.400 C 341.143 152.960,340.634 151.700,340.288 150.600 C 339.336 147.567,337.852 143.787,337.367 143.160 C 337.129 142.852,336.692 141.970,336.396 141.200 C 334.227 135.557,329.024 125.865,324.849 119.692 C 320.424 113.151,320.030 112.629,319.280 112.321 C 316.545 111.199,312.463 109.491,311.800 109.193 C 311.360 108.995,308.840 108.028,306.200 107.044 C 303.560 106.060,299.870 104.597,298.000 103.794 C 296.130 102.991,293.340 101.889,291.800 101.345 C 290.260 100.802,286.840 99.477,284.200 98.402 C 279.794 96.608,276.138 95.185,269.200 92.562 C 267.770 92.022,266.060 91.315,265.400 90.992 C 264.740 90.669,263.210 90.064,262.000 89.647 C 258.433 88.419,248.475 84.361,244.800 82.639 C 243.590 82.072,242.384 81.606,242.120 81.604 C 240.507 81.591,238.086 79.192,238.382 77.900 C 238.832 75.940,240.716 70.854,241.821 68.621 C 242.359 67.533,242.800 66.228,242.800 65.721 C 242.800 65.215,242.966 64.800,243.168 64.800 C 243.517 64.800,244.447 62.275,244.972 59.899 C 245.239 58.692,243.479 57.205,241.780 57.201 C 241.329 57.201,240.789 57.030,240.580 56.822 C 240.371 56.615,239.008 56.255,237.552 56.023 C 236.096 55.791,234.148 55.334,233.224 55.008 C 232.299 54.682,229.994 54.223,228.101 53.988 C 226.208 53.752,224.496 53.459,224.296 53.336 C 222.422 52.177,195.907 51.244,185.800 51.981 M132.800 67.770 C 130.750 68.609,127.664 70.162,125.800 71.293 C 117.621 76.256,110.065 81.243,107.621 83.294 C 100.848 88.976,95.993 93.393,95.779 94.067 C 95.641 94.500,94.977 95.191,94.302 95.601 C 93.022 96.379,86.732 103.340,84.983 105.913 C 83.997 107.364,82.383 109.572,78.867 114.280 C 75.280 119.083,67.452 133.595,64.874 140.220 C 64.365 141.529,63.614 143.320,63.207 144.200 C 62.800 145.080,62.247 146.520,61.979 147.400 C 61.711 148.280,61.180 149.630,60.800 150.400 C 60.419 151.170,59.978 152.514,59.820 153.386 C 59.661 154.259,59.252 155.512,58.911 156.172 C 58.078 157.783,56.400 164.482,56.400 166.197 C 56.400 167.945,57.206 168.400,60.301 168.400 C 61.596 168.400,63.542 168.656,64.627 168.968 C 65.712 169.280,67.680 169.749,69.000 170.010 C 72.346 170.672,79.262 173.001,82.600 174.590 C 84.140 175.323,86.300 176.236,87.400 176.618 C 90.748 177.782,94.145 179.047,95.200 179.523 C 95.750 179.772,97.820 180.601,99.800 181.366 C 101.780 182.132,104.930 183.411,106.800 184.209 C 108.670 185.007,110.920 185.921,111.800 186.241 C 112.680 186.560,114.163 187.176,115.096 187.611 C 116.028 188.045,116.928 188.406,117.096 188.413 C 117.263 188.419,118.300 188.868,119.400 189.409 C 120.500 189.950,121.670 190.395,122.000 190.399 C 122.330 190.402,123.078 190.654,123.661 190.959 C 124.245 191.263,125.415 191.735,126.261 192.007 C 127.108 192.279,128.071 192.736,128.402 193.024 C 133.107 197.109,155.287 198.808,160.557 195.486 C 161.021 195.194,162.210 194.719,163.200 194.432 C 165.583 193.739,169.547 191.099,173.000 187.904 C 175.644 185.458,176.143 184.726,179.388 178.542 C 179.718 177.914,180.987 174.970,182.208 172.000 C 183.429 169.030,184.872 165.697,185.414 164.594 C 185.956 163.491,186.400 162.226,186.400 161.783 C 186.400 161.340,186.677 160.582,187.016 160.098 C 187.356 159.614,187.881 158.449,188.184 157.509 C 188.789 155.632,190.453 151.501,191.612 149.000 C 192.019 148.120,192.478 146.860,192.630 146.200 C 192.783 145.540,193.132 144.730,193.406 144.400 C 193.681 144.070,194.037 143.350,194.197 142.800 C 194.358 142.250,194.730 141.260,195.025 140.600 C 195.319 139.940,195.910 138.500,196.337 137.400 C 196.765 136.300,197.853 133.564,198.757 131.321 C 199.661 129.077,200.400 126.867,200.400 126.411 C 200.400 125.954,200.760 124.556,201.200 123.304 C 203.143 117.776,201.972 109.298,198.162 101.302 C 197.193 99.267,196.400 97.494,196.400 97.360 C 196.400 94.415,179.824 82.000,175.891 82.000 C 175.404 82.000,170.472 80.050,165.800 78.010 C 164.700 77.530,160.380 75.866,156.200 74.312 C 152.020 72.758,148.400 71.331,148.156 71.141 C 147.913 70.951,146.743 70.449,145.556 70.025 C 144.370 69.601,142.076 68.702,140.459 68.027 C 137.018 66.592,135.783 66.550,132.800 67.770 " stroke="none" fill="#08a2d9" fill-rule="evenodd"></path><path id="path1" d="M0.000 200.000 L 0.000 400.000 200.000 400.000 L 400.000 400.000 400.000 200.000 L 400.000 0.000 200.000 0.000 L 0.000 0.000 0.000 200.000 M220.067 52.559 C 222.193 52.863,224.096 53.212,224.296 53.336 C 224.496 53.459,226.208 53.752,228.101 53.988 C 229.994 54.223,232.299 54.682,233.224 55.008 C 234.148 55.334,236.096 55.791,237.552 56.023 C 239.008 56.255,240.371 56.615,240.580 56.822 C 240.789 57.030,241.329 57.201,241.780 57.201 C 243.479 57.205,245.239 58.692,244.972 59.899 C 244.447 62.275,243.517 64.800,243.168 64.800 C 242.966 64.800,242.800 65.215,242.800 65.721 C 242.800 66.228,242.359 67.533,241.821 68.621 C 240.716 70.854,238.832 75.940,238.382 77.900 C 238.086 79.192,240.507 81.591,242.120 81.604 C 242.384 81.606,243.590 82.072,244.800 82.639 C 248.475 84.361,258.433 88.419,262.000 89.647 C 263.210 90.064,264.740 90.669,265.400 90.992 C 266.060 91.315,267.770 92.022,269.200 92.562 C 276.138 95.185,279.794 96.608,284.200 98.402 C 286.840 99.477,290.260 100.802,291.800 101.345 C 293.340 101.889,296.130 102.991,298.000 103.794 C 299.870 104.597,303.560 106.060,306.200 107.044 C 308.840 108.028,311.360 108.995,311.800 109.193 C 312.463 109.491,316.545 111.199,319.280 112.321 C 320.030 112.629,320.424 113.151,324.849 119.692 C 329.024 125.865,334.227 135.557,336.396 141.200 C 336.692 141.970,337.129 142.852,337.367 143.160 C 337.852 143.787,339.336 147.567,340.288 150.600 C 340.634 151.700,341.143 152.960,341.420 153.400 C 341.698 153.840,342.155 155.280,342.436 156.600 C 342.717 157.920,343.173 159.360,343.450 159.800 C 343.726 160.240,344.076 161.590,344.227 162.800 C 344.378 164.010,344.832 165.990,345.235 167.200 C 345.639 168.410,346.140 170.840,346.348 172.600 C 346.556 174.360,347.048 177.330,347.442 179.200 C 348.494 184.191,348.529 213.464,347.489 218.000 C 347.110 219.650,346.797 221.540,346.792 222.200 C 346.768 225.293,343.563 228.924,338.600 231.478 C 337.500 232.045,336.171 232.844,335.646 233.254 C 335.121 233.664,334.298 234.000,333.817 234.000 C 333.335 234.000,331.424 234.471,329.570 235.048 C 324.713 236.558,316.182 236.544,311.405 235.020 C 309.648 234.459,308.058 234.000,307.873 234.000 C 307.368 234.000,302.400 232.048,300.800 231.221 C 300.030 230.823,298.680 230.272,297.800 229.997 C 296.920 229.721,296.020 229.363,295.800 229.200 C 295.580 229.037,294.680 228.678,293.800 228.401 C 292.920 228.123,291.750 227.667,291.200 227.386 C 288.266 225.888,285.554 224.761,283.507 224.188 C 282.246 223.836,281.123 223.399,281.011 223.218 C 280.899 223.037,280.311 222.770,279.704 222.625 C 279.097 222.480,277.700 221.936,276.600 221.416 C 272.590 219.520,270.968 218.849,269.400 218.438 C 268.520 218.208,267.440 217.771,267.000 217.467 C 266.560 217.163,265.480 216.686,264.600 216.407 C 263.720 216.129,262.100 215.500,261.000 215.011 C 259.900 214.521,258.498 213.998,257.884 213.849 C 257.146 213.669,256.400 212.976,255.684 211.804 C 255.088 210.829,254.150 209.289,253.600 208.381 C 250.838 203.824,245.842 200.356,240.622 199.373 L 236.821 198.657 232.835 199.771 C 230.560 200.406,228.548 201.215,228.150 201.655 C 227.767 202.079,226.853 202.796,226.121 203.249 C 218.166 208.165,217.676 223.264,225.226 230.780 C 229.079 234.616,238.122 236.769,243.000 235.012 C 245.997 233.932,248.138 234.331,253.840 237.033 C 254.962 237.565,256.043 238.000,256.243 238.000 C 256.852 238.000,263.137 240.562,268.000 242.792 C 270.530 243.953,273.500 245.167,274.600 245.492 C 275.700 245.816,276.817 246.258,277.081 246.474 C 277.523 246.834,281.475 248.441,285.400 249.856 C 286.280 250.173,287.720 250.779,288.600 251.203 C 289.480 251.626,291.460 252.438,293.000 253.007 C 299.900 255.555,304.706 257.947,307.338 260.144 C 311.723 263.805,312.987 265.118,314.708 267.800 C 315.696 269.340,316.838 271.084,317.246 271.675 C 318.871 274.033,320.351 279.125,320.672 283.468 L 320.914 286.736 319.110 289.476 C 318.117 290.982,316.981 292.482,316.586 292.808 C 316.190 293.133,315.350 294.120,314.718 295.000 C 311.697 299.206,302.075 309.447,297.805 313.000 C 296.747 313.880,294.963 315.434,293.841 316.453 C 292.718 317.471,291.121 318.762,290.292 319.320 C 289.463 319.878,288.203 320.816,287.492 321.404 C 285.979 322.657,279.128 327.187,276.924 328.393 C 276.086 328.852,274.590 329.757,273.600 330.405 C 272.610 331.053,270.900 332.015,269.800 332.543 C 256.286 339.032,255.790 339.240,249.200 341.195 C 246.890 341.880,243.880 342.800,242.511 343.241 C 241.143 343.681,238.899 344.222,237.525 344.443 C 236.151 344.664,234.841 344.994,234.614 345.176 C 234.096 345.591,232.693 345.892,227.726 346.656 C 225.567 346.987,222.900 347.413,221.800 347.600 C 217.620 348.314,209.344 348.079,207.704 347.200 C 206.884 346.760,205.951 346.400,205.632 346.400 C 205.313 346.400,204.306 346.039,203.395 345.597 C 202.483 345.156,199.753 344.105,197.328 343.262 C 194.903 342.419,192.493 341.430,191.971 341.065 C 191.449 340.699,190.806 340.400,190.541 340.400 C 189.976 340.400,184.249 338.207,182.800 337.435 C 182.250 337.143,181.080 336.677,180.200 336.401 C 178.353 335.821,174.520 334.290,172.200 333.206 C 169.431 331.912,165.843 330.466,164.699 330.184 C 164.094 330.035,162.930 329.572,162.114 329.156 C 161.298 328.740,160.354 328.399,160.015 328.399 C 159.677 328.398,158.813 328.039,158.096 327.602 C 157.379 327.165,155.849 326.463,154.696 326.043 C 153.543 325.622,151.340 324.799,149.800 324.213 C 143.642 321.870,143.042 321.709,141.911 322.091 C 140.918 322.427,140.011 324.192,140.002 325.806 C 140.001 326.029,139.645 326.874,139.212 327.683 C 138.778 328.492,138.215 329.980,137.961 330.990 C 136.984 334.870,133.265 334.720,127.800 330.579 C 127.140 330.078,125.028 328.764,123.107 327.657 C 121.186 326.550,119.386 325.452,119.107 325.217 C 118.828 324.981,117.970 324.375,117.200 323.870 C 111.636 320.218,104.595 314.904,103.600 313.606 C 103.490 313.462,102.050 312.172,100.400 310.739 C 96.785 307.600,92.888 303.567,86.736 296.600 C 83.840 293.321,77.198 284.336,76.133 282.259 C 75.778 281.567,75.063 280.491,74.544 279.869 C 74.025 279.247,73.600 278.507,73.600 278.223 C 73.600 277.940,73.234 277.243,72.787 276.674 C 72.017 275.695,70.223 272.380,66.796 265.600 C 64.521 261.100,63.600 258.929,63.600 258.071 C 63.600 257.646,63.349 257.090,63.043 256.836 C 62.737 256.581,62.266 255.794,61.996 255.087 C 60.738 251.780,59.965 249.482,58.804 245.600 C 58.114 243.290,57.308 240.950,57.014 240.400 C 56.720 239.850,56.272 237.960,56.017 236.200 C 55.763 234.440,55.272 232.121,54.927 231.047 C 54.582 229.972,54.164 228.082,53.999 226.847 C 53.833 225.611,53.304 222.080,52.824 219.000 C 51.616 211.250,51.443 197.526,52.517 194.741 C 54.158 190.490,65.988 190.650,74.474 195.038 C 76.509 196.090,81.353 197.997,82.000 198.000 C 82.330 198.002,83.167 198.349,83.861 198.772 C 84.555 199.195,85.725 199.719,86.461 199.936 C 87.197 200.154,89.330 200.992,91.200 201.799 C 93.070 202.606,95.410 203.540,96.400 203.876 C 99.291 204.855,103.366 206.464,103.800 206.798 C 104.392 207.253,108.764 209.009,114.200 210.975 C 116.840 211.930,120.381 213.345,122.070 214.119 C 123.758 214.893,125.558 215.657,126.070 215.816 C 126.581 215.975,127.478 216.441,128.062 216.852 C 128.646 217.264,129.564 217.600,130.103 217.600 C 130.641 217.600,132.953 218.095,135.241 218.700 C 140.897 220.196,157.407 220.340,161.200 218.927 C 162.410 218.476,164.120 217.984,165.000 217.833 C 170.960 216.809,182.433 210.458,189.044 204.524 C 192.125 201.758,198.000 194.499,198.000 193.458 C 198.000 193.258,198.336 192.803,198.746 192.447 C 199.156 192.091,200.073 190.540,200.784 189.000 C 201.495 187.460,202.414 185.480,202.825 184.600 C 203.237 183.720,204.323 181.020,205.238 178.600 C 206.154 176.180,207.600 172.537,208.452 170.504 C 209.303 168.471,210.000 166.527,210.000 166.184 C 210.000 165.841,210.277 165.025,210.616 164.370 C 210.954 163.715,211.951 161.169,212.832 158.711 C 213.712 156.254,214.608 154.031,214.823 153.773 C 215.037 153.514,215.475 152.425,215.795 151.351 C 216.115 150.278,216.743 148.687,217.189 147.815 C 217.635 146.944,218.000 145.993,218.000 145.701 C 218.000 145.410,218.315 144.692,218.700 144.105 C 219.085 143.518,219.603 142.309,219.852 141.419 C 220.101 140.529,221.041 137.818,221.941 135.395 C 225.715 125.232,226.095 110.329,222.815 101.110 C 222.367 99.850,222.000 98.566,222.000 98.255 C 222.000 97.619,217.384 88.528,216.590 87.600 C 215.697 86.556,212.400 81.508,212.400 81.183 C 212.400 78.698,193.406 64.000,190.194 64.000 C 189.637 64.000,187.938 63.301,183.760 61.352 C 182.638 60.828,181.588 60.400,181.427 60.400 C 180.339 60.400,173.507 57.083,171.945 55.797 L 170.891 54.928 172.174 54.464 C 172.879 54.209,173.815 54.000,174.253 54.000 C 174.691 54.000,176.478 53.618,178.225 53.151 C 184.113 51.576,210.572 51.202,220.067 52.559 M140.459 68.027 C 142.076 68.702,144.370 69.601,145.556 70.025 C 146.743 70.449,147.913 70.951,148.156 71.141 C 148.400 71.331,152.020 72.758,156.200 74.312 C 160.380 75.866,164.700 77.530,165.800 78.010 C 170.472 80.050,175.404 82.000,175.891 82.000 C 179.824 82.000,196.400 94.415,196.400 97.360 C 196.400 97.494,197.193 99.267,198.162 101.302 C 201.972 109.298,203.143 117.776,201.200 123.304 C 200.760 124.556,200.400 125.954,200.400 126.411 C 200.400 126.867,199.661 129.077,198.757 131.321 C 197.853 133.564,196.765 136.300,196.337 137.400 C 195.910 138.500,195.319 139.940,195.025 140.600 C 194.730 141.260,194.358 142.250,194.197 142.800 C 194.037 143.350,193.681 144.070,193.406 144.400 C 193.132 144.730,192.783 145.540,192.630 146.200 C 192.478 146.860,192.019 148.120,191.612 149.000 C 190.453 151.501,188.789 155.632,188.184 157.509 C 187.881 158.449,187.356 159.614,187.016 160.098 C 186.677 160.582,186.400 161.340,186.400 161.783 C 186.400 162.226,185.956 163.491,185.414 164.594 C 184.872 165.697,183.429 169.030,182.208 172.000 C 180.987 174.970,179.718 177.914,179.388 178.542 C 176.143 184.726,175.644 185.458,173.000 187.904 C 169.547 191.099,165.583 193.739,163.200 194.432 C 162.210 194.719,161.021 195.194,160.557 195.486 C 155.287 198.808,133.107 197.109,128.402 193.024 C 128.071 192.736,127.108 192.279,126.261 192.007 C 125.415 191.735,124.245 191.263,123.661 190.959 C 123.078 190.654,122.330 190.402,122.000 190.399 C 121.670 190.395,120.500 189.950,119.400 189.409 C 118.300 188.868,117.263 188.419,117.096 188.413 C 116.928 188.406,116.028 188.045,115.096 187.611 C 114.163 187.176,112.680 186.560,111.800 186.241 C 110.920 185.921,108.670 185.007,106.800 184.209 C 104.930 183.411,101.780 182.132,99.800 181.366 C 97.820 180.601,95.750 179.772,95.200 179.523 C 94.145 179.047,90.748 177.782,87.400 176.618 C 86.300 176.236,84.140 175.323,82.600 174.590 C 79.262 173.001,72.346 170.672,69.000 170.010 C 67.680 169.749,65.712 169.280,64.627 168.968 C 63.542 168.656,61.596 168.400,60.301 168.400 C 57.206 168.400,56.400 167.945,56.400 166.197 C 56.400 164.482,58.078 157.783,58.911 156.172 C 59.252 155.512,59.661 154.259,59.820 153.386 C 59.978 152.514,60.419 151.170,60.800 150.400 C 61.180 149.630,61.711 148.280,61.979 147.400 C 62.247 146.520,62.800 145.080,63.207 144.200 C 63.614 143.320,64.365 141.529,64.874 140.220 C 67.452 133.595,75.280 119.083,78.867 114.280 C 82.383 109.572,83.997 107.364,84.983 105.913 C 86.732 103.340,93.022 96.379,94.302 95.601 C 94.977 95.191,95.641 94.500,95.779 94.067 C 95.993 93.393,100.848 88.976,107.621 83.294 C 110.065 81.243,117.621 76.256,125.800 71.293 C 133.166 66.823,136.038 66.183,140.459 68.027 " stroke="none" fill="#ffffff" fill-rule="evenodd"></path></g></svg>