<svg id="svg" version="1.1" xmlns="http://www.w3.org/2000/svg" xmlns:xlink="http://www.w3.org/1999/xlink" width="400" height="218" viewBox="0, 0, 400,218"><g id="svgg"><path id="path0" d="M0.000 82.443 L 0.000 164.885 199.673 164.885 L 399.346 164.885 399.346 191.494 C 399.346 215.001,399.384 218.103,399.673 218.103 C 399.963 218.103,400.000 207.500,400.000 123.991 L 400.000 29.880 373.963 29.880 C 352.368 29.880,347.885 29.930,347.682 30.175 C 347.504 30.390,347.423 46.942,347.383 91.952 L 347.328 153.435 325.927 153.491 C 308.136 153.537,304.485 153.496,304.281 153.251 C 304.101 153.034,304.021 136.614,303.981 91.472 L 303.926 29.989 278.033 29.934 C 252.474 29.879,252.138 29.873,251.910 29.446 C 251.751 29.151,251.697 24.424,251.739 14.507 L 251.799 -0.000 242.475 -0.000 L 233.152 0.000 233.152 13.631 L 233.152 27.263 219.902 27.266 C 212.615 27.267,206.431 27.328,206.161 27.400 L 205.671 27.532 205.671 76.785 C 205.671 115.947,205.727 126.074,205.943 126.214 C 206.093 126.311,212.252 126.439,219.629 126.499 L 233.043 126.609 233.043 140.022 L 233.043 153.435 183.969 153.435 L 134.896 153.435 134.896 140.022 L 134.896 126.609 148.310 126.499 C 155.687 126.439,161.846 126.311,161.996 126.214 C 162.528 125.870,162.379 27.774,161.846 27.489 C 161.569 27.340,156.870 27.263,148.106 27.263 L 134.787 27.263 134.787 13.631 L 134.787 0.000 120.774 -0.000 L 106.761 -0.000 106.821 13.631 L 106.880 27.263 93.816 27.263 C 86.631 27.263,80.446 27.324,80.071 27.399 L 79.389 27.535 79.389 76.786 C 79.389 115.948,79.445 126.074,79.662 126.214 C 79.812 126.311,85.971 126.439,93.348 126.499 L 106.761 126.609 106.761 140.022 L 106.761 153.435 57.797 153.435 L 8.833 153.435 8.777 139.967 L 8.721 126.499 22.241 126.499 L 35.761 126.499 35.879 126.009 C 35.944 125.739,35.970 103.435,35.937 76.445 L 35.878 27.372 22.301 27.316 L 8.724 27.260 8.724 13.630 L 8.724 0.000 4.362 0.000 L 0.000 0.000 0.000 82.443 M249.291 172.871 C 245.145 173.594,243.621 175.700,243.621 180.706 C 243.621 181.864,243.272 182.116,241.672 182.116 L 240.567 182.116 240.567 184.406 L 240.567 186.696 241.749 186.696 C 243.798 186.696,243.621 185.869,243.621 195.425 C 243.621 200.081,243.680 204.045,243.753 204.235 C 243.867 204.533,249.101 204.806,249.337 204.526 C 249.362 204.496,249.436 200.496,249.501 195.638 L 249.618 186.805 251.690 186.696 L 253.762 186.587 253.762 184.406 L 253.762 182.225 252.563 182.172 C 251.903 182.142,250.946 182.063,250.436 181.995 L 249.509 181.871 249.509 180.499 C 249.509 179.431,249.620 178.962,250.008 178.386 L 250.507 177.644 252.514 177.582 C 254.388 177.523,254.528 177.487,254.617 177.037 C 255.324 173.451,255.319 173.404,254.239 173.395 C 254.021 173.393,253.677 173.304,253.475 173.196 C 253.041 172.965,250.074 172.735,249.291 172.871 M17.067 173.536 C 16.170 173.897,16.932 196.572,17.926 199.128 C 20.759 206.409,35.125 207.489,39.306 200.735 C 40.832 198.270,41.045 196.027,40.960 183.315 L 40.894 173.501 38.386 173.437 C 37.007 173.402,35.665 173.427,35.404 173.492 L 34.931 173.609 34.856 184.896 C 34.774 197.244,34.790 197.094,33.416 198.317 C 31.250 200.245,26.157 200.039,24.577 197.959 C 23.157 196.091,23.235 196.811,23.160 184.848 C 23.115 177.574,23.016 173.857,22.861 173.671 C 22.631 173.394,17.703 173.279,17.067 173.536 M70.709 173.653 C 70.351 174.011,70.351 178.225,70.709 178.582 C 70.881 178.754,71.799 178.844,73.391 178.844 C 76.405 178.844,76.336 178.908,76.336 176.118 C 76.336 173.328,76.405 173.391,73.391 173.391 C 71.799 173.391,70.881 173.481,70.709 173.653 M160.620 173.671 C 160.559 173.833,160.536 175.038,160.570 176.350 L 160.632 178.735 163.359 178.735 L 166.085 178.735 166.085 176.118 L 166.085 173.501 163.409 173.439 C 161.325 173.392,160.708 173.443,160.620 173.671 M266.085 188.986 L 266.085 204.580 272.901 204.580 C 279.539 204.580,282.208 204.369,283.475 203.745 C 283.687 203.640,284.344 203.319,284.934 203.031 C 286.039 202.493,288.428 200.290,288.788 199.476 C 288.900 199.225,289.168 198.724,289.383 198.364 C 289.820 197.636,290.528 195.667,290.953 194.002 C 291.341 192.484,291.484 187.520,291.190 185.813 C 290.630 182.564,290.523 182.063,290.334 181.823 C 290.226 181.684,290.071 181.298,289.992 180.965 C 289.639 179.490,287.768 176.921,286.166 175.711 C 283.403 173.625,282.133 173.397,273.228 173.394 L 266.085 173.391 266.085 188.986 M295.443 173.736 C 295.271 174.185,295.276 203.446,295.448 204.089 C 295.576 204.566,295.660 204.580,298.390 204.580 L 301.200 204.580 301.210 199.182 C 301.224 192.038,301.406 189.863,302.102 188.510 C 303.489 185.814,307.206 185.219,308.863 187.427 C 309.378 188.113,309.379 188.121,309.487 196.118 C 309.560 201.434,309.676 204.202,309.833 204.359 C 309.983 204.509,311.015 204.572,312.668 204.533 L 315.267 204.471 315.267 195.856 C 315.267 189.082,315.201 187.014,314.959 186.180 C 314.636 185.066,313.207 183.055,312.580 182.832 C 312.379 182.761,312.085 182.602,311.927 182.480 C 309.704 180.754,305.435 181.269,302.546 183.611 C 301.232 184.677,301.207 184.582,301.203 178.571 L 301.200 173.391 298.388 173.391 C 296.025 173.391,295.554 173.447,295.443 173.736 M342.694 173.533 C 342.377 173.664,342.291 203.819,342.605 204.315 C 342.737 204.523,343.449 204.579,345.383 204.533 L 347.983 204.471 348.092 201.080 C 348.211 197.366,348.200 197.402,349.794 195.692 C 350.796 194.618,351.017 194.566,351.406 195.311 C 352.167 196.768,353.637 199.492,353.986 200.091 C 354.201 200.461,354.793 201.549,355.300 202.508 C 355.808 203.468,356.332 204.325,356.465 204.413 C 356.706 204.573,362.486 204.654,362.486 204.498 C 362.486 204.361,361.841 202.968,361.615 202.617 C 361.321 202.160,360.223 200.230,359.345 198.624 C 358.939 197.882,358.193 196.538,357.688 195.638 C 357.183 194.738,356.425 193.364,356.004 192.585 C 355.583 191.805,355.152 191.074,355.046 190.960 C 354.505 190.379,354.816 189.975,360.560 183.785 C 362.140 182.082,362.187 182.116,358.249 182.116 L 354.910 182.116 351.922 185.605 C 350.278 187.525,348.842 189.095,348.731 189.095 C 348.619 189.095,348.454 189.095,348.364 189.095 C 348.274 189.095,348.152 185.586,348.092 181.298 L 347.983 173.501 345.474 173.460 C 344.095 173.437,342.844 173.470,342.694 173.533 M176.990 174.706 C 176.246 175.172,175.896 175.382,174.118 176.433 C 172.361 177.471,172.316 177.557,172.308 179.870 L 172.301 181.878 171.592 181.992 C 171.202 182.055,170.638 182.133,170.338 182.166 C 169.797 182.224,169.793 182.240,169.793 184.406 L 169.793 186.587 170.556 186.646 C 170.976 186.678,171.540 186.753,171.810 186.813 L 172.301 186.922 172.306 191.880 C 172.316 201.273,172.603 202.832,174.567 204.177 L 175.633 204.907 178.274 204.897 C 182.591 204.880,183.058 204.421,182.256 200.981 L 182.001 199.891 180.530 199.968 C 178.144 200.093,178.206 200.277,178.197 192.970 L 178.190 186.922 178.680 186.810 C 178.950 186.749,179.809 186.673,180.589 186.642 L 182.007 186.587 182.007 184.406 L 182.007 182.225 181.025 182.171 C 180.485 182.141,179.626 182.061,179.117 181.994 L 178.190 181.871 178.190 178.412 C 178.190 174.020,178.172 173.965,176.990 174.706 M280.589 179.232 C 283.962 180.393,285.463 184.740,284.838 191.537 C 284.248 197.945,282.590 199.346,275.589 199.346 L 272.246 199.346 272.110 198.664 C 271.831 197.267,271.955 179.169,272.246 178.864 C 272.652 178.440,279.113 178.725,280.589 179.232 M55.834 181.871 C 54.280 182.371,53.754 182.681,52.563 183.797 C 51.395 184.892,51.089 184.797,50.995 183.311 L 50.927 182.225 48.310 182.225 L 45.692 182.225 45.636 193.105 C 45.595 200.958,45.648 204.068,45.826 204.283 C 46.213 204.749,51.159 204.707,51.340 204.235 C 51.413 204.045,51.476 201.076,51.480 197.638 C 51.491 188.298,52.153 186.546,55.834 186.110 C 59.237 185.707,59.769 187.154,59.917 197.219 L 60.025 204.580 62.724 204.580 C 66.049 204.580,65.709 205.688,65.609 195.162 C 65.520 185.840,65.459 185.454,63.814 183.678 C 62.039 181.761,58.597 180.982,55.834 181.871 M109.487 181.820 C 102.772 184.035,99.882 192.813,103.487 200.044 C 106.219 205.524,115.756 206.874,119.878 202.364 C 121.988 200.056,122.395 198.347,120.883 198.141 C 120.314 198.063,119.209 197.875,118.430 197.723 C 116.865 197.418,116.181 197.547,116.060 198.171 C 115.295 202.106,108.940 200.812,108.196 196.570 C 107.897 194.867,107.387 194.984,115.147 194.984 C 120.999 194.984,122.126 194.933,122.351 194.662 C 122.640 194.314,122.099 189.043,121.726 188.565 C 121.625 188.437,121.478 188.059,121.398 187.726 C 121.055 186.289,118.095 182.770,117.230 182.770 C 117.098 182.770,116.874 182.654,116.732 182.511 C 115.855 181.635,111.350 181.205,109.487 181.820 M134.353 181.857 C 133.538 182.250,132.611 183.099,132.032 183.983 C 131.583 184.668,131.455 184.538,131.307 183.251 L 131.189 182.225 128.571 182.225 L 125.954 182.225 125.894 192.912 C 125.819 206.090,125.456 204.608,128.741 204.532 L 131.407 204.471 131.457 201.854 C 131.632 192.700,132.003 189.482,133.043 188.103 C 133.914 186.948,135.670 186.570,136.990 187.252 C 138.097 187.825,138.380 187.551,139.169 185.143 C 140.013 182.566,139.965 182.394,138.254 181.857 C 136.758 181.388,135.325 181.388,134.353 181.857 M146.437 181.896 C 142.053 183.166,139.952 186.669,141.258 190.528 C 141.664 191.727,143.734 193.962,144.631 194.170 C 144.915 194.236,145.834 194.529,146.674 194.820 C 148.772 195.550,150.572 196.074,150.976 196.074 C 153.486 196.074,155.638 198.398,154.253 199.613 C 151.749 201.808,147.176 200.776,146.065 197.764 C 145.873 197.243,143.051 197.454,140.622 198.172 C 139.497 198.504,141.835 202.224,144.018 203.575 C 147.002 205.423,154.520 205.545,156.615 203.780 C 156.804 203.620,157.056 203.490,157.174 203.490 C 157.496 203.490,159.433 201.491,159.433 201.159 C 159.433 201.002,159.528 200.872,159.644 200.872 C 159.760 200.872,160.002 200.603,160.181 200.273 C 160.488 199.706,160.507 199.795,160.518 201.854 C 160.534 204.744,160.381 204.607,163.485 204.533 L 166.085 204.471 166.085 193.348 L 166.085 182.225 163.359 182.225 L 160.632 182.225 160.519 188.768 C 160.456 192.366,160.382 195.188,160.355 195.038 C 160.105 193.665,156.816 191.618,153.435 190.731 C 152.835 190.574,151.412 190.200,150.273 189.901 C 147.826 189.259,146.814 188.780,146.582 188.152 C 145.593 185.479,152.593 184.922,153.912 187.568 C 154.287 188.320,154.712 188.404,156.585 188.094 C 159.819 187.559,159.987 187.398,159.088 185.692 C 157.191 182.093,151.573 180.407,146.437 181.896 M225.409 181.877 C 218.873 183.726,215.802 190.253,217.906 197.819 C 220.108 205.736,231.967 207.677,237.213 200.978 C 244.302 191.925,236.204 178.821,225.409 181.877 M325.191 181.890 C 322.635 182.591,321.206 183.732,320.147 185.917 C 319.264 187.739,319.303 187.948,320.556 188.118 C 321.126 188.195,321.887 188.343,322.246 188.446 C 322.855 188.621,323.915 188.736,324.431 188.682 C 324.552 188.669,324.889 188.275,325.179 187.805 C 326.705 185.336,331.371 185.481,332.117 188.020 C 332.663 189.882,332.241 190.167,327.481 191.158 C 322.285 192.239,320.119 193.511,319.258 195.989 C 316.807 203.044,324.773 207.881,331.350 203.332 C 332.695 202.402,332.943 202.429,333.315 203.544 L 333.623 204.471 336.414 204.532 L 339.204 204.594 339.057 204.096 C 338.977 203.823,338.752 203.108,338.558 202.508 C 338.273 201.631,338.180 199.991,338.077 194.111 C 337.965 187.670,337.900 186.665,337.531 185.624 C 337.132 184.498,335.697 182.770,335.160 182.770 C 335.034 182.770,334.776 182.634,334.586 182.467 C 333.494 181.507,327.850 181.160,325.191 181.890 M370.774 181.834 C 368.784 182.303,365.976 184.332,365.976 185.301 C 365.976 185.389,365.833 185.619,365.659 185.812 C 365.485 186.004,365.279 186.562,365.200 187.050 L 365.058 187.938 367.317 188.374 C 369.795 188.851,370.146 188.791,370.660 187.797 C 371.917 185.366,376.727 185.494,377.611 187.983 C 378.264 189.819,377.985 190.009,372.955 191.151 C 367.518 192.386,366.084 193.181,364.956 195.583 C 362.428 200.962,366.814 205.950,373.134 204.886 C 374.508 204.654,376.946 203.588,377.317 203.057 C 377.521 202.765,378.381 202.397,378.474 202.562 C 378.524 202.652,378.636 203.020,378.722 203.379 C 378.999 204.531,379.132 204.580,381.949 204.580 L 384.564 204.580 384.446 203.980 C 384.381 203.650,384.161 202.792,383.957 202.072 C 383.651 200.992,383.574 199.547,383.518 193.802 C 383.443 186.058,383.292 185.136,381.859 183.671 C 379.960 181.728,374.831 180.878,370.774 181.834 M70.599 182.255 C 70.414 182.440,70.400 203.401,70.585 204.089 C 70.775 204.800,75.736 204.858,76.112 204.154 C 76.264 203.871,76.321 200.141,76.283 192.977 L 76.227 182.225 73.489 182.164 C 71.983 182.131,70.682 182.171,70.599 182.255 M79.527 182.288 C 79.464 182.389,79.839 183.545,80.361 184.857 C 80.882 186.168,81.768 188.419,82.329 189.858 C 83.465 192.774,84.121 194.439,84.391 195.093 C 84.677 195.784,85.191 197.112,86.036 199.346 C 86.468 200.485,86.910 201.614,87.019 201.854 C 87.128 202.094,87.431 202.805,87.692 203.435 L 88.167 204.580 90.722 204.580 L 93.278 204.580 93.552 203.980 C 93.703 203.650,94.063 202.743,94.353 201.963 C 94.642 201.183,94.970 200.349,95.081 200.109 C 95.192 199.869,95.634 198.740,96.064 197.601 C 96.493 196.461,96.941 195.358,97.059 195.150 C 97.177 194.942,97.277 194.647,97.281 194.496 C 97.285 194.344,97.478 193.828,97.710 193.348 C 97.942 192.868,98.135 192.323,98.139 192.137 C 98.143 191.951,98.228 191.706,98.328 191.592 C 98.428 191.478,98.687 190.894,98.903 190.294 C 99.267 189.285,100.329 186.472,101.126 184.406 C 101.311 183.926,101.551 183.363,101.658 183.155 C 102.165 182.173,102.019 182.116,99.024 182.116 L 96.194 182.116 95.870 182.744 C 95.536 183.389,95.248 184.152,94.337 186.805 C 94.048 187.644,93.604 188.871,93.350 189.531 C 93.096 190.191,92.476 191.981,91.973 193.510 C 90.946 196.629,90.508 197.056,90.072 195.365 C 89.940 194.856,89.593 193.798,89.300 193.016 C 89.007 192.234,88.768 191.513,88.768 191.413 C 88.768 191.314,88.632 190.924,88.467 190.546 C 88.036 189.561,86.805 186.161,86.805 185.954 C 86.805 185.859,86.672 185.471,86.510 185.093 C 86.348 184.715,86.026 183.915,85.795 183.315 L 85.373 182.225 82.507 182.164 C 80.931 182.130,79.590 182.186,79.527 182.288 M185.446 182.709 C 185.506 183.042,185.771 183.855,186.033 184.515 C 186.296 185.174,186.594 185.960,186.696 186.260 C 186.798 186.559,187.091 187.345,187.348 188.004 C 187.605 188.664,188.052 189.915,188.343 190.784 C 188.634 191.653,188.958 192.536,189.063 192.747 C 189.168 192.957,189.373 193.473,189.517 193.893 C 189.661 194.313,190.074 195.442,190.434 196.401 C 190.794 197.361,191.183 198.460,191.299 198.844 C 191.414 199.228,191.652 199.817,191.827 200.153 C 192.002 200.488,192.146 200.919,192.147 201.109 C 192.148 201.299,192.209 201.514,192.282 201.588 C 192.732 202.037,193.406 204.650,193.231 205.262 C 192.507 207.785,191.182 208.826,188.659 208.854 L 186.805 208.874 186.822 210.881 C 186.846 213.648,186.829 213.635,190.357 213.619 C 194.911 213.598,197.504 211.636,198.699 207.306 C 198.798 206.947,199.047 206.210,199.251 205.671 C 199.994 203.709,201.122 200.530,201.301 199.891 C 201.402 199.531,201.740 198.605,202.051 197.832 C 202.362 197.060,202.617 196.338,202.617 196.229 C 202.617 196.120,202.753 195.722,202.920 195.344 C 203.086 194.966,203.439 194.019,203.704 193.239 C 203.970 192.459,204.268 191.625,204.368 191.385 C 204.467 191.145,204.755 190.311,205.007 189.531 C 205.259 188.751,205.559 187.917,205.673 187.677 C 206.006 186.975,207.226 183.370,207.351 182.715 L 207.465 182.116 204.500 182.116 L 201.535 182.116 201.396 182.715 C 201.319 183.045,200.989 184.149,200.662 185.169 C 200.334 186.189,199.744 188.053,199.350 189.313 C 198.956 190.573,198.507 191.947,198.352 192.366 C 198.196 192.786,197.844 193.887,197.569 194.812 C 197.029 196.630,196.395 197.736,196.220 197.163 C 195.888 196.071,192.520 185.637,192.384 185.278 C 192.293 185.038,192.024 184.253,191.786 183.533 L 191.353 182.225 188.345 182.164 L 185.336 182.103 185.446 182.709 M114.132 186.536 C 115.519 187.311,116.678 189.142,116.683 190.567 L 116.685 191.276 112.432 191.276 L 108.179 191.276 108.184 190.458 C 108.201 187.444,111.666 185.160,114.132 186.536 M229.750 186.589 C 231.722 187.187,232.858 188.389,233.459 190.513 C 235.015 196.015,231.987 200.948,227.563 200.118 C 222.006 199.076,221.688 188.099,227.171 186.606 C 228.598 186.217,228.528 186.218,229.750 186.589 M332.351 195.093 C 332.592 198.036,331.114 200.277,328.626 200.740 C 324.341 201.537,323.088 196.374,327.263 195.123 C 327.983 194.907,328.964 194.601,329.444 194.442 C 331.225 193.853,332.268 194.086,332.351 195.093 M377.930 195.267 C 378.136 198.496,376.323 200.687,373.403 200.738 C 369.559 200.805,368.816 196.528,372.452 195.258 C 375.007 194.366,375.921 194.144,376.881 194.182 L 377.863 194.220 377.930 195.267 " stroke="none" fill="#fbfbfb" fill-rule="evenodd"></path><path id="path1" d="M8.724 13.630 L 8.724 27.260 22.301 27.316 L 35.878 27.372 35.937 76.445 C 35.970 103.435,35.944 125.739,35.879 126.009 L 35.761 126.499 22.241 126.499 L 8.721 126.499 8.777 139.967 L 8.833 153.435 57.797 153.435 L 106.761 153.435 106.761 140.022 L 106.761 126.609 93.348 126.499 C 85.971 126.439,79.812 126.311,79.662 126.214 C 79.445 126.074,79.389 115.948,79.389 76.786 L 79.389 27.535 80.071 27.399 C 80.446 27.324,86.629 27.263,93.811 27.263 L 106.870 27.263 106.870 13.976 C 106.870 6.669,106.811 0.535,106.738 0.345 C 106.618 0.032,102.091 0.000,57.665 0.000 L 8.724 0.000 8.724 13.630 M134.787 13.631 L 134.787 27.263 148.106 27.263 C 156.870 27.263,161.569 27.340,161.846 27.489 C 162.379 27.774,162.528 125.870,161.996 126.214 C 161.846 126.311,155.687 126.439,148.310 126.499 L 134.896 126.609 134.896 140.022 L 134.896 153.435 183.969 153.435 L 233.043 153.435 233.043 140.022 L 233.043 126.609 219.629 126.499 C 212.252 126.439,206.093 126.311,205.943 126.214 C 205.727 126.074,205.671 115.947,205.671 76.785 L 205.671 27.532 206.161 27.400 C 206.431 27.328,212.615 27.267,219.902 27.266 L 233.152 27.263 233.152 13.631 L 233.152 0.000 183.969 0.000 L 134.787 0.000 134.787 13.631 M251.828 0.491 C 251.547 1.537,251.676 29.123,251.963 29.512 C 252.216 29.854,254.089 29.885,278.081 29.935 L 303.926 29.989 303.981 91.472 C 304.021 136.614,304.101 153.034,304.281 153.251 C 304.485 153.496,308.136 153.537,325.927 153.491 L 347.328 153.435 347.383 91.952 C 347.423 46.942,347.504 30.390,347.682 30.175 C 347.885 29.930,352.368 29.880,373.963 29.880 L 400.000 29.880 400.000 14.940 L 400.000 0.000 325.980 0.000 L 251.959 0.000 251.828 0.491 M0.000 191.494 L 0.000 218.103 199.673 218.103 L 399.346 218.103 399.346 191.494 L 399.346 164.885 199.673 164.885 L 0.000 164.885 0.000 191.494 M253.475 173.196 C 253.677 173.304,254.021 173.393,254.239 173.395 C 255.319 173.404,255.324 173.451,254.617 177.037 C 254.528 177.487,254.388 177.523,252.514 177.582 L 250.507 177.644 250.008 178.386 C 249.620 178.962,249.509 179.431,249.509 180.499 L 249.509 181.871 250.436 181.995 C 250.946 182.063,251.903 182.142,252.563 182.172 L 253.762 182.225 253.762 184.406 L 253.762 186.587 251.690 186.696 L 249.618 186.805 249.501 195.638 C 249.436 200.496,249.362 204.496,249.337 204.526 C 249.101 204.806,243.867 204.533,243.753 204.235 C 243.680 204.045,243.621 200.081,243.621 195.425 C 243.621 185.869,243.798 186.696,241.749 186.696 L 240.567 186.696 240.567 184.406 L 240.567 182.116 241.672 182.116 C 243.272 182.116,243.621 181.864,243.621 180.706 C 243.621 175.700,245.145 173.594,249.291 172.871 C 250.074 172.735,253.041 172.965,253.475 173.196 M22.861 173.671 C 23.016 173.857,23.115 177.574,23.160 184.848 C 23.235 196.811,23.157 196.091,24.577 197.959 C 26.157 200.039,31.250 200.245,33.416 198.317 C 34.790 197.094,34.774 197.244,34.856 184.896 L 34.931 173.609 35.404 173.492 C 35.665 173.427,37.007 173.402,38.386 173.437 L 40.894 173.501 40.960 183.315 C 41.045 196.027,40.832 198.270,39.306 200.735 C 35.125 207.489,20.759 206.409,17.926 199.128 C 16.932 196.572,16.170 173.897,17.067 173.536 C 17.703 173.279,22.631 173.394,22.861 173.671 M76.074 173.653 C 76.432 174.011,76.432 178.225,76.074 178.582 C 75.902 178.754,74.984 178.844,73.391 178.844 C 70.378 178.844,70.447 178.908,70.447 176.118 C 70.447 173.328,70.378 173.391,73.391 173.391 C 74.984 173.391,75.902 173.481,76.074 173.653 M166.085 176.118 L 166.085 178.735 163.359 178.735 L 160.632 178.735 160.570 176.350 C 160.486 173.131,160.255 173.367,163.409 173.439 L 166.085 173.501 166.085 176.118 M282.007 173.804 C 284.105 174.326,284.684 174.592,286.166 175.711 C 287.768 176.921,289.639 179.490,289.992 180.965 C 290.071 181.298,290.226 181.684,290.334 181.823 C 290.523 182.063,290.630 182.564,291.190 185.813 C 291.484 187.520,291.341 192.484,290.953 194.002 C 290.528 195.667,289.820 197.636,289.383 198.364 C 289.168 198.724,288.900 199.225,288.788 199.476 C 288.428 200.290,286.039 202.493,284.934 203.031 C 284.344 203.319,283.687 203.640,283.475 203.745 C 282.208 204.369,279.539 204.580,272.901 204.580 L 266.085 204.580 266.085 188.986 L 266.085 173.391 273.228 173.394 C 279.466 173.396,280.578 173.448,282.007 173.804 M301.203 178.571 C 301.207 184.582,301.232 184.677,302.546 183.611 C 305.435 181.269,309.704 180.754,311.927 182.480 C 312.085 182.602,312.379 182.761,312.580 182.832 C 313.207 183.055,314.636 185.066,314.959 186.180 C 315.201 187.014,315.267 189.082,315.267 195.856 L 315.267 204.471 312.668 204.533 C 311.015 204.572,309.983 204.509,309.833 204.359 C 309.676 204.202,309.560 201.434,309.487 196.118 C 309.379 188.121,309.378 188.113,308.863 187.427 C 307.206 185.219,303.489 185.814,302.102 188.510 C 301.406 189.863,301.224 192.038,301.210 199.182 L 301.200 204.580 298.390 204.580 C 295.660 204.580,295.576 204.566,295.448 204.089 C 295.276 203.446,295.271 174.185,295.443 173.736 C 295.554 173.447,296.025 173.391,298.388 173.391 L 301.200 173.391 301.203 178.571 M348.092 181.298 C 348.152 185.586,348.274 189.095,348.364 189.095 C 348.454 189.095,348.619 189.095,348.731 189.095 C 348.842 189.095,350.278 187.525,351.922 185.605 L 354.910 182.116 358.249 182.116 C 362.187 182.116,362.140 182.082,360.560 183.785 C 354.816 189.975,354.505 190.379,355.046 190.960 C 355.152 191.074,355.583 191.805,356.004 192.585 C 356.425 193.364,357.183 194.738,357.688 195.638 C 358.193 196.538,358.939 197.882,359.345 198.624 C 360.223 200.230,361.321 202.160,361.615 202.617 C 361.841 202.968,362.486 204.361,362.486 204.498 C 362.486 204.654,356.706 204.573,356.465 204.413 C 356.332 204.325,355.808 203.468,355.300 202.508 C 354.793 201.549,354.201 200.461,353.986 200.091 C 353.637 199.492,352.167 196.768,351.406 195.311 C 351.017 194.566,350.796 194.618,349.794 195.692 C 348.200 197.402,348.211 197.366,348.092 201.080 L 347.983 204.471 345.383 204.533 C 343.449 204.579,342.737 204.523,342.605 204.315 C 342.291 203.819,342.377 173.664,342.694 173.533 C 342.844 173.470,344.095 173.437,345.474 173.460 L 347.983 173.501 348.092 181.298 M178.057 174.609 C 178.130 174.799,178.190 176.510,178.190 178.412 L 178.190 181.871 179.117 181.994 C 179.626 182.061,180.485 182.141,181.025 182.171 L 182.007 182.225 182.007 184.406 L 182.007 186.587 180.589 186.642 C 179.809 186.673,178.950 186.749,178.680 186.810 L 178.190 186.922 178.197 192.970 C 178.206 200.277,178.144 200.093,180.530 199.968 L 182.001 199.891 182.256 200.981 C 183.058 204.421,182.591 204.880,178.274 204.897 L 175.633 204.907 174.567 204.177 C 172.603 202.832,172.316 201.273,172.306 191.880 L 172.301 186.922 171.810 186.813 C 171.540 186.753,170.976 186.678,170.556 186.646 L 169.793 186.587 169.793 184.406 C 169.793 182.240,169.797 182.224,170.338 182.166 C 170.638 182.133,171.202 182.055,171.592 181.992 L 172.301 181.878 172.308 179.870 C 172.316 177.557,172.361 177.471,174.118 176.433 C 175.896 175.382,176.246 175.172,176.990 174.706 C 177.810 174.192,177.894 174.184,178.057 174.609 M272.246 178.864 C 271.955 179.169,271.831 197.267,272.110 198.664 L 272.246 199.346 275.589 199.346 C 282.590 199.346,284.248 197.945,284.838 191.537 C 285.463 184.740,283.962 180.393,280.589 179.232 C 279.113 178.725,272.652 178.440,272.246 178.864 M60.632 181.854 C 65.162 183.311,65.504 184.227,65.609 195.162 C 65.709 205.688,66.049 204.580,62.724 204.580 L 60.025 204.580 59.917 197.219 C 59.769 187.154,59.237 185.707,55.834 186.110 C 52.153 186.546,51.491 188.298,51.480 197.638 C 51.476 201.076,51.413 204.045,51.340 204.235 C 51.159 204.707,46.213 204.749,45.826 204.283 C 45.648 204.068,45.595 200.958,45.636 193.105 L 45.692 182.225 48.310 182.225 L 50.927 182.225 50.995 183.311 C 51.089 184.797,51.395 184.892,52.563 183.797 C 54.823 181.679,57.835 180.953,60.632 181.854 M114.998 181.863 C 115.809 182.077,116.589 182.369,116.732 182.511 C 116.874 182.654,117.098 182.770,117.230 182.770 C 118.095 182.770,121.055 186.289,121.398 187.726 C 121.478 188.059,121.625 188.437,121.726 188.565 C 122.099 189.043,122.640 194.314,122.351 194.662 C 122.126 194.933,120.999 194.984,115.147 194.984 C 107.387 194.984,107.897 194.867,108.196 196.570 C 108.940 200.812,115.295 202.106,116.060 198.171 C 116.181 197.547,116.865 197.418,118.430 197.723 C 119.209 197.875,120.314 198.063,120.883 198.141 C 122.395 198.347,121.988 200.056,119.878 202.364 C 115.756 206.874,106.219 205.524,103.487 200.044 C 98.614 190.270,105.522 179.358,114.998 181.863 M138.254 181.857 C 139.965 182.394,140.013 182.566,139.169 185.143 C 138.380 187.551,138.097 187.825,136.990 187.252 C 135.670 186.570,133.914 186.948,133.043 188.103 C 132.003 189.482,131.632 192.700,131.457 201.854 L 131.407 204.471 128.741 204.532 C 125.456 204.608,125.819 206.090,125.894 192.912 L 125.954 182.225 128.571 182.225 L 131.189 182.225 131.307 183.251 C 131.455 184.538,131.583 184.668,132.032 183.983 C 133.525 181.704,135.556 181.010,138.254 181.857 M153.780 181.807 C 156.378 182.398,157.964 183.559,159.088 185.692 C 159.987 187.398,159.819 187.559,156.585 188.094 C 154.712 188.404,154.287 188.320,153.912 187.568 C 152.593 184.922,145.593 185.479,146.582 188.152 C 146.814 188.780,147.826 189.259,150.273 189.901 C 151.412 190.200,152.835 190.574,153.435 190.731 C 156.816 191.618,160.105 193.665,160.355 195.038 C 160.382 195.188,160.456 192.366,160.519 188.768 L 160.632 182.225 163.359 182.225 L 166.085 182.225 166.085 193.348 L 166.085 204.471 163.485 204.533 C 160.381 204.607,160.534 204.744,160.518 201.854 C 160.507 199.795,160.488 199.706,160.181 200.273 C 160.002 200.603,159.760 200.872,159.644 200.872 C 159.528 200.872,159.433 201.002,159.433 201.159 C 159.433 201.491,157.496 203.490,157.174 203.490 C 157.056 203.490,156.804 203.620,156.615 203.780 C 154.520 205.545,147.002 205.423,144.018 203.575 C 141.835 202.224,139.497 198.504,140.622 198.172 C 143.051 197.454,145.873 197.243,146.065 197.764 C 147.176 200.776,151.749 201.808,154.253 199.613 C 155.638 198.398,153.486 196.074,150.976 196.074 C 150.572 196.074,148.772 195.550,146.674 194.820 C 145.834 194.529,144.915 194.236,144.631 194.170 C 143.734 193.962,141.664 191.727,141.258 190.528 C 139.214 184.491,145.705 179.971,153.780 181.807 M231.516 181.873 C 240.291 184.200,242.798 196.303,235.789 202.505 C 230.148 207.496,219.847 204.797,217.906 197.819 C 215.092 187.702,222.179 179.398,231.516 181.873 M332.672 181.813 C 333.536 182.007,334.397 182.301,334.586 182.467 C 334.776 182.634,335.034 182.770,335.160 182.770 C 335.697 182.770,337.132 184.498,337.531 185.624 C 337.900 186.665,337.965 187.670,338.077 194.111 C 338.180 199.991,338.273 201.631,338.558 202.508 C 338.752 203.108,338.977 203.823,339.057 204.096 L 339.204 204.594 336.414 204.532 L 333.623 204.471 333.315 203.544 C 332.943 202.429,332.695 202.402,331.350 203.332 C 325.778 207.186,317.812 203.802,318.741 197.976 C 319.384 193.943,321.307 192.442,327.481 191.158 C 332.241 190.167,332.663 189.882,332.117 188.020 C 331.371 185.481,326.705 185.336,325.179 187.805 C 324.889 188.275,324.552 188.669,324.431 188.682 C 323.915 188.736,322.855 188.621,322.246 188.446 C 321.887 188.343,321.126 188.195,320.556 188.118 C 319.303 187.948,319.264 187.739,320.147 185.917 C 321.961 182.174,326.966 180.534,332.672 181.813 M378.299 181.877 C 383.011 183.137,383.423 184.080,383.518 193.802 C 383.574 199.547,383.651 200.992,383.957 202.072 C 384.161 202.792,384.381 203.650,384.446 203.980 L 384.564 204.580 381.949 204.580 C 379.132 204.580,378.999 204.531,378.722 203.379 C 378.636 203.020,378.524 202.652,378.474 202.562 C 378.381 202.397,377.521 202.765,377.317 203.057 C 376.946 203.588,374.508 204.654,373.134 204.886 C 366.814 205.950,362.428 200.962,364.956 195.583 C 366.084 193.181,367.518 192.386,372.955 191.151 C 377.985 190.009,378.264 189.819,377.611 187.983 C 376.727 185.494,371.917 185.366,370.660 187.797 C 370.146 188.791,369.795 188.851,367.317 188.374 L 365.058 187.938 365.200 187.050 C 365.279 186.562,365.485 186.004,365.659 185.812 C 365.833 185.619,365.976 185.389,365.976 185.301 C 365.976 184.896,367.211 183.589,368.231 182.913 C 370.364 181.500,375.077 181.015,378.299 181.877 M76.283 192.977 C 76.321 200.141,76.264 203.871,76.112 204.154 C 75.736 204.858,70.775 204.800,70.585 204.089 C 70.400 203.401,70.414 182.440,70.599 182.255 C 70.682 182.171,71.983 182.131,73.489 182.164 L 76.227 182.225 76.283 192.977 M85.795 183.315 C 86.026 183.915,86.348 184.715,86.510 185.093 C 86.672 185.471,86.805 185.859,86.805 185.954 C 86.805 186.161,88.036 189.561,88.467 190.546 C 88.632 190.924,88.768 191.314,88.768 191.413 C 88.768 191.513,89.007 192.234,89.300 193.016 C 89.593 193.798,89.940 194.856,90.072 195.365 C 90.508 197.056,90.946 196.629,91.973 193.510 C 92.476 191.981,93.096 190.191,93.350 189.531 C 93.604 188.871,94.048 187.644,94.337 186.805 C 95.248 184.152,95.536 183.389,95.870 182.744 L 96.194 182.116 99.024 182.116 C 102.019 182.116,102.165 182.173,101.658 183.155 C 101.551 183.363,101.311 183.926,101.126 184.406 C 100.329 186.472,99.267 189.285,98.903 190.294 C 98.687 190.894,98.428 191.478,98.328 191.592 C 98.228 191.706,98.143 191.951,98.139 192.137 C 98.135 192.323,97.942 192.868,97.710 193.348 C 97.478 193.828,97.285 194.344,97.281 194.496 C 97.277 194.647,97.177 194.942,97.059 195.150 C 96.941 195.358,96.493 196.461,96.064 197.601 C 95.634 198.740,95.192 199.869,95.081 200.109 C 94.970 200.349,94.642 201.183,94.353 201.963 C 94.063 202.743,93.703 203.650,93.552 203.980 L 93.278 204.580 90.722 204.580 L 88.167 204.580 87.692 203.435 C 87.431 202.805,87.128 202.094,87.019 201.854 C 86.910 201.614,86.468 200.485,86.036 199.346 C 85.191 197.112,84.677 195.784,84.391 195.093 C 84.121 194.439,83.465 192.774,82.329 189.858 C 81.768 188.419,80.882 186.168,80.361 184.857 C 79.194 181.922,79.059 182.091,82.507 182.164 L 85.373 182.225 85.795 183.315 M191.786 183.533 C 192.024 184.253,192.293 185.038,192.384 185.278 C 192.520 185.637,195.888 196.071,196.220 197.163 C 196.395 197.736,197.029 196.630,197.569 194.812 C 197.844 193.887,198.196 192.786,198.352 192.366 C 198.507 191.947,198.956 190.573,199.350 189.313 C 199.744 188.053,200.334 186.189,200.662 185.169 C 200.989 184.149,201.319 183.045,201.396 182.715 L 201.535 182.116 204.500 182.116 L 207.465 182.116 207.351 182.715 C 207.226 183.370,206.006 186.975,205.673 187.677 C 205.559 187.917,205.259 188.751,205.007 189.531 C 204.755 190.311,204.467 191.145,204.368 191.385 C 204.268 191.625,203.970 192.459,203.704 193.239 C 203.439 194.019,203.086 194.966,202.920 195.344 C 202.753 195.722,202.617 196.120,202.617 196.229 C 202.617 196.338,202.362 197.060,202.051 197.832 C 201.740 198.605,201.402 199.531,201.301 199.891 C 201.122 200.530,199.994 203.709,199.251 205.671 C 199.047 206.210,198.798 206.947,198.699 207.306 C 197.504 211.636,194.911 213.598,190.357 213.619 C 186.829 213.635,186.846 213.648,186.822 210.881 L 186.805 208.874 188.659 208.854 C 191.182 208.826,192.507 207.785,193.231 205.262 C 193.406 204.650,192.732 202.037,192.282 201.588 C 192.209 201.514,192.148 201.299,192.147 201.109 C 192.146 200.919,192.002 200.488,191.827 200.153 C 191.652 199.817,191.414 199.228,191.299 198.844 C 191.183 198.460,190.794 197.361,190.434 196.401 C 190.074 195.442,189.661 194.313,189.517 193.893 C 189.373 193.473,189.168 192.957,189.063 192.747 C 188.958 192.536,188.634 191.653,188.343 190.784 C 188.052 189.915,187.605 188.664,187.348 188.004 C 187.091 187.345,186.798 186.559,186.696 186.260 C 186.594 185.960,186.296 185.174,186.033 184.515 C 185.771 183.855,185.506 183.042,185.446 182.709 L 185.336 182.103 188.345 182.164 L 191.353 182.225 191.786 183.533 M111.421 186.186 C 109.959 186.434,108.194 188.764,108.184 190.458 L 108.179 191.276 112.432 191.276 L 116.685 191.276 116.683 190.567 C 116.675 187.943,114.033 185.743,111.421 186.186 M227.171 186.606 C 221.688 188.099,222.006 199.076,227.563 200.118 C 234.487 201.417,236.551 188.652,229.750 186.589 C 228.528 186.218,228.598 186.217,227.171 186.606 M329.444 194.442 C 328.964 194.601,327.983 194.907,327.263 195.123 C 325.416 195.676,324.755 196.420,324.755 197.944 C 324.755 202.167,331.335 201.572,332.168 197.274 C 332.747 194.289,332.061 193.576,329.444 194.442 M374.809 194.479 C 371.051 195.639,370.120 196.294,370.120 197.778 C 370.120 200.983,374.530 201.912,376.916 199.210 C 377.455 198.600,378.006 196.458,377.930 195.267 L 377.863 194.220 376.881 194.182 C 376.341 194.160,375.409 194.294,374.809 194.479 " stroke="none" fill="#2c3494" fill-rule="evenodd"></path></g></svg>