<svg height="480pt" viewBox="-10 0 480 480" width="480pt" xmlns="http://www.w3.org/2000/svg"><path d="m152.066406 352v48l-72 72h256l-56-56v-48l24-40v-48h-152zm0 0" fill="#c3c3c3"/><path d="m127.640625 175.847656c-.050781-4.371094-3.628906-7.878906-8-7.847656l-.070313-.070312c-4.417968.039062-7.96875 3.652343-7.929687 8.070312l.351563 56h-47.925782c-.683594.046875-1.355468.179688-2 .398438-3.480468-6.445313-10.894531-9.707032-18-7.910157-7.105468 1.792969-12.082031 8.183594-12.082031 15.511719s4.976563 13.71875 12.082031 15.511719c7.105469 1.796875 14.519532-1.464844 18-7.910157.644532.21875 1.316406.351563 2 .398438h56c2.132813 0 4.179688-.851562 5.679688-2.367188 1.503906-1.515624 2.339844-3.570312 2.320312-5.703124zm0 0" fill="#85bc94"/><path d="m120.066406 88h-64v-32c-.046875-.679688-.183594-1.351562-.402344-2 6.449219-3.480469 9.707032-10.894531 7.914063-18-1.792969-7.101562-8.1875-12.078125-15.511719-12.078125-7.328125 0-13.71875 4.976563-15.511718 12.078125-1.796876 7.105469 1.464843 14.519531 7.910156 18-.21875.648438-.351563 1.320312-.398438 2v40c0 4.417969 3.582032 8 8 8h72c4.417969 0 8-3.582031 8-8s-3.582031-8-8-8zm0 0" fill="#85bc94"/><path d="m132.273438 134.574219h-.121094l-92.214844 1.425781c-.621094.054688-1.230469.191406-1.816406.398438-3.480469-6.445313-10.894532-9.707032-18-7.910157-7.101563 1.792969-12.078125 8.183594-12.078125 15.511719s4.976562 13.71875 12.078125 15.511719c7.105468 1.796875 14.519531-1.464844 18-7.910157.628906.214844 1.28125.351563 1.945312.398438h.128906l92.207032-1.425781c4.417968-.035157 7.96875-3.644531 7.933594-8.0625-.035157-4.417969-3.644532-7.972657-8.0625-7.9375zm0 0" fill="#85bc94"/><path d="m48.066406 264c-13.253906 0-24-10.746094-24-24s10.746094-24 24-24 24 10.746094 24 24-10.746094 24-24 24zm0-32c-4.417968 0-8 3.582031-8 8s3.582032 8 8 8c4.417969 0 8-3.582031 8-8s-3.582031-8-8-8zm0 0" fill="#6b9777"/><path d="m48.066406 64c-13.253906 0-24-10.746094-24-24s10.746094-24 24-24 24 10.746094 24 24-10.746094 24-24 24zm0-32c-4.417968 0-8 3.582031-8 8s3.582032 8 8 8c4.417969 0 8-3.582031 8-8s-3.582031-8-8-8zm0 0" fill="#6b9777"/><path d="m24.066406 168c-12.53125.003906-22.957031-9.628906-23.9375-22.121094-.980468-12.492187 7.8125-23.636718 20.1875-25.585937 12.378906-1.949219 24.175782 5.949219 27.082032 18.136719 2.910156 12.1875-4.046876 24.5625-15.972657 28.410156-2.378906.765625-4.863281 1.160156-7.359375 1.160156zm0-32c-.816406.007812-1.625.136719-2.402344.382812-4.203124 1.351563-6.519531 5.859376-5.167968 10.066407 1.355468 4.203125 5.859375 6.519531 10.066406 5.167969 3.757812-1.210938 6.074219-4.980469 5.449219-8.878907-.621094-3.902343-3.996094-6.761719-7.945313-6.738281zm0 0" fill="#6b9777"/><g fill="#85bc94"><path d="m318.066406 192h-60c-4.953125.488281-9.390625-3.0625-10-8 .609375-4.9375 5.046875-8.488281 10-8h60c4.953125-.488281 9.390625 3.0625 10 8-.609375 4.9375-5.046875 8.488281-10 8zm0 0"/><path d="m304.066406 144h-64c-4.417968 0-8-3.582031-8-8s3.582032-8 8-8h64c4.417969 0 8 3.582031 8 8s-3.582031 8-8 8zm0 0"/><path d="m304.066406 96h-48c-4.417968 0-8-3.582031-8-8s3.582032-8 8-8h48c4.417969 0 8 3.582031 8 8s-3.582031 8-8 8zm0 0"/><path d="m344.066406 40h-72c-4.417968 0-8-3.582031-8-8v-16h-64v32c0 4.417969-3.582031 8-8 8-4.417968 0-8-3.582031-8-8v-40c0-4.417969 3.582032-8 8-8h80c4.417969 0 8 3.582031 8 8v16h64zm0 0"/><path d="m224.066406 224h16v16h-16zm0 0"/><path d="m256.066406 224h16v16h-16zm0 0"/><path d="m288.066406 224h48v16h-48zm0 0"/><path d="m184.066406 296c-4.417968 0-8-3.582031-8-8v-72c0-4.417969 3.582032-8 8-8 4.417969 0 8 3.582031 8 8v72c0 4.417969-3.582031 8-8 8zm0 0"/></g><path d="m243.859375 136c-.011719-2.199219-.15625-4.394531-.425781-6.574219l28.632812-23.570312-16-27.710938-34.761718 13.054688c-3.507813-2.652344-7.324219-4.875-11.359376-6.625l-6.085937-36.574219h-32l-6.097656 36.542969c-4.035157 1.75-7.847657 3.976562-11.359375 6.625l-34.761719-13.023438-16 27.710938 28.632813 23.570312c-.554688 4.363281-.554688 8.785157 0 13.148438l-28.632813 23.570312 16 27.710938 34.761719-13.054688c3.511718 2.648438 7.324218 4.875 11.359375 6.625l2.097656 12.574219 4 24h32l6.085937-36.542969c4.035157-1.75 7.851563-3.972656 11.359376-6.625l34.761718 13.023438 16-27.710938-28.632812-23.570312c.269531-2.179688.414062-4.375.425781-6.574219zm-56 24c-13.257813 0-24-10.746094-24-24s10.742187-24 24-24c13.253906 0 24 10.746094 24 24s-10.746094 24-24 24zm0 0" fill="#5e8569"/><path d="m216.066406 280v128l-56 64h-80l72-72v-120zm0 0" fill="#a8a8a8"/><path d="m280.066406 384h-64v-104h88v48l-24 40zm0 0" fill="#dbdbdb"/><path d="m248.066406 384v88h88l-56-56v-32zm0 0" fill="#dbdbdb"/><path d="m248.066406 280v56l32 32 40-56v-32zm0 0" fill="#d1d1d1"/><path d="m176.066406 320h16v16h-16zm0 0" fill="#b9b9b9"/><path d="m176.066406 352h16v16h-16zm0 0" fill="#b9b9b9"/><path d="m176.066406 453.710938 16-18.277344v-51.433594h-16zm0 0" fill="#b9b9b9"/><path d="m295.882812 345.863281 24.183594-33.863281v-32h-48v48zm0 0" fill="#cdcdcd"/><path d="m344.066406 24-40 56v96l24 32v32l-40 16v64s64 40 72 40h48v-48l16-16v-32h19.6875c2.707032 0 5.230469-1.371094 6.707032-3.640625 1.476562-2.269531 1.703124-5.132813.605468-7.605469l-27-60.753906c10.246094-10.242188 16-24.136719 16-38.625-.003906-49.875-28.1875-95.46875-72.800781-117.765625zm0 0" fill="#ebebeb"/><path d="m400.066406 200h-24c-4.417968 0-8-3.582031-8-8s3.582032-8 8-8h16v-16c0-4.417969 3.582032-8 8-8 4.417969 0 8 3.582031 8 8v24c0 4.417969-3.582031 8-8 8zm0 0" fill="#dbdbdb"/><path d="m381.722656 274.34375c-3.140625-3.03125-8.128906-2.988281-11.214844.097656-3.085937 3.085938-3.128906 8.074219-.097656 11.214844 11.714844 11.785156 27.660156 18.390625 44.28125 18.34375h1.375l8-8v-8h-9.375c-12.375.035156-24.246094-4.882812-32.96875-13.65625zm0 0" fill="#dbdbdb"/><path d="m328.066406 80h16v32h-16zm0 0" fill="#f9f9f9"/><path d="m328.066406 128h16v16h-16zm0 0" fill="#f9f9f9"/><path d="m328.066406 160h16v16h-16zm0 0" fill="#f9f9f9"/><path d="m376.066406 200h24c4.417969 0 8-3.582031 8-8v-24c0-4.417969-3.582031-8-8-8-4.417968 0-8 3.582031-8 8v16h-16c-4.417968 0-8 3.582031-8 8s3.582032 8 8 8zm0 0"/><path d="m187.859375 168c17.671875 0 32-14.328125 32-32s-14.328125-32-32-32c-17.675781 0-32 14.328125-32 32s14.324219 32 32 32zm0-48c8.835937 0 16 7.164062 16 16s-7.164063 16-16 16c-8.839844 0-16-7.164062-16-16s7.160156-16 16-16zm0 0"/><path d="m13.105469 165.34375c3.386719 1.75 7.148437 2.660156 10.960937 2.65625 10.183594 0 19.242188-6.464844 22.558594-16.097656l62.914062-.972656-10.976562 9.070312c-3.023438 2.484375-3.804688 6.789062-1.847656 10.175781l14.949218 25.824219.328126 36h-39.925782c-.46875.046875-.933594.140625-1.386718.28125-3.777344-11.121094-15.046876-17.875-26.636719-15.960938-11.585938 1.914063-20.085938 11.933594-20.085938 23.679688s8.5 21.765625 20.085938 23.679688c11.589843 1.914062 22.859375-4.839844 26.636719-15.960938.453124.140625.917968.234375 1.386718.28125h48c2.132813 0 4.179688-.851562 5.679688-2.367188 1.503906-1.515624 2.339844-3.570312 2.320312-5.703124l-.367187-40.546876 25.597656-9.597656c1.738281 1.125 3.503906 2.152344 5.289063 3.085938l5.398437 32.433594c.644531 3.855468 3.984375 6.683593 7.898437 6.679687h4.183594v40h-24c-4.417968 0-8 3.582031-8 8v116.703125l-69.65625 69.65625c-2.289062 2.289062-2.972656 5.730469-1.734375 8.71875s4.15625 4.9375 7.390625 4.9375h256c3.234375 0 6.152344-1.949219 7.386719-4.9375 1.238281-2.988281.554687-6.429688-1.730469-8.71875l-53.65625-53.65625v-42.472656l17.910156-29.832032c30.21875 18.234376 48.488282 27.617188 54.089844 27.617188h48c4.417969 0 8-3.582031 8-8v-44.6875l13.648438-13.648438c1.496094-1.503906 2.34375-3.539062 2.351562-5.664062v-24h11.6875c5.414063 0 10.464844-2.738281 13.417969-7.28125 2.949219-4.539062 3.40625-10.265625 1.207031-15.214844l-24.875-56c9.441406-11.242187 14.597656-25.457031 14.5625-40.136718.179688-52.949219-29.761718-101.390626-77.199218-124.910157l-23.203126-11.617187c-3.519531-1.753906-7.792968-.691406-10.078124 2.511718l-3.351563 4.648438h-54.167969v-16c0-4.417969-3.582031-8-8-8h-80c-4.417968 0-8 3.582031-8 8v32h-12.207031c-3.914063-.003906-7.257813 2.828125-7.898437 6.6875l-5.398438 32.425781c-1.785156.933594-3.554688 1.957031-5.289062 3.085938l-30.808594-11.542969c-3.660156-1.375-7.777344.101562-9.734375 3.488281l-8.066407 13.976563c-.207031 0-.375-.121094-.582031-.121094h-48.015625v-25.472656c11.019532-3.894532 17.628906-15.164063 15.652344-26.683594-1.976562-11.523438-11.964844-19.941406-23.652344-19.941406-11.691406 0-21.679687 8.417968-23.65625 19.941406-1.976562 11.519531 4.636719 22.789062 15.65625 26.683594v33.472656c0 4.417969 3.582032 8 8 8h47.878906c-.734374 2.949219.28125 6.054688 2.617188 8l25.375 20.894531c0 .585938 0 1.183594-.046875 1.777344l-77.296875 1.191406c-3.632812-10.140625-13.582031-16.621093-24.328125-15.839843-10.746094.777343-19.65625 8.621093-21.789063 19.179687-2.136718 10.5625 3.027344 21.25 12.628907 26.140625zm34.960937 82.65625c-4.417968 0-8-3.582031-8-8s3.582032-8 8-8c4.417969 0 8 3.582031 8 8s-3.582031 8-8 8zm0-216c4.417969 0 8 3.582031 8 8s-3.582031 8-8 8c-4.417968 0-8-3.582031-8-8s3.582032-8 8-8zm144 200h11.792969c3.90625 0 7.242187-2.824219 7.886719-6.679688l5.40625-32.433593c1.777344-.925781 3.546875-1.957031 5.28125-3.085938l30.824218 11.542969c3.660157 1.375 7.777344-.101562 9.734376-3.488281l3.386718-5.855469h37.6875c.589844-.046875 1.171875-.164062 1.734375-.351562l14.265625 19.015624v13.335938h-32v16h18.457032l-21.425782 8.566406c-3.039062 1.214844-5.035156 4.160156-5.03125 7.433594v16h-88zm86.925782-130.144531-3.375-5.855469h20.449218v32h-38.3125l19.398438-16c3.003906-2.484375 3.777344-6.765625 1.839844-10.144531zm17.074218 42.144531v32h-20.449218l3.375-5.855469c1.9375-3.378906 1.164062-7.660156-1.839844-10.144531l-19.398438-16zm-53.65625 197.65625 29.65625 29.65625v4.6875h-48v-88h16v48c0 2.121094.84375 4.15625 2.34375 5.65625zm-50.710937 106.34375h.367187v-.414062l30.023438-34.3125c1.277344-1.460938 1.976562-3.335938 1.976562-5.273438v-16h16v72h-62.402344zm-92.320313 16 58.34375-58.34375c1.5-1.5 2.34375-3.535156 2.34375-5.65625v-112h48v116.992188l-16 18.289062v-39.28125h-16v57.601562l-19.632812 22.398438zm217.375 0h-60.6875v-72h16v24c0 2.121094.84375 4.15625 2.34375 5.65625zm-38.289062-108.894531-22.398438-22.402344v-44.703125h24v32c0 2.757812 1.421875 5.320312 3.757813 6.785156 2.984375 1.871094 5.679687 3.519532 8.496093 5.253906zm68.136718-320.898438 17.105469 8.5625c42.003907 20.820313 68.515625 63.714844 68.359375 110.597657.035156 12.375-4.882812 24.25-13.65625 32.976562-2.339844 2.339844-3 5.878906-1.65625 8.902344l27 60.753906h-19.6875c-4.417968 0-8 3.582031-8 8v24h-1.375c-12.375.035156-24.246094-4.882812-32.96875-13.65625-3.140625-3.03125-8.128906-2.988281-11.214844.097656-3.085937 3.085938-3.128906 8.074219-.097656 11.214844 9.480469 9.511719 21.792969 15.6875 35.085938 17.601562l-3.085938 3.085938c-1.5 1.5-2.34375 3.535156-2.34375 5.65625v40l-39.242187.046875c-18.480469-8.546875-36.328125-18.414063-53.398438-29.519531l-.039062-.039063h-.050781c-3.765626-2.289062-7.542969-4.609375-11.269532-6.921875v-54.152344l34.96875-13.980468c3.039063-1.214844 5.03125-4.160156 5.03125-7.433594v-32c0-1.730469-.5625-3.414062-1.601562-4.800781l-22.398438-29.863281v-90.777344zm-146.535156-18.207031h64v16c0 4.417969 3.582032 8 8 8h50.742188l-25.246094 35.351562c-.976562 1.355469-1.5 2.980469-1.496094 4.648438h-29.6875l-3.386718-5.855469c-1.957032-3.386719-6.074219-4.863281-9.734376-3.488281l-30.792968 11.542969c-1.734375-1.128907-3.503906-2.160157-5.28125-3.085938l-5.4375-32.433593c-.644532-3.855469-3.980469-6.679688-7.886719-6.679688h-3.792969zm-86.105468 88 9.222656-16 28.410156 10.648438c2.550781.953124 5.410156.546874 7.589844-1.082032 3.011718-2.269531 6.28125-4.175781 9.738281-5.679687 2.503906-1.074219 4.289063-3.351563 4.734375-6.039063l4.976562-29.847656h18.449219l4.976563 29.855469c.445312 2.6875 2.230468 4.964843 4.734375 6.039062 3.457031 1.507813 6.722656 3.414063 9.738281 5.679688 2.179688 1.628906 5.035156 2.035156 7.582031 1.082031l28.417969-10.65625 9.214844 16-23.402344 19.257812c-2.101562 1.730469-3.179688 4.417969-2.855469 7.125.492188 3.734376.492188 7.515626 0 11.25-.324219 2.707032.753907 5.394532 2.855469 7.128907l23.402344 19.238281-9.214844 16-28.417969-10.648438c-2.546875-.953124-5.402343-.546874-7.582031 1.082032-3.015625 2.265625-6.28125 4.171875-9.738281 5.679687-2.503907 1.074219-4.289063 3.351563-4.734375 6.039063l-4.976563 29.847656h-18.457031l-4.960938-29.855469c-.445312-2.6875-2.230468-4.964843-4.734374-6.039062-3.457032-1.503907-6.726563-3.410157-9.734376-5.679688-2.183593-1.628906-5.042968-2.039062-7.59375-1.082031l-28.417968 10.65625-9.222656-16 23.402343-19.257812c.140625-.136719.277344-.285157.40625-.4375.15625-.148438.300781-.300782.441407-.464844.601562-.648438 1.085937-1.394532 1.4375-2.207032l.050781-.089843c.332031-.878907.507812-1.816407.511719-2.757813.027343-.113281.050781-.230468.0625-.34375 0-.097656-.046876-.175781-.054688-.273437-.007812-.097657 0-.367188 0-.550781-.492188-3.734376-.492188-7.515626 0-11.25.320312-2.707032-.757812-5.394532-2.863281-7.128907zm-97.007813 36.34375c.953125-1.910156 2.640625-3.351562 4.671875-4 4.09375-1.042969 8.292969 1.277344 9.589844 5.300781 1.296875 4.019531-.761719 8.355469-4.691406 9.898438-4.207032 1.351562-8.714844-.960938-10.066407-5.167969-.636719-1.996094-.460937-4.164062.496094-6.03125zm0 0"/><path d="m176.066406 320h16v16h-16zm0 0"/><path d="m176.066406 352h16v16h-16zm0 0"/><path d="m224.066406 224h16v16h-16zm0 0"/><path d="m256.066406 224h16v16h-16zm0 0"/><path d="m328.066406 80h16v32h-16zm0 0"/><path d="m328.066406 128h16v16h-16zm0 0"/><path d="m328.066406 160h16v16h-16zm0 0"/></svg>