<svg id="Layer_3" enable-background="new 0 0 64 64" height="512" viewBox="0 0 64 64" width="512" xmlns="http://www.w3.org/2000/svg"><g><g><path d="m6.534 29h21.932v2h-21.932z" fill="#4d5d7a" transform="matrix(.41 -.912 .912 .41 -17.038 33.657)"/></g><g><path d="m23.308 43.5h18.385v2h-18.385z" fill="#4d5d7a" transform="matrix(.925 -.381 .381 .925 -14.497 15.729)"/></g><g><path d="m37.5 17.136h2v12.728h-2z" fill="#4d5d7a" transform="matrix(.707 -.707 .707 .707 -5.341 34.107)"/></g><g><path d="m35.924 6h13.153v2h-13.153z" fill="#4d5d7a" transform="matrix(.988 -.152 .152 .988 -.57 6.536)"/></g><g><path d="m38.169 50h11.662v2h-11.662z" fill="#4d5d7a" transform="matrix(.515 -.857 .857 .515 -22.372 62.479)"/></g><circle cx="52" cy="5" fill="#f5b953" r="3"/><circle cx="40" cy="59" fill="#f5b953" r="3"/><g fill="#3d98f7"><circle cx="13" cy="51" r="11"/><circle cx="51" cy="36" r="11"/><circle cx="27" cy="12" r="10"/></g><g fill="#2b74ca"><path d="m13 39c-6.617 0-12 5.383-12 12s5.383 12 12 12 12-5.383 12-12-5.383-12-12-12zm9.473 8.821c-1.289-.669-2.973-1.159-4.836-1.459-.3-1.863-.789-3.546-1.459-4.836 2.959.996 5.3 3.337 6.295 6.295zm-4.584 5.74c.071-.844.111-1.702.111-2.561s-.04-1.717-.111-2.561c3.187.61 5.111 1.732 5.111 2.561s-1.924 1.951-5.111 2.561zm-4.889 7.439c-.829 0-1.951-1.924-2.561-5.111.844.071 1.702.111 2.561.111s1.717-.04 2.561-.111c-.61 3.187-1.732 5.111-2.561 5.111zm0-7c-1.014 0-1.965-.055-2.854-.146-.091-.889-.146-1.84-.146-2.854s.055-1.965.146-2.854c.889-.091 1.84-.146 2.854-.146s1.965.055 2.854.146c.091.889.146 1.84.146 2.854s-.055 1.965-.146 2.854c-.889.091-1.84.146-2.854.146zm-10-3c0-.829 1.924-1.951 5.111-2.561-.071.844-.111 1.702-.111 2.561s.04 1.717.111 2.561c-3.187-.61-5.111-1.732-5.111-2.561zm10-10c.829 0 1.951 1.924 2.561 5.111-.844-.071-1.702-.111-2.561-.111s-1.717.04-2.561.111c.61-3.187 1.732-5.111 2.561-5.111zm-3.179.527c-.669 1.289-1.159 2.973-1.459 4.836-1.863.3-3.546.789-4.836 1.459.996-2.959 3.337-5.3 6.295-6.295zm-6.294 12.652c1.289.669 2.973 1.159 4.836 1.459.3 1.863.789 3.546 1.459 4.836-2.959-.996-5.3-3.337-6.295-6.295zm12.652 6.294c.669-1.289 1.159-2.973 1.459-4.836 1.863-.3 3.546-.789 4.836-1.459-.996 2.959-3.337 5.3-6.295 6.295z"/><path d="m51 24c-6.617 0-12 5.383-12 12s5.383 12 12 12 12-5.383 12-12-5.383-12-12-12zm4.889 14.561c.071-.844.111-1.702.111-2.561s-.04-1.717-.111-2.561c3.187.61 5.111 1.732 5.111 2.561s-1.924 1.951-5.111 2.561zm-4.889 7.439c-.829 0-1.951-1.924-2.561-5.111.844.071 1.702.111 2.561.111s1.717-.04 2.561-.111c-.61 3.187-1.732 5.111-2.561 5.111zm0-7c-1.014 0-1.965-.055-2.854-.146-.091-.889-.146-1.84-.146-2.854s.055-1.965.146-2.854c.889-.091 1.84-.146 2.854-.146s1.965.055 2.854.146c.091.889.146 1.84.146 2.854s-.055 1.965-.146 2.854c-.889.091-1.84.146-2.854.146zm-10-3c0-.829 1.924-1.951 5.111-2.561-.071.844-.111 1.702-.111 2.561s.04 1.717.111 2.561c-3.187-.61-5.111-1.732-5.111-2.561zm10-10c.829 0 1.951 1.924 2.561 5.111-.844-.071-1.702-.111-2.561-.111s-1.717.04-2.561.111c.61-3.187 1.732-5.111 2.561-5.111zm9.473 6.821c-1.289-.669-2.973-1.159-4.836-1.459-.3-1.863-.789-3.546-1.459-4.836 2.959.996 5.3 3.337 6.295 6.295zm-12.652-6.294c-.669 1.289-1.159 2.973-1.459 4.836-1.863.3-3.546.789-4.836 1.459.996-2.959 3.337-5.3 6.295-6.295zm-6.294 12.652c1.289.669 2.973 1.159 4.836 1.459.3 1.863.789 3.546 1.459 4.836-2.959-.996-5.3-3.337-6.295-6.295zm12.652 6.294c.669-1.289 1.159-2.973 1.459-4.836 1.863-.3 3.546-.789 4.836-1.459-.996 2.959-3.337 5.3-6.295 6.295z"/><path d="m27 1c-6.065 0-11 4.935-11 11s4.935 11 11 11 11-4.935 11-11-4.935-11-11-11zm8.357 7.677c-1.062-.544-2.371-.958-3.795-1.239-.281-1.423-.695-2.733-1.239-3.795 2.292.915 4.119 2.742 5.034 5.034zm-3.486 5.79c.082-.816.129-1.645.129-2.467s-.047-1.651-.129-2.467c2.604.62 4.129 1.662 4.129 2.467s-1.525 1.847-4.129 2.467zm-4.871 6.533c-.805 0-1.847-1.525-2.467-4.129.816.082 1.645.129 2.467.129s1.651-.047 2.467-.129c-.62 2.604-1.662 4.129-2.467 4.129zm0-6c-1.015 0-1.962-.061-2.832-.168-.107-.87-.168-1.817-.168-2.832s.061-1.962.168-2.832c.87-.107 1.817-.168 2.832-.168s1.962.061 2.832.168c.107.87.168 1.817.168 2.832s-.061 1.962-.168 2.832c-.87.107-1.817.168-2.832.168zm-9-3c0-.805 1.525-1.847 4.129-2.467-.082.816-.129 1.645-.129 2.467s.047 1.651.129 2.467c-2.604-.62-4.129-1.662-4.129-2.467zm9-9c.805 0 1.847 1.525 2.467 4.129-.816-.082-1.645-.129-2.467-.129s-1.651.047-2.467.129c.62-2.604 1.662-4.129 2.467-4.129zm-3.323.643c-.544 1.062-.958 2.371-1.239 3.795-1.423.281-2.733.695-3.795 1.239.915-2.292 2.742-4.119 5.034-5.034zm-5.034 11.68c1.062.544 2.371.958 3.795 1.239.281 1.423.695 2.733 1.239 3.795-2.292-.915-4.119-2.742-5.034-5.034zm11.68 5.034c.544-1.062.958-2.371 1.239-3.795 1.423-.281 2.733-.695 3.795-1.239-.915 2.292-2.742 4.119-5.034 5.034z"/></g><g><path d="m52 9c-2.206 0-4-1.794-4-4s1.794-4 4-4 4 1.794 4 4-1.794 4-4 4zm0-6c-1.103 0-2 .897-2 2s.897 2 2 2 2-.897 2-2-.897-2-2-2z" fill="#2b74ca"/></g><g><path d="m40 63c-2.206 0-4-1.794-4-4s1.794-4 4-4 4 1.794 4 4-1.794 4-4 4zm0-6c-1.103 0-2 .897-2 2s.897 2 2 2 2-.897 2-2-.897-2-2-2z" fill="#2b74ca"/></g><path d="m51 24c-2.949 0-5.649 1.074-7.741 2.845l-7.812-7.812c1.592-1.908 2.553-4.36 2.553-7.033 0-1.121-.171-2.202-.484-3.222l11.08-1.705c.704 1.151 1.96 1.927 3.404 1.927 2.206 0 4-1.794 4-4s-1.794-4-4-4-4 1.794-4 4c0 .048.012.092.014.14l-11.288 1.737c-1.846-3.491-5.51-5.877-9.726-5.877-6.065 0-11 4.935-11 11 0 3.639 1.784 6.861 4.514 8.865l-8.176 18.169c-6.308.346-11.338 5.573-11.338 11.966 0 6.617 5.383 12 12 12s12-5.383 12-12c0-.766-.08-1.514-.218-2.241l15.956-6.57c1.137 1.877 2.766 3.421 4.716 4.442l-5.046 8.41c-.135-.014-.268-.041-.408-.041-2.206 0-4 1.794-4 4s1.794 4 4 4 4-1.794 4-4c0-1.341-.669-2.523-1.684-3.249l5.001-8.335c1.161.376 2.398.584 3.683.584 6.617 0 12-5.383 12-12s-5.383-12-12-12zm1-21c1.103 0 2 .897 2 2s-.897 2-2 2-2-.897-2-2 .897-2 2-2zm-12 58c-1.103 0-2-.897-2-2s.897-2 2-2 2 .897 2 2-.897 2-2 2zm20.473-28.179c-1.289-.669-2.973-1.159-4.836-1.459-.3-1.863-.789-3.546-1.459-4.836 2.959.996 5.3 3.337 6.295 6.295zm-4.584 5.74c.071-.844.111-1.702.111-2.561s-.04-1.717-.111-2.561c3.187.61 5.111 1.732 5.111 2.561s-1.924 1.951-5.111 2.561zm-4.889 7.439c-.829 0-1.951-1.924-2.561-5.111.844.071 1.702.111 2.561.111s1.717-.04 2.561-.111c-.61 3.187-1.732 5.111-2.561 5.111zm0-7c-1.014 0-1.965-.055-2.854-.146-.091-.889-.146-1.84-.146-2.854s.055-1.965.146-2.854c.889-.091 1.84-.146 2.854-.146s1.965.055 2.854.146c.091.889.146 1.84.146 2.854s-.055 1.965-.146 2.854c-.889.091-1.84.146-2.854.146zm-10-3c0-.829 1.924-1.951 5.111-2.561-.071.844-.111 1.702-.111 2.561s.04 1.717.111 2.561c-3.187-.61-5.111-1.732-5.111-2.561zm10-10c.829 0 1.951 1.924 2.561 5.111-.844-.071-1.702-.111-2.561-.111s-1.717.04-2.561.111c.61-3.187 1.732-5.111 2.561-5.111zm-3.179.527c-.669 1.289-1.159 2.973-1.459 4.836-1.863.3-3.546.789-4.836 1.459.996-2.959 3.337-5.3 6.295-6.295zm-23.288-9.656c.816.082 1.645.129 2.467.129s1.651-.047 2.467-.129c-.62 2.604-1.662 4.129-2.467 4.129s-1.847-1.525-2.467-4.129zm-6.533-4.871c0-.805 1.525-1.847 4.129-2.467-.082.816-.129 1.645-.129 2.467s.047 1.651.129 2.467c-2.604-.62-4.129-1.662-4.129-2.467zm6 0c0-1.015.061-1.962.168-2.832.87-.107 1.817-.168 2.832-.168s1.962.061 2.832.168c.107.87.168 1.817.168 2.832s-.061 1.962-.168 2.832c-.87.107-1.817.168-2.832.168s-1.962-.061-2.832-.168c-.107-.87-.168-1.817-.168-2.832zm3-9c.805 0 1.847 1.525 2.467 4.129-.816-.082-1.645-.129-2.467-.129s-1.651.047-2.467.129c.62-2.604 1.662-4.129 2.467-4.129zm9 9c0 .805-1.525 1.847-4.129 2.467.082-.816.129-1.645.129-2.467s-.047-1.651-.129-2.467c2.604.62 4.129 1.662 4.129 2.467zm-4.438 4.562c1.423-.281 2.733-.695 3.795-1.239-.915 2.292-2.742 4.119-5.034 5.034.544-1.062.958-2.372 1.239-3.795zm3.795-7.885c-1.062-.544-2.371-.958-3.795-1.239-.281-1.423-.695-2.733-1.239-3.795 2.292.915 4.119 2.742 5.034 5.034zm-11.68-5.034c-.544 1.062-.958 2.371-1.239 3.795-1.423.281-2.733.695-3.795 1.239.915-2.292 2.742-4.119 5.034-5.034zm-5.034 11.68c1.062.544 2.371.958 3.795 1.239.281 1.423.695 2.733 1.239 3.795-2.292-.915-4.119-2.742-5.034-5.034zm-.754 38.238c.071-.844.111-1.702.111-2.561s-.04-1.717-.111-2.561c3.187.61 5.111 1.732 5.111 2.561s-1.924 1.951-5.111 2.561zm-4.889 7.439c-.829 0-1.951-1.924-2.561-5.111.844.071 1.702.111 2.561.111s1.717-.04 2.561-.111c-.61 3.187-1.732 5.111-2.561 5.111zm0-7c-1.014 0-1.965-.055-2.854-.146-.091-.889-.146-1.84-.146-2.854s.055-1.965.146-2.854c.889-.091 1.84-.146 2.854-.146s1.965.055 2.854.146c.091.889.146 1.84.146 2.854s-.055 1.965-.146 2.854c-.889.091-1.84.146-2.854.146zm-10-3c0-.829 1.924-1.951 5.111-2.561-.071.844-.111 1.702-.111 2.561s.04 1.717.111 2.561c-3.187-.61-5.111-1.732-5.111-2.561zm10-10c.829 0 1.951 1.924 2.561 5.111-.844-.071-1.702-.111-2.561-.111s-1.717.04-2.561.111c.61-3.187 1.732-5.111 2.561-5.111zm4.638 5.362c-.3-1.863-.789-3.546-1.459-4.836 2.959.996 5.299 3.336 6.295 6.295-1.29-.669-2.974-1.158-4.836-1.459zm-7.817-4.835c-.669 1.289-1.159 2.973-1.459 4.836-1.863.3-3.546.789-4.836 1.459.996-2.959 3.337-5.3 6.295-6.295zm-6.294 12.652c1.289.669 2.973 1.159 4.836 1.459.3 1.863.789 3.546 1.459 4.836-2.959-.996-5.3-3.337-6.295-6.295zm12.652 6.294c.669-1.289 1.159-2.973 1.459-4.836 1.863-.3 3.546-.789 4.836-1.459-.996 2.959-3.337 5.3-6.295 6.295zm8.055-13.651c-1.534-4.109-5.248-7.154-9.735-7.718l7.741-17.202c1.443.696 3.054 1.098 4.76 1.098 2.673 0 5.125-.961 7.034-2.552l7.812 7.812c-1.772 2.091-2.846 4.791-2.846 7.74 0 1.552.306 3.031.845 4.394zm17.293-7.643c1.289.669 2.973 1.159 4.836 1.459.3 1.863.789 3.546 1.459 4.836-2.959-.996-5.3-3.337-6.295-6.295zm12.652 6.294c.669-1.289 1.159-2.973 1.459-4.836 1.863-.3 3.546-.789 4.836-1.459-.996 2.959-3.337 5.3-6.295 6.295z"/></g></svg>