<!--?xml version="1.0" standalone="no"?-->

<svg version="1.0" xmlns="http://www.w3.org/2000/svg" width="794.000000pt" height="794.000000pt" viewBox="0 0 794.000000 794.000000" preserveAspectRatio="xMidYMid meet" xmlns:xlink="http://www.w3.org/1999/xlink" id="svgid1" repair="1">

<g transform="translate(0.000000,794.000000) scale(0.100000,-0.100000)" fill="rgb(42, 102, 146)" stroke="none" coriginal="rgb(0,0,0)" colortype="0" awdzp="0" style="fill: rgb(42, 102, 146);">
<path d="M3605 7259 c-392 -25 -862 -100 -1287 -205 -277 -68 -593 -162 -759
-225 l-79 -31 2 -1851 3 -1852 32 -92 c51 -147 107 -246 237 -423 192 -263
425 -490 936 -911 711 -586 1143 -926 1247 -981 l43 -23 47 25 c224 118 1373
1079 1804 1509 313 313 497 572 601 846 l23 60 5 1847 5 1847 -105 39 c-58 22
-157 55 -220 75 -896 278 -1759 395 -2535 346z m-281 -1445 c345 -322 631
-584 636 -582 7 3 328 309 1027 981 l185 177 412 -2 411 -3 3 -1270 c4 -1545
-2 -1706 -72 -1983 -69 -271 -191 -456 -583 -884 -75 -82 -139 -148 -144 -148
-5 0 -10 647 -11 1510 l-3 1510 -432 -351 -433 -351 0 -648 0 -648 -352 -7
c-194 -4 -366 -5 -383 -4 l-30 4 -3 642 -2 642 -403 363 c-221 199 -403 366
-405 370 -2 5 -7 8 -10 8 -4 0 -6 -683 -4 -1517 1 -834 -2 -1521 -6 -1525 -10
-10 -291 274 -403 407 -109 129 -209 270 -256 361 -98 190 -146 425 -163 799
-11 226 -14 2718 -3 2728 3 4 185 7 403 7 l397 0 627 -586z"></path>
</g>
</svg>
