<svg xmlns="http://www.w3.org/2000/svg" xmlns:xlink="http://www.w3.org/1999/xlink" viewBox="0 0 58 66" fill="#fff" fill-rule="evenodd" stroke="#000" stroke-linecap="round" stroke-linejoin="round"><use xlink:href="#D" x=".5" y=".5"/><defs><linearGradient id="A" spreadMethod="pad" y2="-3.70%" x2="5.90%" y1="97.43%" x1="85.47%"><stop offset="0%" stop-color="#4f66b9"/><stop offset="1%" stop-color="#484fab"/></linearGradient><linearGradient id="B" spreadMethod="pad" y2="-3.45%" x2="14.49%" y1="94.28%" x1="110.58%"><stop offset="0%" stop-color="#4f66b9"/><stop offset="1%" stop-color="#484fab"/></linearGradient><linearGradient id="C" spreadMethod="pad" y2="17.57%" x2="11.69%" y1="94.54%" x1="63.02%"><stop offset="0%" stop-color="#4c68bb"/><stop offset="1%" stop-color="#5180c9"/></linearGradient></defs><symbol id="D" overflow="visible"><g stroke="none" fill-rule="nonzero"><path d="M22.368 21.969h2.628v7.75l7.567-7.75h3.469l-8.303 8.539 8.828 9.853h-3.363l-8.198-9.196v9.196h-2.628V21.969" fill="url(#A)"/><path d="M30.6 14.67l12.941 7.472c.221.128.356.363.357.618v14.943c0 .255.137.491.357.618l11.549 6.668c.476.275 1.071-.07 1.071-.618V15.267c0-.255-.136-.49-.356-.618L31.315.098c-.476-.275-1.072.07-1.072.619v13.336c0 .255.136.49.357.618" fill="url(#B)"/><path d="M41.735 41.448L28.794 48.92a.71.71 0 0 1-.714 0l-14.747-8.514c-.221-.128-.357-.364-.357-.619V22.758c.001-.255.137-.49.358-.618l12.941-7.471c.221-.127.357-.363.357-.618V.715c0-.549-.595-.893-1.071-.619L.356 14.649c-.221.128-.356.363-.356.618V47.28c0 .255.136.49.356.619L28.08 63.904a.71.71 0 0 0 .714 0l25.204-14.551c.476-.275.476-.962 0-1.237l-11.549-6.668c-.222-.128-.493-.128-.714 0" fill="url(#C)"/></g></symbol></svg>