<svg id="svg" version="1.1" xmlns="http://www.w3.org/2000/svg" xmlns:xlink="http://www.w3.org/1999/xlink" width="400" height="250" viewBox="0, 0, 400,250"><g id="svgg"><path id="path0" d="" stroke="none" fill="#fbfbfc" fill-rule="evenodd"></path><path id="path1" d="M180.250 23.000 C 180.250 31.583,180.240 31.750,179.750 31.750 C 179.475 31.750,179.250 31.863,179.250 32.000 C 179.250 32.138,179.032 32.250,178.765 32.250 C 178.498 32.250,178.210 32.362,178.125 32.500 C 178.040 32.638,177.696 32.750,177.360 32.750 C 177.025 32.750,176.750 32.862,176.750 33.000 C 176.750 33.138,176.532 33.250,176.265 33.250 C 175.998 33.250,175.710 33.362,175.625 33.500 C 175.540 33.638,175.196 33.750,174.860 33.750 C 174.525 33.750,174.250 33.862,174.250 34.000 C 174.250 34.138,173.912 34.250,173.500 34.250 C 173.088 34.250,172.750 34.362,172.750 34.500 C 172.750 34.638,172.525 34.750,172.250 34.750 C 171.975 34.750,171.750 34.862,171.750 35.000 C 171.750 35.138,171.412 35.250,171.000 35.250 C 170.588 35.250,170.250 35.362,170.250 35.500 C 170.250 35.638,170.025 35.750,169.750 35.750 C 169.475 35.750,169.250 35.862,169.250 36.000 C 169.250 36.138,168.912 36.250,168.500 36.250 C 168.088 36.250,167.750 36.362,167.750 36.500 C 167.750 36.638,167.525 36.750,167.250 36.750 C 166.975 36.750,166.750 36.862,166.750 37.000 C 166.750 37.138,166.412 37.250,166.000 37.250 C 165.588 37.250,165.250 37.362,165.250 37.500 C 165.250 37.638,165.025 37.750,164.750 37.750 C 164.475 37.750,164.250 37.862,164.250 38.000 C 164.250 38.138,163.912 38.250,163.500 38.250 C 163.088 38.250,162.750 38.362,162.750 38.500 C 162.750 38.638,162.525 38.750,162.250 38.750 C 161.975 38.750,161.750 38.862,161.750 39.000 C 161.750 39.138,161.412 39.250,161.000 39.250 C 160.588 39.250,160.250 39.362,160.250 39.500 C 160.250 39.638,160.025 39.750,159.750 39.750 C 159.475 39.750,159.250 39.862,159.250 40.000 C 159.250 40.138,158.912 40.250,158.500 40.250 C 158.088 40.250,157.750 40.362,157.750 40.500 C 157.750 40.638,157.525 40.750,157.250 40.750 C 156.975 40.750,156.750 40.862,156.750 41.000 C 156.750 41.138,156.412 41.250,156.000 41.250 C 155.588 41.250,155.250 41.362,155.250 41.500 C 155.250 41.638,155.025 41.750,154.750 41.750 C 154.475 41.750,154.250 41.862,154.250 42.000 C 154.250 42.138,153.912 42.250,153.500 42.250 C 153.088 42.250,152.750 42.362,152.750 42.500 C 152.750 42.638,152.532 42.750,152.265 42.750 C 151.998 42.750,151.710 42.862,151.625 43.000 C 151.540 43.138,151.196 43.250,150.860 43.250 C 150.525 43.250,150.250 43.362,150.250 43.500 C 150.250 43.638,150.032 43.750,149.765 43.750 C 149.498 43.750,149.210 43.862,149.125 44.000 C 149.040 44.138,148.696 44.250,148.360 44.250 C 148.025 44.250,147.750 44.362,147.750 44.500 C 147.750 44.638,147.532 44.750,147.265 44.750 C 146.998 44.750,146.710 44.862,146.625 45.000 C 146.540 45.138,146.196 45.250,145.860 45.250 C 145.525 45.250,145.250 45.362,145.250 45.500 C 145.250 45.638,145.032 45.750,144.765 45.750 C 144.498 45.750,144.210 45.863,144.125 46.000 C 144.040 46.138,143.696 46.250,143.360 46.250 C 143.025 46.250,142.750 46.362,142.750 46.500 C 142.750 46.638,142.412 46.750,142.000 46.750 C 141.588 46.750,141.250 46.862,141.250 47.000 C 141.250 47.138,141.025 47.250,140.750 47.250 C 140.475 47.250,140.250 47.362,140.250 47.500 C 140.250 47.638,139.912 47.750,139.500 47.750 C 139.088 47.750,138.750 47.862,138.750 48.000 C 138.750 48.138,138.525 48.250,138.250 48.250 C 137.975 48.250,137.750 48.362,137.750 48.500 C 137.750 48.638,137.412 48.750,137.000 48.750 C 136.588 48.750,136.250 48.862,136.250 49.000 C 136.250 49.138,136.025 49.250,135.750 49.250 C 135.475 49.250,135.250 49.362,135.250 49.500 C 135.250 49.638,134.912 49.750,134.500 49.750 C 134.088 49.750,133.750 49.862,133.750 50.000 C 133.750 50.138,133.525 50.250,133.250 50.250 C 132.975 50.250,132.750 50.362,132.750 50.500 C 132.750 50.638,132.412 50.750,132.000 50.750 C 131.588 50.750,131.250 50.862,131.250 51.000 C 131.250 51.138,131.025 51.250,130.750 51.250 C 130.475 51.250,130.250 51.362,130.250 51.500 C 130.250 51.638,129.912 51.750,129.500 51.750 C 129.088 51.750,128.750 51.862,128.750 52.000 C 128.750 52.138,128.412 52.250,128.000 52.250 C 127.588 52.250,127.250 52.362,127.250 52.500 C 127.250 52.638,127.025 52.750,126.750 52.750 C 126.475 52.750,126.250 52.862,126.250 53.000 C 126.250 53.138,125.912 53.250,125.500 53.250 C 125.088 53.250,124.750 53.362,124.750 53.500 C 124.750 53.638,124.525 53.750,124.250 53.750 C 123.975 53.750,123.750 53.862,123.750 54.000 C 123.750 54.138,123.465 54.250,123.117 54.250 C 122.505 54.250,120.750 55.705,120.750 56.212 C 120.750 56.337,120.300 56.903,119.750 57.470 C 119.200 58.037,118.750 58.624,118.750 58.775 C 118.750 58.926,118.413 59.365,118.000 59.750 C 117.588 60.135,117.250 60.585,117.250 60.750 C 117.250 60.915,116.913 61.365,116.500 61.750 C 116.088 62.135,115.750 62.561,115.750 62.695 C 115.750 62.830,115.300 63.403,114.750 63.970 C 114.200 64.537,113.750 65.124,113.750 65.275 C 113.750 65.426,113.413 65.865,113.000 66.250 C 112.588 66.635,112.250 67.085,112.250 67.250 C 112.250 67.415,111.913 67.865,111.500 68.250 C 111.088 68.635,110.750 69.061,110.750 69.195 C 110.750 69.330,110.300 69.903,109.750 70.470 C 109.200 71.037,108.750 71.624,108.750 71.775 C 108.750 71.926,108.413 72.365,108.000 72.750 C 107.588 73.135,107.250 73.585,107.250 73.750 C 107.250 73.915,106.941 74.348,106.562 74.712 C 106.184 75.077,105.715 75.684,105.520 76.063 C 105.325 76.441,105.072 76.750,104.958 76.750 C 104.843 76.750,104.750 87.438,104.750 100.500 L 104.750 124.250 105.360 124.250 C 105.696 124.250,106.040 124.362,106.125 124.500 C 106.210 124.638,106.948 124.750,107.765 124.750 C 108.588 124.750,109.250 124.861,109.250 125.000 C 109.250 125.141,109.953 125.250,110.860 125.250 C 111.746 125.250,112.540 125.362,112.625 125.500 C 112.710 125.637,113.448 125.750,114.265 125.750 C 115.088 125.750,115.750 125.861,115.750 126.000 C 115.750 126.143,116.500 126.250,117.500 126.250 C 118.500 126.250,119.250 126.357,119.250 126.500 C 119.250 126.638,119.588 126.750,120.000 126.750 L 120.750 126.750 120.758 99.938 C 120.767 70.417,120.662 72.250,122.340 72.250 C 122.841 72.250,123.250 72.138,123.250 72.000 C 123.250 71.862,123.813 71.750,124.500 71.750 C 125.188 71.750,125.750 71.638,125.750 71.500 C 125.750 71.361,126.417 71.250,127.250 71.250 C 128.083 71.250,128.750 71.139,128.750 71.000 C 128.750 70.861,129.417 70.750,130.250 70.750 C 131.083 70.750,131.750 70.639,131.750 70.500 C 131.750 70.362,132.313 70.250,133.000 70.250 C 133.688 70.250,134.250 70.138,134.250 70.000 C 134.250 69.862,134.806 69.750,135.485 69.750 C 136.165 69.750,136.790 69.638,136.875 69.500 C 136.960 69.362,137.642 69.250,138.390 69.250 C 139.138 69.250,139.750 69.138,139.750 69.000 C 139.750 68.862,140.313 68.750,141.000 68.750 C 141.688 68.750,142.250 68.638,142.250 68.500 C 142.250 68.361,142.917 68.250,143.750 68.250 C 144.583 68.250,145.250 68.139,145.250 68.000 C 145.250 67.862,145.813 67.750,146.500 67.750 C 147.188 67.750,147.750 67.638,147.750 67.500 C 147.750 67.362,148.306 67.250,148.985 67.250 C 149.665 67.250,150.290 67.138,150.375 67.000 C 150.460 66.862,151.142 66.750,151.890 66.750 C 152.638 66.750,153.250 66.638,153.250 66.500 C 153.250 66.362,153.813 66.250,154.500 66.250 C 155.188 66.250,155.750 66.138,155.750 66.000 C 155.750 65.861,156.417 65.750,157.250 65.750 C 158.083 65.750,158.750 65.639,158.750 65.500 C 158.750 65.362,159.313 65.250,160.000 65.250 C 160.688 65.250,161.250 65.138,161.250 65.000 C 161.250 64.862,161.806 64.750,162.485 64.750 C 163.165 64.750,163.790 64.638,163.875 64.500 C 163.960 64.362,164.642 64.250,165.390 64.250 C 166.138 64.250,166.750 64.138,166.750 64.000 C 166.750 63.862,167.313 63.750,168.000 63.750 C 168.688 63.750,169.250 63.638,169.250 63.500 C 169.250 63.361,169.917 63.250,170.750 63.250 C 171.583 63.250,172.250 63.139,172.250 63.000 C 172.250 62.862,172.813 62.750,173.500 62.750 C 174.188 62.750,174.750 62.638,174.750 62.500 C 174.750 62.362,175.306 62.250,175.985 62.250 C 176.665 62.250,177.290 62.138,177.375 62.000 C 177.460 61.862,178.142 61.750,178.890 61.750 C 179.638 61.750,180.250 61.638,180.250 61.500 C 180.250 61.362,180.813 61.250,181.500 61.250 C 182.188 61.250,182.750 61.138,182.750 61.000 C 182.750 60.861,183.417 60.750,184.250 60.750 C 185.083 60.750,185.750 60.639,185.750 60.500 C 185.750 60.362,186.313 60.250,187.000 60.250 C 187.688 60.250,188.250 60.138,188.250 60.000 C 188.250 59.862,188.806 59.750,189.485 59.750 C 190.165 59.750,190.790 59.638,190.875 59.500 C 190.960 59.363,191.642 59.250,192.390 59.250 C 193.138 59.250,193.750 59.138,193.750 59.000 C 193.750 58.862,194.313 58.750,195.000 58.750 C 195.688 58.750,196.250 58.638,196.250 58.500 C 196.250 58.361,196.917 58.250,197.750 58.250 C 198.583 58.250,199.250 58.139,199.250 58.000 C 199.250 57.862,199.813 57.750,200.500 57.750 C 201.188 57.750,201.750 57.638,201.750 57.500 C 201.750 57.362,202.306 57.250,202.985 57.250 C 203.665 57.250,204.290 57.137,204.375 57.000 C 204.460 56.862,205.142 56.750,205.890 56.750 C 206.638 56.750,207.250 56.638,207.250 56.500 C 207.250 56.362,207.813 56.250,208.500 56.250 C 209.188 56.250,209.750 56.138,209.750 56.000 C 209.750 55.861,210.417 55.750,211.250 55.750 C 212.083 55.750,212.750 55.639,212.750 55.500 C 212.750 55.362,213.313 55.250,214.000 55.250 C 214.688 55.250,215.250 55.138,215.250 55.000 C 215.250 54.862,215.806 54.750,216.485 54.750 C 217.165 54.750,217.790 54.637,217.875 54.500 C 217.960 54.362,218.642 54.250,219.390 54.250 C 220.138 54.250,220.750 54.138,220.750 54.000 C 220.750 53.862,221.306 53.750,221.985 53.750 C 222.665 53.750,223.290 53.638,223.375 53.500 C 223.460 53.363,224.142 53.250,224.890 53.250 C 225.638 53.250,226.250 53.138,226.250 53.000 C 226.250 52.862,226.813 52.750,227.500 52.750 C 228.188 52.750,228.750 52.638,228.750 52.500 C 228.750 52.361,229.417 52.250,230.250 52.250 C 231.083 52.250,231.750 52.139,231.750 52.000 C 231.750 51.862,231.598 51.750,231.412 51.750 C 231.226 51.750,230.721 51.412,230.289 51.000 C 229.858 50.587,229.408 50.250,229.289 50.250 C 229.171 50.250,228.721 49.912,228.289 49.500 C 227.858 49.087,227.380 48.750,227.228 48.750 C 227.075 48.750,226.635 48.412,226.250 48.000 C 225.865 47.587,225.415 47.250,225.250 47.250 C 225.085 47.250,224.635 46.912,224.250 46.500 C 223.865 46.087,223.394 45.750,223.205 45.750 C 223.015 45.750,222.698 45.525,222.500 45.250 C 222.302 44.975,222.012 44.750,221.857 44.750 C 221.701 44.750,221.221 44.413,220.789 44.000 C 220.358 43.587,219.908 43.250,219.789 43.250 C 219.671 43.250,219.221 42.912,218.789 42.500 C 218.358 42.087,217.908 41.750,217.789 41.750 C 217.671 41.750,217.221 41.413,216.789 41.000 C 216.358 40.587,215.880 40.250,215.728 40.250 C 215.575 40.250,215.135 39.913,214.750 39.500 C 214.365 39.087,213.915 38.750,213.750 38.750 C 213.585 38.750,213.135 38.412,212.750 38.000 C 212.365 37.587,211.894 37.250,211.705 37.250 C 211.515 37.250,211.198 37.025,211.000 36.750 C 210.802 36.475,210.512 36.250,210.357 36.250 C 210.201 36.250,209.721 35.913,209.289 35.500 C 208.858 35.087,208.408 34.750,208.289 34.750 C 208.171 34.750,207.721 34.413,207.289 34.000 C 206.858 33.587,206.380 33.250,206.228 33.250 C 206.075 33.250,205.635 32.913,205.250 32.500 C 204.865 32.087,204.415 31.750,204.250 31.750 C 204.085 31.750,203.635 31.412,203.250 31.000 C 202.865 30.587,202.394 30.250,202.205 30.250 C 202.015 30.250,201.698 30.025,201.500 29.750 C 201.302 29.475,201.012 29.250,200.857 29.250 C 200.701 29.250,200.221 28.913,199.789 28.500 C 199.358 28.088,198.908 27.750,198.789 27.750 C 198.671 27.750,198.221 27.413,197.789 27.000 C 197.358 26.588,196.880 26.250,196.728 26.250 C 196.575 26.250,196.135 25.912,195.750 25.500 C 195.365 25.087,194.915 24.750,194.750 24.750 C 194.585 24.750,194.135 24.412,193.750 24.000 C 193.365 23.587,192.894 23.250,192.705 23.250 C 192.515 23.250,192.198 23.025,192.000 22.750 C 191.802 22.475,191.512 22.250,191.357 22.250 C 191.201 22.250,190.721 21.913,190.289 21.500 C 189.858 21.087,189.408 20.750,189.289 20.750 C 189.171 20.750,188.721 20.413,188.289 20.000 C 187.858 19.587,187.380 19.250,187.228 19.250 C 187.075 19.250,186.635 18.913,186.250 18.500 C 185.865 18.087,185.415 17.750,185.250 17.750 C 185.085 17.750,184.635 17.413,184.250 17.000 C 183.865 16.587,183.411 16.250,183.242 16.250 C 183.072 16.250,182.752 16.052,182.529 15.811 C 182.307 15.569,181.816 15.213,181.438 15.019 C 181.059 14.824,180.750 14.572,180.750 14.458 C 180.750 14.343,180.637 14.250,180.500 14.250 C 180.338 14.250,180.250 17.333,180.250 23.000 M272.125 45.500 C 272.040 45.638,271.358 45.750,270.610 45.750 C 269.862 45.750,269.250 45.862,269.250 46.000 C 269.250 46.138,268.688 46.250,268.000 46.250 C 267.313 46.250,266.750 46.362,266.750 46.500 C 266.750 46.638,266.194 46.750,265.515 46.750 C 264.835 46.750,264.210 46.862,264.125 47.000 C 264.040 47.138,263.358 47.250,262.610 47.250 C 261.862 47.250,261.250 47.362,261.250 47.500 C 261.250 47.638,260.688 47.750,260.000 47.750 C 259.313 47.750,258.750 47.862,258.750 48.000 C 258.750 48.138,258.188 48.250,257.500 48.250 C 256.813 48.250,256.250 48.362,256.250 48.500 C 256.250 48.639,255.583 48.750,254.750 48.750 C 253.917 48.750,253.250 48.861,253.250 49.000 C 253.250 49.138,252.694 49.250,252.015 49.250 C 251.335 49.250,250.710 49.362,250.625 49.500 C 250.540 49.638,249.858 49.750,249.110 49.750 C 248.362 49.750,247.750 49.862,247.750 50.000 C 247.750 50.138,247.188 50.250,246.500 50.250 C 245.813 50.250,245.250 50.362,245.250 50.500 C 245.250 50.638,244.694 50.750,244.015 50.750 C 243.335 50.750,242.710 50.862,242.625 51.000 C 242.540 51.138,241.858 51.250,241.110 51.250 C 240.362 51.250,239.750 51.362,239.750 51.500 C 239.750 51.638,239.188 51.750,238.500 51.750 C 237.813 51.750,237.250 51.862,237.250 52.000 C 237.250 52.138,236.766 52.250,236.175 52.250 C 235.584 52.250,234.797 52.391,234.427 52.563 L 233.754 52.875 233.752 98.813 L 233.750 144.750 232.250 144.750 C 231.417 144.750,230.750 144.639,230.750 144.500 C 230.750 144.359,230.047 144.250,229.140 144.250 C 228.254 144.250,227.460 144.137,227.375 144.000 C 227.290 143.863,226.552 143.750,225.735 143.750 C 224.912 143.750,224.250 143.639,224.250 143.500 C 224.250 143.359,223.547 143.250,222.640 143.250 C 221.754 143.250,220.960 143.137,220.875 143.000 C 220.790 142.863,220.052 142.750,219.235 142.750 C 218.412 142.750,217.750 142.639,217.750 142.500 C 217.750 142.357,217.000 142.250,216.000 142.250 C 215.000 142.250,214.250 142.143,214.250 142.000 C 214.250 141.861,213.583 141.750,212.750 141.750 C 211.917 141.750,211.250 141.639,211.250 141.500 C 211.250 141.357,210.500 141.250,209.500 141.250 C 208.500 141.250,207.750 141.143,207.750 141.000 C 207.750 140.861,207.083 140.750,206.250 140.750 C 205.417 140.750,204.750 140.639,204.750 140.500 C 204.750 140.357,204.000 140.250,203.000 140.250 C 202.000 140.250,201.250 140.143,201.250 140.000 C 201.250 139.859,200.547 139.750,199.640 139.750 C 198.754 139.750,197.960 139.637,197.875 139.500 C 197.790 139.362,197.052 139.250,196.235 139.250 C 195.412 139.250,194.750 139.139,194.750 139.000 C 194.750 138.859,194.047 138.750,193.140 138.750 C 192.254 138.750,191.460 138.637,191.375 138.500 C 191.290 138.363,190.552 138.250,189.735 138.250 C 188.912 138.250,188.250 138.139,188.250 138.000 C 188.250 137.859,187.547 137.750,186.640 137.750 C 185.754 137.750,184.960 137.637,184.875 137.500 C 184.790 137.363,184.052 137.250,183.235 137.250 C 182.412 137.250,181.750 137.139,181.750 137.000 C 181.750 136.857,181.000 136.750,180.000 136.750 C 179.000 136.750,178.250 136.643,178.250 136.500 C 178.250 136.361,177.583 136.250,176.750 136.250 C 175.917 136.250,175.250 136.139,175.250 136.000 C 175.250 135.857,174.500 135.750,173.500 135.750 C 172.500 135.750,171.750 135.643,171.750 135.500 C 171.750 135.361,171.083 135.250,170.250 135.250 C 169.417 135.250,168.750 135.139,168.750 135.000 C 168.750 134.857,168.000 134.750,167.000 134.750 C 166.000 134.750,165.250 134.643,165.250 134.500 C 165.250 134.361,164.583 134.250,163.750 134.250 C 162.917 134.250,162.250 134.139,162.250 134.000 C 162.250 133.857,161.500 133.750,160.500 133.750 C 159.500 133.750,158.750 133.643,158.750 133.500 C 158.750 133.359,158.047 133.250,157.140 133.250 C 156.254 133.250,155.460 133.137,155.375 133.000 C 155.290 132.863,154.552 132.750,153.735 132.750 C 152.912 132.750,152.250 132.639,152.250 132.500 C 152.250 132.359,151.547 132.250,150.640 132.250 C 149.754 132.250,148.960 132.137,148.875 132.000 C 148.790 131.863,148.052 131.750,147.235 131.750 C 146.412 131.750,145.750 131.639,145.750 131.500 C 145.750 131.357,145.000 131.250,144.000 131.250 C 143.000 131.250,142.250 131.143,142.250 131.000 C 142.250 130.861,141.583 130.750,140.750 130.750 C 139.917 130.750,139.250 130.639,139.250 130.500 C 139.250 130.357,138.500 130.250,137.500 130.250 C 136.500 130.250,135.750 130.143,135.750 130.000 C 135.750 129.861,135.083 129.750,134.250 129.750 C 133.417 129.750,132.750 129.639,132.750 129.500 C 132.750 129.357,132.000 129.250,131.000 129.250 C 130.000 129.250,129.250 129.143,129.250 129.000 C 129.250 128.856,128.463 128.750,127.390 128.750 C 126.367 128.750,125.460 128.637,125.375 128.500 C 125.194 128.208,123.250 128.157,123.250 128.445 C 123.250 128.552,123.475 128.802,123.750 129.000 C 124.025 129.198,124.250 129.504,124.250 129.679 C 124.250 129.854,124.925 130.682,125.750 131.520 C 126.575 132.358,127.250 133.154,127.250 133.288 C 127.250 133.422,127.813 134.080,128.500 134.750 C 129.188 135.420,129.750 136.095,129.750 136.250 C 129.750 136.405,130.313 137.080,131.000 137.750 C 131.687 138.420,132.250 139.095,132.250 139.250 C 132.250 139.405,132.813 140.080,133.500 140.750 C 134.188 141.420,134.750 142.087,134.750 142.232 C 134.750 142.378,135.425 143.182,136.250 144.020 C 137.075 144.858,137.750 145.646,137.750 145.771 C 137.750 145.895,138.313 146.572,139.000 147.274 C 139.687 147.976,140.250 148.651,140.250 148.774 C 140.250 148.897,140.813 149.572,141.500 150.274 C 142.188 150.976,142.750 151.651,142.750 151.774 C 142.750 151.897,143.312 152.572,144.000 153.274 C 144.688 153.976,145.250 154.651,145.250 154.774 C 145.250 154.897,145.813 155.572,146.500 156.274 C 147.188 156.976,147.750 157.651,147.750 157.774 C 147.750 157.897,148.313 158.572,149.000 159.274 C 149.688 159.976,150.250 160.651,150.250 160.774 C 150.250 160.897,150.813 161.572,151.500 162.274 C 152.188 162.976,152.750 163.659,152.750 163.792 C 152.750 163.924,153.313 164.580,154.000 165.250 C 154.688 165.920,155.250 166.595,155.250 166.750 C 155.250 166.905,155.813 167.580,156.500 168.250 C 157.188 168.920,157.750 169.595,157.750 169.750 C 157.750 169.905,158.313 170.580,159.000 171.250 C 159.688 171.920,160.250 172.595,160.250 172.750 C 160.250 172.905,160.813 173.580,161.500 174.250 C 162.188 174.920,162.750 175.595,162.750 175.750 C 162.750 175.905,163.313 176.580,164.000 177.250 C 164.688 177.920,165.250 178.590,165.250 178.740 C 165.250 179.010,167.364 181.250,167.618 181.250 C 167.691 181.250,167.750 176.588,167.750 170.890 C 167.750 160.593,167.819 159.719,168.572 160.472 C 168.725 160.625,169.165 160.750,169.550 160.750 C 169.935 160.750,170.250 160.863,170.250 161.000 C 170.250 161.137,170.588 161.250,171.000 161.250 C 171.412 161.250,171.750 161.363,171.750 161.500 C 171.750 161.637,172.088 161.750,172.500 161.750 C 172.912 161.750,173.250 161.863,173.250 162.000 C 173.250 162.137,173.588 162.250,174.000 162.250 C 174.412 162.250,174.750 162.363,174.750 162.500 C 174.750 162.637,175.088 162.750,175.500 162.750 C 175.912 162.750,176.250 162.863,176.250 163.000 C 176.250 163.137,176.525 163.250,176.860 163.250 C 177.196 163.250,177.540 163.363,177.625 163.500 C 177.710 163.637,177.998 163.750,178.265 163.750 C 178.532 163.750,178.750 163.863,178.750 164.000 C 178.750 164.137,179.088 164.250,179.500 164.250 C 179.912 164.250,180.250 164.363,180.250 164.500 C 180.250 164.637,180.588 164.750,181.000 164.750 C 181.412 164.750,181.750 164.863,181.750 165.000 C 181.750 165.137,182.088 165.250,182.500 165.250 C 182.912 165.250,183.250 165.363,183.250 165.500 C 183.250 165.637,183.588 165.750,184.000 165.750 C 184.412 165.750,184.750 165.863,184.750 166.000 C 184.750 166.137,185.088 166.250,185.500 166.250 C 185.912 166.250,186.250 166.363,186.250 166.500 C 186.250 166.637,186.525 166.750,186.860 166.750 C 187.196 166.750,187.540 166.863,187.625 167.000 C 187.710 167.137,187.998 167.250,188.265 167.250 C 188.532 167.250,188.750 167.363,188.750 167.500 C 188.750 167.637,189.088 167.750,189.500 167.750 C 189.912 167.750,190.250 167.863,190.250 168.000 C 190.250 168.137,190.588 168.250,191.000 168.250 C 191.412 168.250,191.750 168.363,191.750 168.500 C 191.750 168.637,192.088 168.750,192.500 168.750 C 192.912 168.750,193.250 168.863,193.250 169.000 C 193.250 169.137,193.588 169.250,194.000 169.250 C 194.412 169.250,194.750 169.363,194.750 169.500 C 194.750 169.637,195.088 169.750,195.500 169.750 C 195.912 169.750,196.250 169.863,196.250 170.000 C 196.250 170.137,196.525 170.250,196.860 170.250 C 197.196 170.250,197.540 170.363,197.625 170.500 C 197.710 170.637,197.998 170.750,198.265 170.750 C 198.532 170.750,198.750 170.863,198.750 171.000 C 198.750 171.137,199.088 171.250,199.500 171.250 C 199.912 171.250,200.250 171.363,200.250 171.500 C 200.250 171.637,200.588 171.750,201.000 171.750 C 201.412 171.750,201.750 171.863,201.750 172.000 C 201.750 172.137,202.088 172.250,202.500 172.250 C 202.912 172.250,203.250 172.363,203.250 172.500 C 203.250 172.637,203.588 172.750,204.000 172.750 C 204.412 172.750,204.750 172.863,204.750 173.000 C 204.750 173.137,205.088 173.250,205.500 173.250 C 205.912 173.250,206.250 173.363,206.250 173.500 C 206.250 173.637,206.525 173.750,206.860 173.750 C 207.196 173.750,207.540 173.863,207.625 174.000 C 207.710 174.137,207.998 174.250,208.265 174.250 C 208.532 174.250,208.750 174.363,208.750 174.500 C 208.750 174.637,209.088 174.750,209.500 174.750 C 209.912 174.750,210.250 174.863,210.250 175.000 C 210.250 175.137,210.588 175.250,211.000 175.250 C 211.412 175.250,211.750 175.363,211.750 175.500 C 211.750 175.637,212.088 175.750,212.500 175.750 C 212.912 175.750,213.250 175.863,213.250 176.000 C 213.250 176.137,213.588 176.250,214.000 176.250 C 214.412 176.250,214.750 176.363,214.750 176.500 C 214.750 176.637,215.025 176.750,215.360 176.750 C 215.696 176.750,216.040 176.862,216.125 177.000 C 216.210 177.137,216.498 177.250,216.765 177.250 C 217.032 177.250,217.250 177.363,217.250 177.500 C 217.250 177.637,217.588 177.750,218.000 177.750 C 218.412 177.750,218.750 177.863,218.750 178.000 C 218.750 178.137,219.088 178.250,219.500 178.250 C 219.912 178.250,220.250 178.363,220.250 178.500 C 220.250 178.637,220.588 178.750,221.000 178.750 C 221.412 178.750,221.750 178.863,221.750 179.000 C 221.750 179.137,222.088 179.250,222.500 179.250 C 222.912 179.250,223.250 179.363,223.250 179.500 C 223.250 179.637,223.588 179.750,224.000 179.750 C 224.412 179.750,224.750 179.863,224.750 180.000 C 224.750 180.137,225.025 180.250,225.360 180.250 C 225.696 180.250,226.040 180.362,226.125 180.500 C 226.210 180.637,226.498 180.750,226.765 180.750 C 227.032 180.750,227.250 180.863,227.250 181.000 C 227.250 181.137,227.588 181.250,228.000 181.250 C 228.412 181.250,228.750 181.363,228.750 181.500 C 228.750 181.637,229.088 181.750,229.500 181.750 C 229.912 181.750,230.250 181.863,230.250 182.000 C 230.250 182.137,230.588 182.250,231.000 182.250 C 231.412 182.250,231.750 182.363,231.750 182.500 C 231.750 183.079,232.581 182.669,233.774 181.500 C 234.476 180.812,235.151 180.250,235.274 180.250 C 235.396 180.250,236.182 179.575,237.020 178.750 C 237.858 177.925,238.654 177.250,238.788 177.250 C 238.922 177.250,239.580 176.688,240.250 176.000 C 240.920 175.313,241.587 174.750,241.732 174.750 C 241.878 174.750,242.682 174.075,243.520 173.250 C 244.358 172.425,245.146 171.750,245.270 171.750 C 245.395 171.750,246.182 171.075,247.020 170.250 C 247.858 169.425,248.646 168.750,248.770 168.750 C 248.895 168.750,249.682 168.075,250.520 167.250 C 251.358 166.425,252.146 165.750,252.271 165.750 C 252.395 165.750,253.072 165.188,253.774 164.500 C 254.476 163.813,255.151 163.250,255.274 163.250 C 255.396 163.250,256.182 162.575,257.020 161.750 C 257.858 160.925,258.654 160.250,258.788 160.250 C 258.922 160.250,259.580 159.687,260.250 159.000 C 260.920 158.312,261.587 157.750,261.732 157.750 C 261.878 157.750,262.682 157.075,263.520 156.250 C 264.358 155.425,265.146 154.750,265.270 154.750 C 265.395 154.750,266.182 154.075,267.020 153.250 C 267.858 152.425,268.646 151.750,268.771 151.750 C 268.895 151.750,269.572 151.188,270.274 150.500 C 270.976 149.813,271.656 149.250,271.784 149.250 C 271.912 149.250,272.407 148.860,272.883 148.383 L 273.750 147.517 273.750 96.383 L 273.750 45.250 273.015 45.250 C 272.610 45.250,272.210 45.362,272.125 45.500 M78.550 207.050 C 78.385 207.215,78.250 207.553,78.250 207.800 C 78.250 208.047,78.138 208.250,78.000 208.250 C 77.862 208.250,77.750 208.475,77.750 208.750 C 77.750 209.025,77.638 209.250,77.500 209.250 C 77.362 209.250,77.250 209.468,77.250 209.735 C 77.250 210.002,77.138 210.290,77.000 210.375 C 76.862 210.460,76.750 210.804,76.750 211.140 C 76.750 211.475,76.638 211.750,76.500 211.750 C 76.362 211.750,76.250 211.975,76.250 212.250 C 76.250 212.525,76.138 212.750,76.000 212.750 C 75.862 212.750,75.750 212.975,75.750 213.250 C 75.750 213.525,75.638 213.750,75.500 213.750 C 75.362 213.750,75.250 214.025,75.250 214.360 C 75.250 214.696,75.138 215.040,75.000 215.125 C 74.862 215.210,74.750 215.498,74.750 215.765 C 74.750 216.032,74.638 216.250,74.500 216.250 C 74.362 216.250,74.250 216.475,74.250 216.750 C 74.250 217.025,74.138 217.250,74.000 217.250 C 73.862 217.250,73.750 217.475,73.750 217.750 C 73.750 218.025,73.638 218.250,73.500 218.250 C 73.362 218.250,73.250 218.525,73.250 218.860 C 73.250 219.196,73.138 219.540,73.000 219.625 C 72.862 219.710,72.750 219.998,72.750 220.265 C 72.750 220.532,72.638 220.750,72.500 220.750 C 72.362 220.750,72.250 220.975,72.250 221.250 C 72.250 221.525,72.138 221.750,72.000 221.750 C 71.862 221.750,71.750 221.920,71.750 222.128 C 71.750 222.496,71.645 222.761,71.039 223.934 C 70.880 224.242,70.750 224.663,70.750 224.872 C 70.750 225.080,70.638 225.250,70.500 225.250 C 70.362 225.250,70.250 225.475,70.250 225.750 C 70.250 226.025,70.138 226.250,70.000 226.250 C 69.862 226.250,69.750 226.468,69.750 226.735 C 69.750 227.002,69.638 227.290,69.500 227.375 C 69.362 227.460,69.250 227.804,69.250 228.140 C 69.250 228.475,69.138 228.750,69.000 228.750 C 68.862 228.750,68.750 228.975,68.750 229.250 C 68.750 229.525,68.638 229.750,68.500 229.750 C 68.362 229.750,68.250 229.975,68.250 230.250 C 68.250 230.525,68.138 230.750,68.000 230.750 C 67.862 230.750,67.750 231.025,67.750 231.360 C 67.750 231.696,67.638 232.040,67.500 232.125 C 66.856 232.523,67.400 232.750,69.000 232.750 C 70.583 232.750,70.750 232.702,70.750 232.250 C 70.750 231.975,70.862 231.750,71.000 231.750 C 71.138 231.750,71.250 231.532,71.250 231.265 C 71.250 230.998,71.362 230.710,71.500 230.625 C 71.638 230.540,71.750 230.196,71.750 229.860 C 71.750 229.525,71.862 229.250,72.000 229.250 C 72.138 229.250,72.250 229.025,72.250 228.750 C 72.250 228.475,72.362 228.250,72.500 228.250 C 72.638 228.250,72.750 228.077,72.750 227.866 C 72.750 227.655,72.932 227.205,73.154 226.866 L 73.558 226.250 80.354 226.250 C 87.405 226.250,87.750 226.299,87.750 227.300 C 87.750 227.547,87.862 227.750,88.000 227.750 C 88.138 227.750,88.250 227.975,88.250 228.250 C 88.250 228.525,88.362 228.750,88.500 228.750 C 88.638 228.750,88.750 228.968,88.750 229.235 C 88.750 229.502,88.862 229.790,89.000 229.875 C 89.138 229.960,89.250 230.304,89.250 230.640 C 89.250 230.975,89.362 231.250,89.500 231.250 C 89.638 231.250,89.750 231.427,89.750 231.643 C 89.750 232.436,90.418 232.750,92.107 232.750 C 93.036 232.750,93.750 232.641,93.750 232.500 C 93.750 232.363,93.638 232.250,93.500 232.250 C 93.362 232.250,93.250 232.025,93.250 231.750 C 93.250 231.475,93.138 231.250,93.000 231.250 C 92.862 231.250,92.750 231.032,92.750 230.765 C 92.750 230.498,92.638 230.210,92.500 230.125 C 92.362 230.040,92.250 229.696,92.250 229.360 C 92.250 229.025,92.138 228.750,92.000 228.750 C 91.862 228.750,91.750 228.525,91.750 228.250 C 91.750 227.975,91.638 227.750,91.500 227.750 C 91.362 227.750,91.250 227.580,91.250 227.372 C 91.250 227.163,91.138 226.770,91.000 226.497 C 90.863 226.223,90.638 225.777,90.500 225.503 C 90.362 225.230,90.250 224.837,90.250 224.628 C 90.250 224.420,90.138 224.250,90.000 224.250 C 89.862 224.250,89.750 224.025,89.750 223.750 C 89.750 223.475,89.638 223.250,89.500 223.250 C 89.362 223.250,89.250 223.032,89.250 222.765 C 89.250 222.498,89.138 222.210,89.000 222.125 C 88.862 222.040,88.750 221.696,88.750 221.360 C 88.750 221.025,88.638 220.750,88.500 220.750 C 88.362 220.750,88.250 220.525,88.250 220.250 C 88.250 219.975,88.138 219.750,88.000 219.750 C 87.862 219.750,87.750 219.532,87.750 219.265 C 87.750 218.998,87.638 218.710,87.500 218.625 C 87.362 218.540,87.250 218.196,87.250 217.860 C 87.250 217.525,87.138 217.250,87.000 217.250 C 86.862 217.250,86.750 217.025,86.750 216.750 C 86.750 216.475,86.638 216.250,86.500 216.250 C 86.362 216.250,86.250 216.025,86.250 215.750 C 86.250 215.475,86.138 215.250,86.000 215.250 C 85.862 215.250,85.750 214.975,85.750 214.640 C 85.750 214.304,85.638 213.960,85.500 213.875 C 85.362 213.790,85.250 213.502,85.250 213.235 C 85.250 212.968,85.138 212.750,85.000 212.750 C 84.862 212.750,84.750 212.525,84.750 212.250 C 84.750 211.975,84.638 211.750,84.500 211.750 C 84.362 211.750,84.250 211.532,84.250 211.265 C 84.250 210.998,84.138 210.710,84.000 210.625 C 83.862 210.540,83.750 210.196,83.750 209.860 C 83.750 209.525,83.638 209.250,83.500 209.250 C 83.362 209.250,83.250 209.025,83.250 208.750 C 83.250 208.475,83.138 208.250,83.000 208.250 C 82.862 208.250,82.750 208.073,82.750 207.857 C 82.750 206.842,79.402 206.198,78.550 207.050 M191.250 219.750 L 191.250 232.750 196.235 232.750 C 199.289 232.750,201.280 232.653,201.375 232.500 C 201.460 232.363,202.254 232.250,203.140 232.250 C 204.047 232.250,204.750 232.141,204.750 232.000 C 204.750 231.863,205.072 231.750,205.465 231.750 C 206.218 231.750,209.250 230.315,209.250 229.958 C 209.250 229.844,209.397 229.750,209.576 229.750 C 209.959 229.750,211.750 228.165,211.750 227.826 C 211.750 227.699,211.973 227.355,212.246 227.062 C 212.961 226.295,213.750 224.815,213.750 224.242 C 213.750 223.972,213.863 223.750,214.000 223.750 C 214.137 223.750,214.250 223.419,214.250 223.015 C 214.250 222.610,214.363 222.210,214.500 222.125 C 214.638 222.040,214.750 220.914,214.750 219.610 C 214.750 218.203,214.649 217.250,214.500 217.250 C 214.363 217.250,214.250 216.863,214.250 216.390 C 214.250 215.917,214.137 215.460,214.000 215.375 C 213.863 215.290,213.750 215.002,213.750 214.735 C 213.750 214.468,213.637 214.250,213.500 214.250 C 213.363 214.250,213.250 214.025,213.250 213.750 C 213.250 213.475,213.137 213.250,213.000 213.250 C 212.863 213.250,212.750 213.094,212.750 212.904 C 212.750 212.455,209.830 209.481,208.938 209.020 C 208.559 208.825,208.250 208.572,208.250 208.458 C 208.250 208.343,208.032 208.250,207.765 208.250 C 207.498 208.250,207.210 208.137,207.125 208.000 C 207.040 207.863,206.696 207.750,206.360 207.750 C 206.025 207.750,205.750 207.637,205.750 207.500 C 205.750 207.363,205.250 207.250,204.640 207.250 C 204.029 207.250,203.460 207.137,203.375 207.000 C 203.279 206.845,200.956 206.750,197.235 206.750 L 191.250 206.750 191.250 219.750 M271.750 207.000 C 271.750 207.137,271.300 207.250,270.750 207.250 C 270.200 207.250,269.750 207.363,269.750 207.500 C 269.750 207.637,269.525 207.750,269.250 207.750 C 268.975 207.750,268.750 207.863,268.750 208.000 C 268.750 208.137,268.525 208.250,268.250 208.250 C 267.975 208.250,267.750 208.363,267.750 208.500 C 267.750 208.637,267.525 208.750,267.250 208.750 C 266.975 208.750,266.750 208.843,266.750 208.958 C 266.750 209.072,266.441 209.325,266.063 209.520 C 265.195 209.967,263.250 211.969,263.250 212.415 C 263.250 212.599,263.158 212.750,263.046 212.750 C 262.755 212.750,261.750 214.707,261.750 215.274 C 261.750 215.536,261.637 215.750,261.500 215.750 C 261.363 215.750,261.250 216.137,261.250 216.610 C 261.250 217.083,261.137 217.540,261.000 217.625 C 260.863 217.710,260.750 218.673,260.750 219.765 C 260.750 220.922,260.854 221.750,261.000 221.750 C 261.137 221.750,261.250 222.200,261.250 222.750 C 261.250 223.300,261.363 223.750,261.500 223.750 C 261.637 223.750,261.750 223.975,261.750 224.250 C 261.750 224.525,261.863 224.750,262.000 224.750 C 262.137 224.750,262.250 224.975,262.250 225.250 C 262.250 225.525,262.363 225.750,262.500 225.750 C 262.637 225.750,262.750 225.936,262.750 226.162 C 262.750 226.774,266.566 230.422,267.737 230.929 C 268.294 231.170,268.750 231.454,268.750 231.559 C 268.750 231.664,269.087 231.750,269.500 231.750 C 269.913 231.750,270.250 231.863,270.250 232.000 C 270.250 232.137,270.700 232.250,271.250 232.250 C 271.800 232.250,272.250 232.363,272.250 232.500 C 272.250 232.647,273.120 232.750,274.360 232.750 C 275.521 232.750,276.540 232.637,276.625 232.500 C 276.710 232.363,277.223 232.250,277.765 232.250 C 278.307 232.250,278.750 232.137,278.750 232.000 C 278.750 231.863,278.908 231.750,279.101 231.750 C 279.518 231.750,281.588 230.708,281.708 230.438 C 281.754 230.334,281.953 230.250,282.150 230.250 C 282.598 230.250,285.500 227.358,285.980 226.433 C 286.175 226.057,286.428 225.750,286.542 225.750 C 286.657 225.750,286.750 225.525,286.750 225.250 C 286.750 224.975,286.863 224.750,287.000 224.750 C 287.137 224.750,287.250 224.412,287.250 224.000 C 287.250 223.588,287.363 223.250,287.500 223.250 C 287.637 223.250,287.750 222.688,287.750 222.000 C 287.750 221.313,287.863 220.750,288.000 220.750 C 288.137 220.750,288.250 220.307,288.250 219.765 C 288.250 219.223,288.137 218.710,288.000 218.625 C 287.863 218.540,287.750 217.978,287.750 217.375 C 287.750 216.772,287.637 216.210,287.500 216.125 C 287.363 216.040,287.250 215.696,287.250 215.360 C 287.250 215.025,287.137 214.750,287.000 214.750 C 286.863 214.750,286.750 214.525,286.750 214.250 C 286.750 213.975,286.637 213.750,286.500 213.750 C 286.363 213.750,286.250 213.580,286.250 213.373 C 286.250 213.165,285.899 212.631,285.469 212.185 C 285.040 211.740,284.521 211.122,284.316 210.813 C 284.110 210.503,283.832 210.250,283.697 210.250 C 283.561 210.250,283.135 209.912,282.750 209.500 C 282.365 209.088,281.870 208.750,281.650 208.750 C 281.430 208.750,281.250 208.637,281.250 208.500 C 281.250 208.363,281.025 208.250,280.750 208.250 C 280.475 208.250,280.250 208.137,280.250 208.000 C 280.250 207.863,279.975 207.750,279.640 207.750 C 279.304 207.750,278.960 207.637,278.875 207.500 C 278.790 207.363,278.390 207.250,277.985 207.250 C 277.581 207.250,277.250 207.137,277.250 207.000 C 277.250 206.848,276.167 206.750,274.500 206.750 C 272.833 206.750,271.750 206.848,271.750 207.000 M202.875 210.000 C 202.960 210.137,203.466 210.250,204.000 210.250 C 204.534 210.250,205.040 210.363,205.125 210.500 C 205.210 210.637,205.498 210.750,205.765 210.750 C 206.032 210.750,206.250 210.863,206.250 211.000 C 206.250 211.137,206.421 211.250,206.630 211.250 C 207.126 211.250,209.750 213.874,209.750 214.370 C 209.750 214.579,209.863 214.750,210.000 214.750 C 210.137 214.750,210.250 214.975,210.250 215.250 C 210.250 215.525,210.363 215.750,210.500 215.750 C 210.637 215.750,210.750 216.137,210.750 216.610 C 210.750 217.083,210.863 217.540,211.000 217.625 C 211.137 217.710,211.250 218.666,211.250 219.750 C 211.250 220.834,211.137 221.790,211.000 221.875 C 210.863 221.960,210.750 222.417,210.750 222.890 C 210.750 223.363,210.637 223.750,210.500 223.750 C 210.363 223.750,210.250 223.975,210.250 224.250 C 210.250 224.525,210.137 224.750,210.000 224.750 C 209.863 224.750,209.750 224.922,209.750 225.132 C 209.750 225.514,207.683 227.745,207.319 227.756 C 207.212 227.759,206.844 227.981,206.500 228.250 C 206.156 228.519,205.622 228.741,205.313 228.744 C 205.003 228.747,204.750 228.863,204.750 229.000 C 204.750 229.158,202.917 229.250,199.750 229.250 L 194.750 229.250 194.750 219.500 L 194.750 209.750 198.735 209.750 C 201.122 209.750,202.782 209.850,202.875 210.000 M276.750 210.000 C 276.750 210.137,277.116 210.253,277.563 210.256 C 278.009 210.259,278.656 210.481,279.000 210.750 C 279.344 211.019,279.714 211.241,279.823 211.244 C 279.932 211.247,280.262 211.475,280.558 211.750 C 280.853 212.025,281.223 212.250,281.380 212.250 C 281.537 212.250,281.824 212.559,282.019 212.938 C 282.213 213.316,282.569 213.807,282.811 214.029 C 283.052 214.252,283.250 214.617,283.250 214.842 C 283.250 215.066,283.363 215.250,283.500 215.250 C 283.637 215.250,283.750 215.588,283.750 216.000 C 283.750 216.412,283.863 216.750,284.000 216.750 C 284.153 216.750,284.250 217.917,284.250 219.750 C 284.250 221.583,284.153 222.750,284.000 222.750 C 283.863 222.750,283.750 223.088,283.750 223.500 C 283.750 223.912,283.637 224.250,283.500 224.250 C 283.363 224.250,283.250 224.406,283.250 224.596 C 283.250 225.081,280.123 228.250,279.644 228.250 C 279.427 228.250,279.250 228.363,279.250 228.500 C 279.250 228.637,279.025 228.750,278.750 228.750 C 278.475 228.750,278.250 228.863,278.250 229.000 C 278.250 229.137,277.807 229.250,277.265 229.250 C 276.723 229.250,276.210 229.363,276.125 229.500 C 276.040 229.637,275.309 229.750,274.500 229.750 C 273.691 229.750,272.960 229.637,272.875 229.500 C 272.790 229.363,272.277 229.250,271.735 229.250 C 271.193 229.250,270.750 229.137,270.750 229.000 C 270.750 228.863,270.525 228.750,270.250 228.750 C 269.975 228.750,269.750 228.637,269.750 228.500 C 269.750 228.363,269.566 228.250,269.342 228.250 C 269.117 228.250,268.750 228.053,268.526 227.813 C 268.301 227.572,267.902 227.255,267.638 227.108 C 267.374 226.962,267.038 226.626,266.892 226.362 C 266.745 226.098,266.428 225.699,266.188 225.474 C 265.947 225.250,265.750 224.883,265.750 224.658 C 265.750 224.434,265.637 224.250,265.500 224.250 C 265.363 224.250,265.250 224.025,265.250 223.750 C 265.250 223.475,265.137 223.250,265.000 223.250 C 264.863 223.250,264.750 222.807,264.750 222.265 C 264.750 221.723,264.637 221.210,264.500 221.125 C 264.363 221.040,264.250 220.358,264.250 219.610 C 264.250 218.862,264.363 218.250,264.500 218.250 C 264.637 218.250,264.750 217.855,264.750 217.372 C 264.750 216.888,264.845 216.298,264.961 216.059 C 265.944 214.037,266.285 213.498,267.127 212.641 C 267.540 212.220,268.187 211.715,268.564 211.520 C 268.941 211.325,269.250 211.072,269.250 210.958 C 269.250 210.843,269.475 210.750,269.750 210.750 C 270.025 210.750,270.250 210.637,270.250 210.500 C 270.250 210.363,270.637 210.250,271.110 210.250 C 271.583 210.250,272.040 210.137,272.125 210.000 C 272.210 209.863,273.285 209.750,274.515 209.750 C 275.838 209.750,276.750 209.852,276.750 210.000 M80.893 211.107 C 81.089 211.304,81.250 211.641,81.250 211.857 C 81.250 212.073,81.362 212.250,81.500 212.250 C 81.638 212.250,81.750 212.468,81.750 212.735 C 81.750 213.002,81.862 213.290,82.000 213.375 C 82.138 213.460,82.250 213.804,82.250 214.140 C 82.250 214.475,82.362 214.750,82.500 214.750 C 82.638 214.750,82.750 214.975,82.750 215.250 C 82.750 215.525,82.862 215.750,83.000 215.750 C 83.138 215.750,83.250 216.025,83.250 216.360 C 83.250 216.696,83.362 217.040,83.500 217.125 C 83.638 217.210,83.750 217.498,83.750 217.765 C 83.750 218.032,83.862 218.250,84.000 218.250 C 84.138 218.250,84.250 218.475,84.250 218.750 C 84.250 219.025,84.362 219.250,84.500 219.250 C 84.638 219.250,84.750 219.525,84.750 219.860 C 84.750 220.196,84.862 220.540,85.000 220.625 C 85.138 220.710,85.250 220.998,85.250 221.265 C 85.250 221.532,85.362 221.750,85.500 221.750 C 85.638 221.750,85.750 222.088,85.750 222.500 L 85.750 223.250 80.250 223.250 C 74.917 223.250,74.750 223.235,74.750 222.750 C 74.750 222.475,74.862 222.250,75.000 222.250 C 75.138 222.250,75.250 222.032,75.250 221.765 C 75.250 221.498,75.362 221.210,75.500 221.125 C 75.638 221.040,75.750 220.696,75.750 220.360 C 75.750 220.025,75.862 219.750,76.000 219.750 C 76.138 219.750,76.250 219.525,76.250 219.250 C 76.250 218.975,76.362 218.750,76.500 218.750 C 76.638 218.750,76.750 218.532,76.750 218.265 C 76.750 217.998,76.862 217.710,77.000 217.625 C 77.138 217.540,77.250 217.196,77.250 216.860 C 77.250 216.525,77.362 216.250,77.500 216.250 C 77.638 216.250,77.750 216.025,77.750 215.750 C 77.750 215.475,77.862 215.250,78.000 215.250 C 78.138 215.250,78.250 214.975,78.250 214.640 C 78.250 214.304,78.362 213.960,78.500 213.875 C 78.638 213.790,78.750 213.502,78.750 213.235 C 78.750 212.968,78.862 212.750,79.000 212.750 C 79.138 212.750,79.250 212.525,79.250 212.250 C 79.250 211.975,79.362 211.750,79.500 211.750 C 79.638 211.750,79.750 211.525,79.750 211.250 C 79.750 210.665,80.373 210.587,80.893 211.107 M96.750 214.500 L 96.750 215.750 102.500 215.750 C 108.083 215.750,108.250 215.764,108.250 216.250 C 108.250 216.525,108.157 216.750,108.042 216.750 C 107.928 216.750,107.675 217.059,107.480 217.438 C 107.285 217.816,106.591 218.652,105.938 219.296 C 105.284 219.940,104.750 220.576,104.750 220.708 C 104.750 220.841,104.188 221.524,103.500 222.226 C 102.813 222.928,102.250 223.603,102.250 223.726 C 102.250 223.849,101.714 224.497,101.059 225.166 C 100.404 225.834,99.592 226.774,99.255 227.253 C 98.917 227.733,98.216 228.538,97.696 229.043 C 96.824 229.889,96.750 230.070,96.750 231.355 L 96.750 232.750 104.750 232.750 L 112.750 232.750 112.750 231.250 L 112.750 229.750 107.000 229.750 L 101.250 229.750 101.250 229.150 C 101.250 228.768,101.702 228.089,102.500 227.274 C 103.188 226.572,103.750 225.897,103.750 225.774 C 103.750 225.651,104.286 225.003,104.941 224.334 C 105.596 223.666,106.408 222.726,106.745 222.247 C 107.083 221.767,107.784 220.962,108.304 220.457 C 108.824 219.952,109.250 219.435,109.250 219.308 C 109.250 219.181,109.925 218.367,110.750 217.500 C 111.575 216.633,112.250 215.772,112.250 215.587 C 112.250 215.402,112.362 215.250,112.500 215.250 C 112.638 215.250,112.750 214.800,112.750 214.250 L 112.750 213.250 104.750 213.250 L 96.750 213.250 96.750 214.500 M117.750 219.500 C 117.750 223.500,117.840 225.750,118.000 225.750 C 118.138 225.750,118.250 226.313,118.250 227.000 C 118.250 227.688,118.362 228.250,118.500 228.250 C 118.638 228.250,118.750 228.420,118.750 228.628 C 118.750 229.479,120.653 231.750,121.367 231.750 C 121.578 231.750,121.750 231.863,121.750 232.000 C 121.750 232.137,122.081 232.250,122.485 232.250 C 122.890 232.250,123.290 232.363,123.375 232.500 C 123.460 232.637,124.079 232.750,124.750 232.750 C 125.421 232.750,126.040 232.637,126.125 232.500 C 126.210 232.363,126.723 232.250,127.265 232.250 C 127.807 232.250,128.250 232.137,128.250 232.000 C 128.250 231.863,128.422 231.750,128.632 231.750 C 129.064 231.750,131.069 229.832,131.320 229.179 C 131.415 228.930,131.750 228.750,132.117 228.750 C 132.742 228.750,132.750 228.777,132.750 230.750 L 132.750 232.750 134.500 232.750 L 136.250 232.750 136.250 223.000 L 136.250 213.250 134.500 213.250 L 132.750 213.250 132.750 218.735 C 132.750 222.122,132.654 224.280,132.500 224.375 C 132.363 224.460,132.250 224.917,132.250 225.390 C 132.250 225.863,132.137 226.250,132.000 226.250 C 131.863 226.250,131.750 226.397,131.750 226.576 C 131.750 227.060,130.121 228.750,129.654 228.750 C 129.432 228.750,129.250 228.863,129.250 229.000 C 129.250 229.137,128.855 229.250,128.372 229.250 C 127.888 229.250,127.270 229.390,126.997 229.560 C 126.601 229.807,126.399 229.807,126.003 229.560 C 125.730 229.390,125.162 229.250,124.742 229.250 C 123.730 229.250,121.750 227.366,121.750 226.403 C 121.750 226.044,121.638 225.750,121.500 225.750 C 121.340 225.750,121.250 223.500,121.250 219.500 L 121.250 213.250 119.500 213.250 L 117.750 213.250 117.750 219.500 M143.250 223.000 L 143.250 232.750 145.000 232.750 L 146.750 232.750 146.750 227.140 C 146.750 223.669,146.845 221.471,147.000 221.375 C 147.137 221.290,147.250 220.890,147.250 220.485 C 147.250 220.081,147.363 219.750,147.500 219.750 C 147.637 219.750,147.750 219.603,147.750 219.424 C 147.750 218.940,149.379 217.250,149.846 217.250 C 150.068 217.250,150.250 217.137,150.250 217.000 C 150.250 216.863,150.588 216.750,151.000 216.750 C 151.412 216.750,151.750 216.637,151.750 216.500 C 151.750 216.363,152.200 216.250,152.750 216.250 L 153.750 216.250 153.750 214.750 L 153.750 213.250 152.890 213.250 C 152.417 213.250,151.960 213.363,151.875 213.500 C 151.790 213.637,151.512 213.750,151.256 213.750 C 151.001 213.750,150.754 213.834,150.708 213.938 C 150.662 214.041,150.203 214.440,149.688 214.825 C 149.172 215.210,148.750 215.637,148.750 215.774 C 148.750 216.165,147.564 217.250,147.136 217.250 C 146.820 217.250,146.750 216.887,146.750 215.250 L 146.750 213.250 145.000 213.250 L 143.250 213.250 143.250 223.000 M163.750 213.500 C 163.750 213.637,163.412 213.750,163.000 213.750 C 162.588 213.750,162.250 213.863,162.250 214.000 C 162.250 214.137,162.025 214.250,161.750 214.250 C 161.475 214.250,161.250 214.343,161.250 214.458 C 161.250 214.572,160.941 214.825,160.563 215.020 C 160.184 215.215,159.650 215.600,159.375 215.875 C 159.100 216.150,158.715 216.684,158.520 217.063 C 158.325 217.441,158.072 217.750,157.958 217.750 C 157.843 217.750,157.750 217.975,157.750 218.250 C 157.750 218.525,157.637 218.750,157.500 218.750 C 157.363 218.750,157.250 219.088,157.250 219.500 C 157.250 219.912,157.137 220.250,157.000 220.250 C 156.848 220.250,156.750 221.333,156.750 223.000 C 156.750 224.667,156.848 225.750,157.000 225.750 C 157.137 225.750,157.250 226.088,157.250 226.500 C 157.250 226.912,157.363 227.250,157.500 227.250 C 157.637 227.250,157.750 227.408,157.750 227.601 C 157.750 228.099,160.852 231.250,161.343 231.250 C 161.567 231.250,161.750 231.363,161.750 231.500 C 161.750 231.637,161.975 231.750,162.250 231.750 C 162.525 231.750,162.750 231.863,162.750 232.000 C 162.750 232.137,163.200 232.250,163.750 232.250 C 164.300 232.250,164.750 232.363,164.750 232.500 C 164.750 232.641,165.453 232.750,166.360 232.750 C 167.246 232.750,168.040 232.637,168.125 232.500 C 168.210 232.363,168.723 232.250,169.265 232.250 C 169.807 232.250,170.250 232.137,170.250 232.000 C 170.250 231.863,170.475 231.750,170.750 231.750 C 171.025 231.750,171.250 231.637,171.250 231.500 C 171.250 231.363,171.423 231.250,171.635 231.250 C 171.847 231.250,172.262 231.025,172.558 230.750 C 172.853 230.475,173.242 230.250,173.422 230.250 C 173.959 230.250,173.796 229.523,173.105 228.832 C 172.474 228.201,171.250 228.340,171.250 229.042 C 171.250 229.157,171.025 229.250,170.750 229.250 C 170.475 229.250,170.250 229.363,170.250 229.500 C 170.250 229.637,169.807 229.750,169.265 229.750 C 168.723 229.750,168.210 229.863,168.125 230.000 C 168.040 230.137,167.421 230.250,166.750 230.250 C 166.079 230.250,165.460 230.137,165.375 230.000 C 165.290 229.863,164.890 229.750,164.485 229.750 C 164.081 229.750,163.750 229.637,163.750 229.500 C 163.750 229.363,163.576 229.250,163.363 229.250 C 162.849 229.250,160.750 227.164,160.750 226.653 C 160.750 226.431,160.637 226.250,160.500 226.250 C 160.363 226.250,160.250 225.800,160.250 225.250 L 160.250 224.250 167.750 224.250 L 175.250 224.250 175.250 222.000 C 175.250 220.667,175.148 219.750,175.000 219.750 C 174.863 219.750,174.750 219.491,174.750 219.175 C 174.750 218.516,174.217 217.255,173.938 217.252 C 173.834 217.251,173.750 217.078,173.750 216.868 C 173.750 216.659,173.247 215.984,172.632 215.368 C 172.016 214.753,171.341 214.250,171.132 214.250 C 170.922 214.250,170.750 214.137,170.750 214.000 C 170.750 213.863,170.412 213.750,170.000 213.750 C 169.588 213.750,169.250 213.637,169.250 213.500 C 169.250 213.348,168.167 213.250,166.500 213.250 C 164.833 213.250,163.750 213.348,163.750 213.500 M225.625 213.500 C 225.540 213.637,225.196 213.750,224.860 213.750 C 224.525 213.750,224.250 213.863,224.250 214.000 C 224.250 214.137,224.025 214.250,223.750 214.250 C 223.475 214.250,223.250 214.363,223.250 214.500 C 223.250 214.637,223.078 214.750,222.868 214.750 C 222.486 214.750,220.255 216.817,220.244 217.181 C 220.241 217.288,220.019 217.656,219.750 218.000 C 219.481 218.344,219.259 218.878,219.256 219.188 C 219.253 219.497,219.137 219.750,219.000 219.750 C 218.863 219.750,218.750 220.346,218.750 221.075 C 218.750 221.804,218.609 222.549,218.438 222.731 C 218.188 222.996,218.188 223.085,218.438 223.177 C 218.634 223.249,218.750 223.787,218.750 224.631 C 218.750 225.368,218.863 226.040,219.000 226.125 C 219.137 226.210,219.250 226.498,219.250 226.765 C 219.250 227.032,219.363 227.250,219.500 227.250 C 219.637 227.250,219.750 227.475,219.750 227.750 C 219.750 228.025,219.843 228.250,219.958 228.250 C 220.072 228.250,220.325 228.559,220.520 228.938 C 220.942 229.755,221.381 230.250,221.685 230.250 C 221.806 230.250,222.130 230.447,222.403 230.688 C 223.106 231.306,223.929 231.750,224.372 231.750 C 224.580 231.750,224.750 231.863,224.750 232.000 C 224.750 232.137,225.137 232.250,225.610 232.250 C 226.083 232.250,226.540 232.363,226.625 232.500 C 226.710 232.637,227.441 232.750,228.250 232.750 C 229.059 232.750,229.790 232.637,229.875 232.500 C 229.960 232.363,230.410 232.250,230.875 232.250 C 231.340 232.250,231.790 232.137,231.875 232.000 C 231.960 231.863,232.304 231.750,232.640 231.750 C 232.975 231.750,233.250 231.637,233.250 231.500 C 233.250 231.363,233.418 231.250,233.624 231.250 C 233.830 231.250,234.407 230.865,234.906 230.395 L 235.812 229.540 235.167 228.895 C 234.549 228.276,233.750 228.028,233.750 228.454 C 233.750 228.832,231.709 229.750,230.866 229.750 C 230.406 229.750,229.960 229.863,229.875 230.000 C 229.790 230.137,229.165 230.250,228.485 230.250 C 227.806 230.250,227.250 230.137,227.250 230.000 C 227.250 229.863,226.877 229.750,226.422 229.750 C 225.940 229.750,225.370 229.541,225.058 229.250 C 224.762 228.975,224.396 228.750,224.243 228.750 C 223.884 228.750,223.466 228.301,223.020 227.438 C 222.825 227.059,222.572 226.750,222.458 226.750 C 222.343 226.750,222.250 226.412,222.250 226.000 C 222.250 225.588,222.137 225.250,222.000 225.250 C 221.863 225.250,221.750 225.025,221.750 224.750 C 221.750 224.261,221.917 224.250,229.500 224.250 L 237.250 224.250 237.250 222.250 C 237.250 221.083,237.146 220.250,237.000 220.250 C 236.863 220.250,236.750 219.863,236.750 219.390 C 236.750 218.917,236.637 218.460,236.500 218.375 C 236.363 218.290,236.250 218.002,236.250 217.735 C 236.250 217.468,236.137 217.250,236.000 217.250 C 235.863 217.250,235.750 217.103,235.750 216.924 C 235.750 216.480,234.282 214.954,233.438 214.519 C 233.059 214.325,232.750 214.072,232.750 213.958 C 232.750 213.843,232.419 213.750,232.015 213.750 C 231.610 213.750,231.210 213.637,231.125 213.500 C 231.038 213.359,229.836 213.250,228.375 213.250 C 226.914 213.250,225.712 213.359,225.625 213.500 M239.750 213.500 C 239.750 213.637,239.863 213.750,240.000 213.750 C 240.137 213.750,240.250 213.975,240.250 214.250 C 240.250 214.525,240.363 214.750,240.500 214.750 C 240.637 214.750,240.750 215.088,240.750 215.500 C 240.750 215.912,240.863 216.250,241.000 216.250 C 241.137 216.250,241.250 216.468,241.250 216.735 C 241.250 217.002,241.363 217.290,241.500 217.375 C 241.637 217.460,241.750 217.804,241.750 218.140 C 241.750 218.475,241.863 218.750,242.000 218.750 C 242.137 218.750,242.250 219.025,242.250 219.360 C 242.250 219.696,242.363 220.040,242.500 220.125 C 242.637 220.210,242.750 220.498,242.750 220.765 C 242.750 221.032,242.863 221.250,243.000 221.250 C 243.137 221.250,243.250 221.588,243.250 222.000 C 243.250 222.412,243.363 222.750,243.500 222.750 C 243.637 222.750,243.750 222.968,243.750 223.235 C 243.750 223.502,243.863 223.790,244.000 223.875 C 244.137 223.960,244.250 224.304,244.250 224.640 C 244.250 224.975,244.363 225.250,244.500 225.250 C 244.637 225.250,244.750 225.525,244.750 225.860 C 244.750 226.196,244.863 226.540,245.000 226.625 C 245.137 226.710,245.250 226.998,245.250 227.265 C 245.250 227.532,245.363 227.750,245.500 227.750 C 245.637 227.750,245.750 228.088,245.750 228.500 C 245.750 228.912,245.863 229.250,246.000 229.250 C 246.137 229.250,246.250 229.475,246.250 229.750 C 246.250 230.025,246.363 230.250,246.500 230.250 C 246.637 230.250,246.750 230.588,246.750 231.000 C 246.750 231.412,246.863 231.750,247.000 231.750 C 247.137 231.750,247.250 231.975,247.250 232.250 C 247.250 232.701,247.417 232.750,248.950 232.750 C 250.707 232.750,251.250 232.502,251.250 231.700 C 251.250 231.453,251.363 231.250,251.500 231.250 C 251.637 231.250,251.750 230.912,251.750 230.500 C 251.750 230.088,251.863 229.750,252.000 229.750 C 252.137 229.750,252.250 229.532,252.250 229.265 C 252.250 228.998,252.363 228.710,252.500 228.625 C 252.637 228.540,252.750 228.196,252.750 227.860 C 252.750 227.525,252.863 227.250,253.000 227.250 C 253.137 227.250,253.250 226.975,253.250 226.640 C 253.250 226.304,253.363 225.960,253.500 225.875 C 253.637 225.790,253.750 225.502,253.750 225.235 C 253.750 224.968,253.863 224.750,254.000 224.750 C 254.137 224.750,254.250 224.412,254.250 224.000 C 254.250 223.588,254.363 223.250,254.500 223.250 C 254.637 223.250,254.750 223.032,254.750 222.765 C 254.750 222.498,254.863 222.210,255.000 222.125 C 255.137 222.040,255.250 221.696,255.250 221.360 C 255.250 221.025,255.363 220.750,255.500 220.750 C 255.637 220.750,255.750 220.475,255.750 220.140 C 255.750 219.804,255.863 219.460,256.000 219.375 C 256.137 219.290,256.250 219.002,256.250 218.735 C 256.250 218.468,256.363 218.250,256.500 218.250 C 256.637 218.250,256.750 217.912,256.750 217.500 C 256.750 217.088,256.863 216.750,257.000 216.750 C 257.137 216.750,257.250 216.532,257.250 216.265 C 257.250 215.998,257.363 215.710,257.500 215.625 C 257.637 215.540,257.750 215.196,257.750 214.860 C 257.750 214.525,257.863 214.250,258.000 214.250 C 258.137 214.250,258.250 214.025,258.250 213.750 C 258.250 213.309,258.083 213.250,256.840 213.250 C 255.313 213.250,254.773 213.623,254.758 214.688 C 254.754 214.997,254.637 215.250,254.500 215.250 C 254.363 215.250,254.250 215.588,254.250 216.000 C 254.250 216.412,254.137 216.750,254.000 216.750 C 253.863 216.750,253.750 217.088,253.750 217.500 C 253.750 217.912,253.637 218.250,253.500 218.250 C 253.363 218.250,253.250 218.588,253.250 219.000 C 253.250 219.412,253.137 219.750,253.000 219.750 C 252.863 219.750,252.750 220.025,252.750 220.360 C 252.750 220.696,252.637 221.040,252.500 221.125 C 252.363 221.210,252.250 221.499,252.250 221.768 C 252.250 222.240,252.160 222.483,251.539 223.684 C 251.380 223.992,251.250 224.463,251.250 224.732 C 251.250 225.001,251.137 225.290,251.000 225.375 C 250.863 225.460,250.750 225.804,250.750 226.140 C 250.750 226.475,250.637 226.750,250.500 226.750 C 250.363 226.750,250.250 227.088,250.250 227.500 C 250.250 227.912,250.151 228.250,250.029 228.250 C 249.908 228.250,249.749 228.475,249.678 228.750 C 249.606 229.025,249.413 229.250,249.250 229.250 C 249.087 229.250,248.894 229.025,248.822 228.750 C 248.751 228.475,248.592 228.250,248.471 228.250 C 248.349 228.250,248.250 227.912,248.250 227.500 C 248.250 227.088,248.137 226.750,248.000 226.750 C 247.863 226.750,247.750 226.523,247.750 226.247 C 247.750 225.761,247.661 225.519,247.039 224.316 C 246.880 224.008,246.750 223.530,246.750 223.253 C 246.750 222.977,246.637 222.750,246.500 222.750 C 246.363 222.750,246.250 222.412,246.250 222.000 C 246.250 221.588,246.137 221.250,246.000 221.250 C 245.863 221.250,245.750 220.912,245.750 220.500 C 245.750 220.088,245.637 219.750,245.500 219.750 C 245.363 219.750,245.250 219.412,245.250 219.000 C 245.250 218.588,245.137 218.250,245.000 218.250 C 244.863 218.250,244.750 218.023,244.750 217.747 C 244.750 217.470,244.637 217.020,244.500 216.747 C 244.363 216.473,244.137 216.027,244.000 215.753 C 243.863 215.480,243.750 215.030,243.750 214.753 C 243.750 214.477,243.637 214.250,243.500 214.250 C 243.363 214.250,243.250 214.025,243.250 213.750 C 243.250 213.298,243.083 213.250,241.500 213.250 C 240.500 213.250,239.750 213.357,239.750 213.500 M293.750 226.500 L 293.750 239.750 295.500 239.750 L 297.250 239.750 297.250 234.500 C 297.250 228.544,297.283 228.463,299.000 230.250 C 299.528 230.800,300.138 231.250,300.355 231.250 C 300.572 231.250,300.751 231.334,300.752 231.438 C 300.755 231.738,302.037 232.250,302.785 232.250 C 303.162 232.250,303.540 232.363,303.625 232.500 C 303.710 232.637,304.329 232.750,305.000 232.750 C 305.671 232.750,306.290 232.637,306.375 232.500 C 306.460 232.363,306.917 232.250,307.390 232.250 C 307.863 232.250,308.250 232.137,308.250 232.000 C 308.250 231.863,308.475 231.750,308.750 231.750 C 309.025 231.750,309.250 231.637,309.250 231.500 C 309.250 231.363,309.430 231.250,309.650 231.250 C 310.123 231.250,312.250 229.070,312.250 228.585 C 312.250 228.401,312.363 228.250,312.500 228.250 C 312.637 228.250,312.750 228.025,312.750 227.750 C 312.750 227.475,312.863 227.250,313.000 227.250 C 313.137 227.250,313.250 226.975,313.250 226.640 C 313.250 226.304,313.363 225.960,313.500 225.875 C 313.852 225.657,313.819 220.377,313.461 219.684 C 312.859 218.521,312.750 218.247,312.750 217.907 C 312.750 217.420,309.625 214.250,309.144 214.250 C 308.927 214.250,308.750 214.137,308.750 214.000 C 308.750 213.863,308.413 213.750,308.000 213.750 C 307.587 213.750,307.250 213.637,307.250 213.500 C 307.250 213.350,306.250 213.250,304.750 213.250 C 303.250 213.250,302.250 213.350,302.250 213.500 C 302.250 213.637,301.972 213.750,301.631 213.750 C 301.212 213.750,300.518 214.234,299.480 215.250 C 297.458 217.228,297.250 217.205,297.250 215.000 L 297.250 213.250 295.500 213.250 L 293.750 213.250 293.750 226.500 M322.250 213.500 C 322.250 213.637,321.987 213.750,321.665 213.750 C 321.061 213.750,319.143 215.413,318.563 216.441 C 318.190 217.099,318.139 220.250,318.500 220.250 C 318.637 220.250,318.750 220.424,318.750 220.636 C 318.750 221.434,321.188 223.250,322.258 223.250 C 322.528 223.250,322.750 223.363,322.750 223.500 C 322.750 223.637,323.087 223.750,323.500 223.750 C 323.913 223.750,324.250 223.863,324.250 224.000 C 324.250 224.137,324.587 224.250,325.000 224.250 C 325.413 224.250,325.750 224.363,325.750 224.500 C 325.750 224.637,326.009 224.750,326.326 224.750 C 327.386 224.750,328.750 226.288,328.750 227.483 C 328.750 228.585,327.921 229.750,327.136 229.750 C 326.924 229.750,326.750 229.863,326.750 230.000 C 326.750 230.146,325.917 230.250,324.750 230.250 C 323.583 230.250,322.750 230.146,322.750 230.000 C 322.750 229.863,322.300 229.750,321.750 229.750 C 321.200 229.750,320.750 229.637,320.750 229.500 C 320.750 229.363,320.525 229.250,320.250 229.250 C 319.975 229.250,319.750 229.137,319.750 229.000 C 319.750 228.863,319.534 228.750,319.271 228.750 C 319.007 228.750,318.745 228.610,318.688 228.440 C 318.554 228.036,317.750 228.804,317.750 229.336 C 317.750 229.541,317.610 229.755,317.440 229.812 C 316.891 229.995,318.577 231.250,319.372 231.250 C 319.580 231.250,319.750 231.363,319.750 231.500 C 319.750 231.637,319.975 231.750,320.250 231.750 C 320.525 231.750,320.750 231.863,320.750 232.000 C 320.750 232.137,321.193 232.250,321.735 232.250 C 322.277 232.250,322.790 232.363,322.875 232.500 C 322.960 232.637,323.754 232.750,324.640 232.750 C 325.547 232.750,326.250 232.641,326.250 232.500 C 326.250 232.363,326.700 232.250,327.250 232.250 C 327.800 232.250,328.250 232.137,328.250 232.000 C 328.250 231.863,328.423 231.750,328.635 231.750 C 328.847 231.750,329.262 231.525,329.558 231.250 C 329.853 230.975,330.242 230.750,330.422 230.750 C 330.602 230.750,330.753 230.609,330.756 230.438 C 330.759 230.266,330.981 229.844,331.250 229.500 C 331.786 228.815,331.996 225.250,331.500 225.250 C 331.363 225.250,331.250 225.078,331.250 224.867 C 331.250 224.656,330.860 224.093,330.383 223.617 C 329.907 223.140,329.344 222.750,329.133 222.750 C 328.923 222.750,328.750 222.637,328.750 222.500 C 328.750 222.363,328.523 222.250,328.247 222.250 C 327.970 222.250,327.520 222.137,327.247 222.000 C 326.973 221.863,326.527 221.637,326.253 221.500 C 325.980 221.363,325.529 221.250,325.250 221.250 C 324.971 221.250,324.548 221.151,324.309 221.029 C 324.070 220.908,323.538 220.655,323.125 220.467 C 321.186 219.584,320.589 217.639,321.864 216.364 C 322.520 215.708,327.750 215.384,327.750 216.000 C 327.750 216.137,328.087 216.250,328.500 216.250 C 328.913 216.250,329.250 216.363,329.250 216.500 C 329.250 217.183,330.494 216.714,330.888 215.882 C 331.337 214.937,331.023 214.250,330.143 214.250 C 329.927 214.250,329.750 214.137,329.750 214.000 C 329.750 213.863,329.413 213.750,329.000 213.750 C 328.587 213.750,328.250 213.637,328.250 213.500 C 328.250 213.347,327.083 213.250,325.250 213.250 C 323.417 213.250,322.250 213.347,322.250 213.500 M169.125 216.000 C 169.210 216.137,169.445 216.250,169.648 216.250 C 170.134 216.250,171.750 217.877,171.750 218.367 C 171.750 218.577,171.863 218.750,172.000 218.750 C 172.139 218.750,172.250 219.417,172.250 220.250 L 172.250 221.750 166.140 221.750 C 160.095 221.750,159.261 221.639,159.972 220.928 C 160.125 220.775,160.250 220.335,160.250 219.950 C 160.250 219.565,160.363 219.250,160.500 219.250 C 160.637 219.250,160.750 219.066,160.750 218.842 C 160.750 218.618,161.241 217.943,161.842 217.342 C 162.443 216.741,163.118 216.250,163.342 216.250 C 163.566 216.250,163.750 216.137,163.750 216.000 C 163.750 215.849,164.787 215.750,166.360 215.750 C 167.831 215.750,169.038 215.859,169.125 216.000 M231.539 216.313 C 232.983 217.060,233.750 217.948,233.750 218.872 C 233.750 219.080,233.863 219.250,234.000 219.250 C 234.137 219.250,234.250 219.813,234.250 220.500 L 234.250 221.750 228.000 221.750 L 221.750 221.750 221.750 221.000 C 221.750 220.588,221.863 220.250,222.000 220.250 C 222.137 220.250,222.250 219.912,222.250 219.500 C 222.250 219.088,222.363 218.750,222.500 218.750 C 222.637 218.750,222.750 218.609,222.750 218.438 C 222.751 217.953,223.885 216.750,224.342 216.750 C 224.566 216.750,224.750 216.637,224.750 216.500 C 224.750 216.363,224.975 216.250,225.250 216.250 C 225.525 216.250,225.750 216.137,225.750 216.000 C 225.750 215.457,230.368 215.706,231.539 216.313 M305.750 216.000 C 305.750 216.137,306.078 216.250,306.479 216.250 C 306.880 216.250,307.246 216.334,307.292 216.438 C 307.337 216.541,307.797 216.940,308.313 217.325 C 308.828 217.710,309.250 218.188,309.250 218.388 C 309.250 218.587,309.363 218.750,309.500 218.750 C 309.637 218.750,309.750 218.975,309.750 219.250 C 309.750 219.525,309.863 219.750,310.000 219.750 C 310.137 219.750,310.250 220.290,310.250 220.950 C 310.250 221.610,310.385 222.285,310.550 222.450 C 310.783 222.683,310.783 222.817,310.550 223.050 C 310.385 223.215,310.250 223.823,310.250 224.401 C 310.250 226.297,308.990 228.174,307.037 229.188 C 305.868 229.794,301.250 230.043,301.250 229.500 C 301.250 229.363,301.025 229.250,300.750 229.250 C 300.475 229.250,300.250 229.162,300.250 229.054 C 300.250 228.946,299.913 228.658,299.500 228.415 C 299.087 228.171,298.750 227.861,298.750 227.725 C 298.750 227.590,298.525 227.238,298.250 226.942 C 297.975 226.647,297.750 226.146,297.750 225.828 C 297.750 225.510,297.637 225.250,297.500 225.250 C 297.351 225.250,297.250 224.297,297.250 222.890 C 297.250 221.586,297.362 220.460,297.500 220.375 C 297.637 220.290,297.750 220.002,297.750 219.735 C 297.750 219.468,297.863 219.250,298.000 219.250 C 298.137 219.250,298.250 219.077,298.250 218.867 C 298.250 218.153,300.521 216.250,301.372 216.250 C 301.580 216.250,301.750 216.137,301.750 216.000 C 301.750 215.854,302.583 215.750,303.750 215.750 C 304.917 215.750,305.750 215.854,305.750 216.000 " stroke="none" fill="#0078d4" fill-rule="evenodd"></path></g></svg>