<!--?xml version="1.0" standalone="no"?-->

<svg version="1.0" xmlns="http://www.w3.org/2000/svg" width="200.000000pt" height="200.000000pt" viewBox="0 0 200.000000 200.000000" preserveAspectRatio="xMidYMid meet" xmlns:xlink="http://www.w3.org/1999/xlink" id="svgid1" repair="1">

<g transform="translate(0.000000,200.000000) scale(0.100000,-0.100000)" fill="rgb(0, 150, 136)" stroke="none" coriginal="rgb(0,0,0)" colortype="0" awdzp="0" style="fill: rgb(0, 150, 136);">
<path d="M930 1730 c-292 -30 -547 -251 -620 -536 -27 -104 -27 -254 0 -358
63 -247 262 -447 514 -516 87 -24 246 -29 328 -11 148 34 271 104 375 215 115
122 171 241 193 407 20 147 -16 318 -92 447 -45 77 -156 192 -232 241 -74 49
-203 98 -277 106 -104 11 -125 12 -189 5z m270 -580 c74 0 120 -4 120 -10 0
-6 -80 -169 -177 -363 l-178 -352 -3 228 -2 227 -126 0 c-74 0 -124 4 -122 9
2 6 84 167 183 360 l180 349 3 -224 2 -224 120 0z"></path>
</g>
</svg>
